<?xml version="1.0" encoding="utf-8"?>
<!-- Generator: Adobe Illustrator 25.3.1, SVG Export Plug-In . SVG Version: 6.00 Build 0)  -->
<svg version="1.1" id="Layer_1" xmlns="http://www.w3.org/2000/svg" xmlns:xlink="http://www.w3.org/1999/xlink" x="0px" y="0px"
	 viewBox="0 0 500 500" style="enable-background:new 0 0 500 500;" xml:space="preserve">
<style type="text/css">
	.st0{fill:#575757;}
	.st1{fill:#838383;}
	.st2{fill:#464646;}
	.st3{fill:#3A3A3A;}
	.st4{fill:#FCFCFC;}
	.st5{fill:#585858;}
	.st6{fill:#A3A3A3;}
</style>
<g>
	<g>
		<path class="st0" d="M131.2,388.7c-0.5,0-1,0.1-1.4,0.1c-0.4,0.2-0.9-0.1-1.3,0.2c-0.4,0-0.8,0-1.2,0.1c-0.5,0.2-1.1-0.1-1.6,0.2
			c-0.4,0-0.8,0-1.2,0.1c-0.5,0.2-1.1-0.1-1.6,0.2c-0.5,0-1,0-1.4,0.1c-0.4,0.2-0.9,0-1.3,0.2c-0.6,0-1.3,0-1.9,0.1
			c-0.6,0.2-1.2-0.1-1.8,0.2c-0.6,0-1.3,0-1.9,0.1c-0.6,0.2-1.2-0.1-1.8,0.2c-0.6,0-1.3,0-1.9,0.1c-0.6,0.2-1.2-0.1-1.8,0.2
			c-0.6,0-1.3,0-1.9,0.1c-0.8,0.2-1.6-0.1-2.3,0.2c-0.7,0-1.4,0-2.2,0.1c-0.7,0.2-1.4-0.1-2.1,0.2c-1.3,0-2.6,0-3.9,0.1
			c-0.8,0.2-1.7-0.1-2.6,0.2c-1.3,0-2.6,0-3.9,0.1c-3.2,0.1-6.5,0.1-9.7,0c-1.3,0-2.6,0-3.9-0.1c-0.6-0.2-1.2,0-1.8-0.2
			c-4.3-0.3-8.5-1.1-12.6-2.2c-4.8-1.3-8.3-4.3-10.8-8.6c-1.9-3.3-3.4-6.8-4.6-10.4c-0.2-0.6,0-1.1-0.3-1.7
			c-0.2-0.5,0.1-1.1-0.2-1.6c0-0.7,0-1.4,0-2.1c0.2-0.5,0-1.1,0.2-1.6c0.6-6.3,2.6-12.2,4.9-18c3-7.9,6.8-15.6,10.6-23.1
			c6.7-13.2,14.2-25.9,21.5-38.8c3.4-6,6.8-12.1,9.8-18.4c2.5-5.2,4.7-10.5,6.6-16c1.8-5.1,3.3-10.4,4.4-15.7
			c0.8-3.4,1.3-6.9,1.5-10.4c0.3-0.7,0-1.4,0.2-2.1c0.1-2.1,0.1-4.2,0-6.3c-0.2-0.5,0-1.1-0.2-1.6c-0.6-5.7-1.9-11.1-6.5-15
			c-2-1.7-4.3-2.9-6.7-3.9c-5.2-2-10.7-3-16.1-4.3c-1.8-0.5-3.6-1.2-5.1-2.4c-1.6-1.3-1.9-3.9-0.9-6.2c0.6-1.5,1.7-2.7,2.2-4.3
			c1.9-2.6,4-4.9,6.3-7.1c0.4-0.4,0.9-0.8,1.6-0.5c3,2.1,6.4,2.5,10,2.5c116.1,0,232.2,0,348.2,0c1.5,0,3.1-0.3,4.6-0.2
			c0.4,1.1,0.1,2.2,0.2,3.3c0.1,0.6-0.1,1.2,0.1,1.9c0,1.6,0,3.3,0.1,4.9c0.2,1.6-0.1,3.2,0.2,4.8c0,1.5,0.1,3.1-0.1,4.6
			c-0.5,3.4-2.8,5.5-5.7,7c-2.9,1.6-6.1,2.2-9.3,2.7c-0.8,0.1-1.6,0.2-2.4,0.3c-0.5,0.2-1.1-0.1-1.6,0.2c-0.7,0-1.4,0-2.2,0.1
			c-3.2,0.2-6.4,0-9.6,0.1c-0.5,0-1-0.1-1.5,0.1c-2.6,0-5.3,0-7.9,0.1c-1.9,0.2-3.7-0.1-5.6,0.2c-2.1,0-4.1,0-6.2,0.1
			c-2,0.2-4.1-0.1-6.1,0.2c-1.2,0-2.4,0-3.7,0.1c-1.7,0.2-3.5,0-5.2,0.1c-0.5,0-0.9-0.1-1.4,0.1c-1.3,0-2.6,0-3.9,0.1
			c-1.8,0.2-3.6-0.1-5.3,0.2c-2,0-3.9,0-5.9,0.1c-1.4,0.2-2.7-0.1-4.1,0.2c-2.1-0.1-4.3,0-6.4,0.1c-1.7,0.2-3.3,0-5,0.1
			c-0.5,0-0.9-0.1-1.4,0.1c-1.6,0-3.1,0-4.7,0.1c-2.5,0.2-5,0-7.5,0.1c-0.5,0-0.9-0.1-1.4,0.1c-1.7,0-3.4,0-5.2,0.1
			c-1.8,0.2-3.7,0-5.5,0.1c-0.5,0-0.9-0.1-1.4,0.1c-1.7,0-3.3,0.1-5,0c-0.7,0-0.7,0.4-0.9,0.8c-2.4-0.7-4.8-0.4-7.2-0.3
			c-3.3,0.2-6.6,0.4-9.8,0.6c-3.9,0.3-7.8,0.5-11.7,0.8c-10,0.7-19.9,1.6-29.8,3.1c-6.7,0.9-13.4,2.2-19.9,4.1c-3,0.9-5.8,2-8.5,3.5
			c-3.1,1.7-6.2,3.6-8.4,6.5c-1,0.4-1.7,1.2-2.5,1.8c-5.7,4.6-8.9,10.9-11.7,17.4c-3.4,7.8-6.3,15.8-9,23.8
			c-0.2,0.5-0.6,1.1,0.1,1.6c0.1,0.1,0,0.2-0.1,0.3c-0.8-0.2-1,0.2-1.3,0.9c-3.1,9.2-5.9,18.5-8.6,27.9c-2.7,9.3-5.3,18.7-7.6,28.2
			c-2.2,9-4.5,18-6.2,27.1c-0.6,3.4-1.3,6.8-1.5,10.3c-0.1,1.3,0.2,2.6,0.3,4c0.2,0.6-0.1,1.2,0.2,1.8c0,2.6,0.1,5.2-0.4,7.8
			c-0.9,4.5-3.8,6.9-7.7,8.6c-4.6,2-9.6,2.5-14.5,3.2c-4.5,0.6-9,1.1-13.5,1.6C132.1,388.7,131.6,388.5,131.2,388.7z"/>
		<path class="st1" d="M443.3,171.3c-1.2,0.4-2.3,0.5-3.6,0.5c-45.5,0-91,0-136.6,0c-71.4,0-142.9,0-214.3,0c-3.2,0-6.2-0.6-8.7-2.7
			c-0.1-0.1-0.2-0.1-0.4-0.1c-0.5-0.1-0.8-0.5-1.2-0.9c-2-2.3-3-5-3-8.1c0-9.2,0-18.5,0-27.7c0-0.4-0.1-0.8,0.1-1.2l-0.1,0l0-0.1
			c0.4-0.5,0-1.1,0.2-1.7c0.5-5.3,4.3-9.5,10.1-10.3c0.4-0.1,0.9-0.1,1.4-0.1c14.5,0,28.9,0,43.4,0c0.5,0,0.9,0.1,1.4-0.1
			c0.7,0,1.3,0,2,0c23.4,0,46.8,0,70.2,0c26.9,0,53.7,0,80.6-0.1c0.8,0,1.7,0,2.5,0c0.4,0.2,0.9,0.1,1.4,0.1c44.9,0,89.7,0,134.6,0
			c0.4,0,0.9,0.1,1.3-0.1l0,0c0.1-0.1,0.3-0.2,0.4-0.2c2.1-0.3,4.2-0.1,6.3-0.1c0.7,0,1.4,0,2.1,0c1.4,0,1.5-0.1,1.5-1.5
			c0-1,0-2.1,0-3.1c0-0.5-0.1-1.1,0.4-1.5c0.5,1.3,0.1,2.6,0.2,3.9c0.1,0.9,0.1,1.7,0.1,2.6c1.5,0.3,3,0.1,4.5,0.1
			c0.5,0,0.9-0.1,1.4,0.1c4,0.8,7.1,2.8,8.9,6.6c0.4,0.8,0.7,1.6,0.8,2.4c0.1,0.6,0.4,0.9,0.8,1.2c-0.2,3.5-0.1,7-0.1,10.5
			c0,6.6,0,13.2,0,19.8c0,0.7,0.1,1.4-0.4,2c-0.6,2.9-1.8,5.5-4.1,7.4c-1.2,1-2.5,1.7-3.9,2.3C443.6,171.4,443.4,171.4,443.3,171.3z
			"/>
		<path class="st2" d="M193.6,267c-0.7,0-1-0.1-0.7-1c2.8-8,5.6-15.9,8.9-23.6c1.6-3.8,3.3-7.5,5.5-11c0.8-1.2,1.6-2.4,2.6-3.5
			c2-1.9,3.7-3.9,5.9-5.6c0.2-0.1,0.4-0.9,0.7-0.1c0.5,0.6,0.2,1.2,0,1.8c-0.8,4.2-1.1,8.4-0.4,12.5c0.8,5.2,2.5,10.1,6.5,13.9
			c1.9,1.8,4.2,3.2,6.7,4.1c4,1.5,8.2,2.2,12.4,2.6c3.6,0.3,7.2,0.7,10.8,0.9c5.8,0.4,11.6,0.5,17.5,0.1c5-0.3,9.9-0.9,14.6-2.4
			c3.7-1.1,7-2.8,9.7-5.7c1-1.1,1.7-2.5,2.3-3.8c2.6-5.7,4-11.7,3.5-18c-0.7-8.8-4.9-15.7-12.4-20.5c-1.1-0.7-2.3-1.4-3.5-2
			c-0.4-0.2-0.9-0.4-1-0.9c1-0.1,1.9-0.4,2.9-0.4c3.1-0.1,6.3-0.4,9.4-0.6c5-0.4,10.1-0.7,15.2-0.7c0.5,0,1.3-0.2,1.2,0.7
			c-0.1,1.6-0.2,3.3-0.3,4.9c-0.2,0.4,0,0.9-0.2,1.3c0,0.5,0,0.9-0.1,1.4c-0.2,0.4,0,0.9-0.2,1.4c0,0.5,0,0.9-0.1,1.4
			c-0.2,0.4,0,0.9-0.2,1.3c0,0.5-0.1,1.1-0.1,1.6c-0.2,0.5,0,1.1-0.2,1.6c0,0.5,0,1-0.1,1.4c-0.3,0.6,0,1.2-0.2,1.8
			c0,0.6,0,1.1-0.1,1.7c-0.2,0.6,0,1.2-0.2,1.8c0,0.6,0,1.3-0.1,1.9c-0.3,0.7,0,1.4-0.2,2.1c0,0.9,0,1.8-0.1,2.6
			c-0.3,1,0,2.1-0.2,3.1c-0.1,3.3-0.2,6.5,0,9.8c0.2,0.6-0.1,1.2,0.2,1.8c-0.2,3,1.5,5.3,3.1,7.6c1,1.4,2,2.7,3,4.1
			c2,2.6,0.2,3.8-2,4.5c-0.8,0.2-1.7,0.2-2.6,0.4c-0.4,0.2-0.9,0-1.3,0.2c-0.4,0-0.8,0-1.2,0.1c-0.8,0.2-1.6-0.1-2.3,0.2
			c-0.6,0-1.1,0-1.7,0.1c-0.8,0.2-1.7-0.1-2.6,0.2c-0.6,0-1.3,0-1.9,0.1c-1,0.2-2.1-0.1-3.1,0.2c-1.1,0-2.1,0-3.2,0.1
			c-0.9,0.2-1.7-0.1-2.6,0.2c-1.1,0-2.3,0-3.4,0.1c-1.3,0.2-2.6-0.1-3.8,0.2c-0.9,0-1.8,0-2.7,0.1c-1.4,0.2-2.7-0.1-4.1,0.2
			c-1.4,0-2.8,0-4.2,0.1c-0.9,0.2-1.9-0.1-2.9,0.2c-2,0-3.9,0-5.9,0.1c-0.9,0.2-1.9-0.1-2.9,0.2c-2,0-4.1,0-6.1,0.1
			c-1.4,0.2-2.9-0.1-4.3,0.2c-1.6,0-3.1,0-4.7,0.1c-1.9,0.2-3.9-0.1-5.9,0.2c-2,0-4.1,0-6.1,0.1c-1.9,0.2-3.9-0.1-5.8,0.2
			c-1.9,0-3.8,0-5.7,0.1c-1.8,0.2-3.6-0.1-5.4,0.2c-1.8,0-3.6,0-5.4,0.1c-2,0.2-4,0-6,0.1c-0.5,0-0.9-0.1-1.4,0.1
			c-2.1,0-4.3,0-6.4,0.1C197,267.2,195.3,267.2,193.6,267z"/>
		<path class="st3" d="M75.8,131c0.3,0.5,0.2,1,0.2,1.6c0,8.4,0.1,16.7-0.1,25.1c-0.1,4.3,0.8,8.1,3.8,11.3c-2.4,2-4.5,4.4-6.4,6.9
			c-0.2,0.3-0.4,0.6-0.8,0.6c-1.7-0.7-3-1.9-4.5-2.9c-2.5-1.7-4.9-3.6-7.4-5.3c-0.6-0.4-0.6-0.5-0.2-1c2.6-4.2,4.4-8.7,5.2-13.6
			c0-0.2,0-0.5,0-0.7c0.2-0.7,0.2-1.5,0-2.2c-0.2-2.3-0.9-4.4-2.6-6.1c-3-3.2-6.5-5.5-10.5-7c-2-0.8-4.1-1.5-6.4-1.8
			c-0.7-0.1-0.9-0.3-0.9-1c0.3-2.5,0.5-5,0.8-7.5c0.1-0.6,0.2-0.7,0.8-0.6c5.8,0.9,11.6,1.8,17.4,2.7
			C68.1,129.9,71.9,130.5,75.8,131z"/>
		<path class="st3" d="M451.7,161.5c0-10.4,0-20.7,0-31.1c0-0.4-0.3-1.1,0.5-1.2c3.3,0.8,5.3,2.9,6.4,6c0.1,0.3,0.2,0.7,0.3,1
			c0.2,0.5,0,1.1,0.2,1.6c-0.1,5-0.1,10,0,15c-0.2,0.5,0,1.1-0.2,1.6c-0.7,2.6-2.1,4.8-4.5,6.1C453.6,161.1,452.7,161.5,451.7,161.5
			z"/>
		<path class="st3" d="M435.5,112.2c0,1.9,0,3.7,0,5.6c0,0.7-0.2,1-0.9,1c-3.2,0-6.4,0-9.6-0.1c-0.2-2-0.1-4,0-6
			c0.1-2,0.8-3.7,2.5-4.7C430.9,106,434.9,108.1,435.5,112.2z"/>
		<path class="st4" d="M424.7,118.8c-0.4,0.3-0.9,0.2-1.3,0.2c-44.9,0-89.7,0-134.6,0c-0.4,0-0.9,0.1-1.3-0.1c0.6,0,1.2,0,1.7,0
			C334.4,118.8,379.6,118.8,424.7,118.8z"/>
		<path class="st4" d="M132.2,118.8c-0.5,0-1,0.1-1.5,0.1c-12.6,0-25.3,0-37.9,0c-2.2,0-4.5,0-6.7,0c0.3-0.3,0.7-0.2,1.1-0.2
			c14.8,0,29.6,0,44.5,0C131.8,118.8,132,118.8,132.2,118.8z"/>
		<path class="st4" d="M411.4,201.2c3.7-0.3,7.4-0.2,11.1-0.2c-0.2,0.2-0.5,0.2-0.8,0.2C418.2,201.2,414.8,201.2,411.4,201.2z"/>
		<path class="st4" d="M80.3,391.3c3.2,0,6.5,0,9.7,0c-0.5,0.4-1,0.2-1.6,0.2c-2.3,0-4.7,0-7,0C81.1,391.5,80.6,391.6,80.3,391.3z"
			/>
		<path class="st4" d="M329.9,203c2.9-0.3,5.9-0.2,8.8-0.2c-0.7,0.4-1.5,0.2-2.3,0.2C334.3,203,332.1,203,329.9,203z"/>
		<path class="st4" d="M205.2,267c2.4-0.3,4.9-0.1,7.3-0.2c-1.2,0.4-2.5,0.1-3.8,0.2C207.5,267,206.4,267,205.2,267z"/>
		<path class="st4" d="M317.9,203.2c2.3-0.3,4.6-0.2,6.8-0.2c-1.6,0.5-3.3,0.1-5,0.2C319.1,203.3,318.5,203.2,317.9,203.2z"/>
		<path class="st4" d="M375.4,202c2.2-0.3,4.4-0.2,6.6-0.2C379.8,202.3,377.6,201.9,375.4,202z"/>
		<path class="st4" d="M343.4,202.7c2.1-0.3,4.2-0.2,6.3-0.2C347.6,203,345.5,202.7,343.4,202.7z"/>
		<path class="st4" d="M424.9,112.8c0,2,0,4,0,6l-0.1,0c0,0-0.1,0-0.1,0C424.9,116.8,424.5,114.8,424.9,112.8z"/>
		<path class="st4" d="M441.7,119c-2-0.1-3.9,0.2-5.9-0.2C437.8,118.9,439.8,118.5,441.7,119z"/>
		<path class="st4" d="M385.6,201.7c2-0.3,4.1-0.2,6.1-0.2C389.7,202,387.7,201.7,385.6,201.7z"/>
		<path class="st4" d="M228.9,266.5c1.9-0.3,3.9-0.2,5.8-0.2C232.8,266.7,230.9,266.4,228.9,266.5z"/>
		<path class="st4" d="M240.9,266.2c1.9-0.3,3.9-0.2,5.9-0.2C244.8,266.5,242.8,266.2,240.9,266.2z"/>
		<path class="st4" d="M397.9,201.5c1.9-0.3,3.7-0.2,5.6-0.2C401.6,201.7,399.8,201.4,397.9,201.5z"/>
		<path class="st4" d="M443.3,171.3c0.2,0,0.3,0,0.5,0c-0.5,1.7-0.1,3.4-0.3,5.1C443.2,174.7,443.3,173,443.3,171.3z"/>
		<path class="st4" d="M193.6,267c1.7,0,3.4,0,5.2,0c-1.8,0.5-3.5,0.1-5.3,0.2C193.5,267.2,193.5,267.1,193.6,267z"/>
		<path class="st4" d="M217.9,266.7c1.8-0.3,3.6-0.2,5.4-0.2C221.5,267,219.7,266.7,217.9,266.7z"/>
		<path class="st4" d="M366.1,202.2c1.8-0.3,3.6-0.2,5.3-0.2C369.7,202.5,367.9,202.2,366.1,202.2z"/>
		<path class="st4" d="M443.7,186.1c-0.3-1.6-0.2-3.2-0.2-4.8C444,182.9,443.6,184.5,443.7,186.1z"/>
		<path class="st4" d="M251.4,266c1.4-0.3,2.9-0.2,4.3-0.2C254.3,266.2,252.8,265.9,251.4,266z"/>
		<path class="st4" d="M356.1,202.5c1.4-0.3,2.7-0.2,4.1-0.2C358.9,202.7,357.5,202.4,356.1,202.5z"/>
		<path class="st4" d="M277.7,265.2c1.3-0.3,2.7-0.2,4.1-0.2C280.4,265.5,279,265.2,277.7,265.2z"/>
		<path class="st4" d="M284.4,265c1.3-0.3,2.6-0.2,3.8-0.2C287,265.2,285.7,264.9,284.4,265z"/>
		<path class="st4" d="M309.8,235.5c0-1-0.1-2.1,0.2-3.1C309.9,233.4,310.2,234.5,309.8,235.5z"/>
		<path class="st4" d="M297.4,264.5c1-0.3,2-0.2,3.1-0.2C299.5,264.7,298.4,264.4,297.4,264.5z"/>
		<path class="st4" d="M270.6,265.5c0.9-0.3,1.9-0.2,2.9-0.2C272.6,265.7,271.6,265.4,270.6,265.5z"/>
		<path class="st4" d="M261.9,265.7c0.9-0.3,1.9-0.2,2.9-0.2C263.8,266,262.8,265.7,261.9,265.7z"/>
		<path class="st4" d="M291.7,264.7c0.8-0.2,1.7-0.2,2.6-0.2C293.4,265,292.5,264.7,291.7,264.7z"/>
		<path class="st4" d="M302.4,264.2c0.8-0.2,1.7-0.2,2.6-0.2C304.2,264.5,303.3,264.2,302.4,264.2z"/>
		<path class="st4" d="M93.9,391.2c0.8-0.3,1.7-0.2,2.6-0.2C95.7,391.5,94.8,391.2,93.9,391.2z"/>
		<path class="st4" d="M104.7,390.7c0.8-0.3,1.5-0.2,2.3-0.2C106.3,390.9,105.5,390.7,104.7,390.7z"/>
		<path class="st4" d="M306.7,264c0.8-0.3,1.5-0.2,2.3-0.2C308.2,264.2,307.4,263.9,306.7,264z"/>
		<path class="st4" d="M65.5,150.7c0.2,0.7,0.2,1.5,0,2.2C65.5,152.1,65.5,151.4,65.5,150.7z"/>
		<path class="st4" d="M105.7,220.5c0,0.7,0.1,1.4-0.2,2.1C105.6,221.9,105.3,221.2,105.7,220.5z"/>
		<path class="st4" d="M310,229.7c0-0.7-0.1-1.4,0.2-2.1C310.2,228.4,310.4,229.1,310,229.7z"/>
		<path class="st4" d="M100.4,391c0.7-0.2,1.4-0.2,2.1-0.2C101.8,391.2,101.1,390.9,100.4,391z"/>
		<path class="st4" d="M310,247.1c-0.3-0.6-0.2-1.2-0.2-1.8C310.2,245.8,309.9,246.5,310,247.1z"/>
		<path class="st4" d="M76,129.3c-0.1,0.6,0.2,1.2-0.2,1.7C75.9,130.4,75.6,129.8,76,129.3z"/>
		<path class="st4" d="M168.7,367.3c-0.3-0.6-0.2-1.2-0.2-1.8C169,366.1,168.7,366.7,168.7,367.3z"/>
		<path class="st4" d="M112.7,390.2c0.6-0.2,1.2-0.2,1.8-0.2C113.9,390.4,113.3,390.2,112.7,390.2z"/>
		<path class="st4" d="M116.4,390c0.6-0.2,1.2-0.2,1.8-0.2C117.7,390.2,117,389.9,116.4,390z"/>
		<path class="st4" d="M108.9,390.5c0.6-0.2,1.2-0.2,1.8-0.2C110.2,390.7,109.5,390.4,108.9,390.5z"/>
		<path class="st4" d="M310.5,222.2c0-0.6-0.1-1.2,0.2-1.8C310.7,221,310.9,221.7,310.5,222.2z"/>
		<path class="st4" d="M74.5,391c0.6,0,1.2-0.1,1.8,0.2C75.7,391.2,75.1,391.4,74.5,391z"/>
		<path class="st4" d="M310.3,225.7c0-0.6-0.1-1.2,0.2-1.8C310.4,224.5,310.7,225.2,310.3,225.7z"/>
		<path class="st4" d="M46.2,363c0,0.5,0,1.1-0.2,1.6C46.1,364.1,45.8,363.5,46.2,363z"/>
		<path class="st4" d="M46,366.7c0.2,0.5,0.2,1,0.2,1.6C45.9,367.7,46.1,367.2,46,366.7z"/>
		<path class="st4" d="M459,154.5c0-0.5,0-1.1,0.2-1.6C459.2,153.4,459.4,154,459,154.5z"/>
		<path class="st4" d="M123,389.5c0.5-0.2,1-0.2,1.6-0.2C124,389.7,123.5,389.4,123,389.5z"/>
		<path class="st4" d="M424.6,201c0.5-0.2,1.1-0.2,1.6-0.2C425.7,201.2,425.2,201,424.6,201z"/>
		<path class="st4" d="M125.7,389.2c0.5-0.2,1-0.2,1.6-0.2C126.8,389.4,126.2,389.2,125.7,389.2z"/>
		<path class="st4" d="M105.5,212.7c0.3,0.5,0.2,1.1,0.2,1.6C105.3,213.7,105.6,213.2,105.5,212.7z"/>
		<path class="st4" d="M459.2,137.9c-0.2-0.5-0.2-1.1-0.2-1.6C459.4,136.8,459.2,137.3,459.2,137.9z"/>
		<path class="st4" d="M310.8,219c0-0.5-0.1-1.1,0.2-1.6C310.9,217.9,311.2,218.5,310.8,219z"/>
		<path class="st4" d="M310.2,263.7c0.4-0.2,0.9-0.2,1.3-0.2C311.1,263.9,310.6,263.7,310.2,263.7z"/>
		<path class="st4" d="M311.3,213c0-0.5-0.1-0.9,0.2-1.3C311.5,212.1,311.6,212.6,311.3,213z"/>
		<path class="st4" d="M128.5,389c0.4-0.2,0.9-0.2,1.3-0.2C129.4,389.1,128.9,388.9,128.5,389z"/>
		<path class="st4" d="M120.2,389.7c0.4-0.2,0.9-0.2,1.3-0.2C121.1,389.9,120.6,389.7,120.2,389.7z"/>
		<path class="st4" d="M311.5,210.2c0-0.5-0.1-0.9,0.2-1.3C311.7,209.4,311.9,209.8,311.5,210.2z"/>
		<path class="st4" d="M311,215.7c0-0.5,0-0.9,0.2-1.3C311.2,214.9,311.4,215.3,311,215.7z"/>
		<path class="st4" d="M131.2,388.7c0.4-0.2,0.9-0.2,1.3-0.2C132.1,388.9,131.6,388.7,131.2,388.7z"/>
		<path class="st2" d="M58,358.5c0.4-3.3,1.6-6.4,2.6-9.4c1.3-3.9,3-7.8,4.7-11.5c2.1-4.4,4.1-8.7,6.4-13
			c3.8-7.2,7.7-14.3,11.9-21.3c3.7-6.2,7.2-12.5,10.8-18.8c3.2-5.7,6.3-11.4,9.1-17.3c3.5-7.1,6.6-14.4,9.1-22
			c1.6-4.7,2.4-9.5,3.6-14.3c1.1-4.6,3.3-8.5,7.8-10.7c2.5-1.2,5.2-1.8,7.9-1.9c5.3-0.2,10.5,0.6,15.7,0.9c3.4,0.2,6.8,0.4,10.3,0.2
			c6.3-0.3,12.6-0.6,19-0.3c2.7,0.1,5.5,0.4,8,1.7c0.4,0.4,0.3,0.9,0.3,1.4c-0.4,5.6-1.3,11.1-2.6,16.5
			c-2.8,11.8-6.9,23.2-11.3,34.5c-5.9,15.4-12.8,30.4-19,45.6c-2.8,6.9-5.4,14-7.3,21.3c-1.6,6-2.4,12.2-2.2,18.4
			c0.1,3.7-1.5,6.4-4.2,8.8c-3.6,3.1-7.8,4.7-12.3,6c-5.5,1.6-11,2.4-16.7,2.9c-4.9,0.4-9.8,0.6-14.7,0.4
			c-5.9-0.2-11.7-0.7-17.4-2.1c-4.6-1.1-8.3-3.5-11.7-6.6c-2.4-2.2-4.5-4.6-6.5-7.2C58.8,360,58.4,359.3,58,358.5z"/>
		<path class="st3" d="M58,358.5c1.2,1.1,2,2.5,3,3.8c3.9,4.6,8.1,8.7,13.8,11c2.9,1.1,5.9,1.5,8.9,2c3.2,0.5,6.4,0.8,9.6,0.9
			c3.9,0.2,7.8,0.3,11.7-0.1c1.5-0.2,3-0.1,4.5-0.2c3-0.2,5.9-0.6,8.9-1.1c4-0.6,7.9-1.7,11.7-3c3.4-1.2,6.6-2.9,9.2-5.4
			c2-1.9,3.4-4.3,3.3-7.3c-0.4-10.4,2.2-20.3,5.6-30c2.4-6.7,5.1-13.3,7.9-19.9c3-7,6-13.9,8.9-20.9c5-11.9,9.7-23.9,13.7-36.2
			c2.5-7.7,4.5-15.4,5.7-23.4c0.4-2.6,0.5-5.3,0.7-7.9c3.4,1.3,5.2,3.9,6,7.3c1.2,5-0.1,9.8-1.7,14.5c-3.1,8.6-7.4,16.7-10.7,25.2
			c-4.6,11.5-9.3,22.9-13.6,34.5c-4.1,11.3-8.1,22.7-10.8,34.4c-0.9,4-1.7,8-1.6,12c0,2.5,0.6,4.9,0.8,7.4c0.2,3.7-0.2,7.2-1.6,10.6
			c-2.6,6.4-7.7,9.8-14.3,11.1c-5.1,1-10.2,1.6-15.4,2.1c-3.6,0.3-7.2,0.6-10.8,0.7c-5.2,0.3-10.5,0.6-15.7,0.4
			c-5.5-0.2-10.9-0.3-16.4-0.9c-4-0.4-7.9-0.9-11.7-2c-5.6-1.7-8.4-5.6-9.5-11.1C57.4,364.1,57.3,361.3,58,358.5z"/>
		<path class="st2" d="M310.6,178.5c40,0,79.9,0,119.9,0c2,0,2.9,0.7,3.6,2.1c0.8,1.8-1.1,4.3-2.9,4.4c-0.3,0-0.7,0-1,0
			c-79.6,0-159.2,0-238.8,0c-1.4,0-2.5-0.3-3.4-1.5c-0.8-1.1-0.9-2.3-0.2-3.5c0.6-1.1,1.6-1.6,2.9-1.6
			C230.6,178.5,270.6,178.5,310.6,178.5z"/>
		<path class="st2" d="M253.3,208c-1,3.2-1.7,6.3-1.8,9.7c-0.2,6.4,2.1,12.1,5.3,17.5c1.4,2.3,2.9,4.5,4.3,6.7
			c2.1,3.5,1.3,5.2-2.7,6c-2.4,0.4-4.5-0.2-6.6-1.2c-2.6-1.2-4.9-3-7-4.9c-8.3-7.4-14.8-16.2-20-25.9c1.5-1.3,3.3-1.8,5.1-2.5
			c5.5-2.1,11.2-3.3,16.9-4.3C248.9,208.6,251.1,208,253.3,208z"/>
		<path class="st2" d="M137.3,208c0,3.5-2.5,6-5.9,6c-3.4,0-6-2.5-6.1-6.1c-0.1-2.9,2.6-5.9,6-5.9
			C134.3,201.9,137.7,204.7,137.3,208z"/>
		<path class="st5" d="M207.2,119.1c26.2,0,52.1,0,78.3,0c-4.8,1.4-5.9,5-6.5,9c-0.4,2.6-0.4,5.3-0.2,8c0.3,2.9,0.2,5.8,0.2,8.7
			c-0.1,2.4-0.5,4.7-2,6.7c-1.3,1.8-3.1,2.8-5.2,2.8c-16.4,0-32.8,0-49.2,0c-3.1,0-5.8-2.3-7.1-5.9c-1-2.9-1.3-5.9-1.5-8.9
			c-0.1-2.9,0-5.8-0.1-8.7c-0.1-2.4-0.4-4.7-1.3-6.9C211.8,121.3,209.9,119.9,207.2,119.1z"/>
		<path class="st6" d="M366.2,131.5c-24.4,0-48.9,0-73.3,0c-1,0-1.9-0.2-2.8-0.3c-1.4-0.3-2.4-2-2.3-3.9c0.1-1.6,1.2-3.1,2.5-3.3
			c1-0.2,2-0.3,3.1-0.3c48.8,0,97.5,0,146.3,0c1.4,0,2.8,0.1,3.8,1.2c1.1,1.3,1.4,2.7,0.7,4.3c-0.7,1.6-2.1,2.1-3.6,2.2
			c-0.4,0-0.7,0-1.1,0C415,131.5,390.6,131.5,366.2,131.5z"/>
		<path class="st2" d="M109.7,145.5c0,5.9,0,11.7,0,17.6c0,0.8-0.1,1.5-0.3,2.2c-0.3,1.6-1.6,2.7-3,2.7c-1.4,0-2.7-1.2-3-2.9
			c-0.1-0.9-0.3-1.9-0.3-2.8c0-11.3,0-22.6,0-34c0-1.3,0.1-2.7,0.8-3.8c0.6-1,1.5-1.6,2.7-1.5c1.3,0.1,2,1,2.5,2.2
			c0.3,0.9,0.5,1.7,0.5,2.7C109.7,133.8,109.7,139.6,109.7,145.5z"/>
		<path class="st2" d="M151.5,145.6c0,5.7,0,11.4,0,17.1c0,0.8-0.1,1.7-0.2,2.5c-0.3,1.7-1.5,2.9-3,2.9c-1.4,0-2.7-1.1-3-2.8
			c-0.2-0.9-0.2-1.7-0.3-2.6c0-11.4,0-22.8,0-34.2c0-1.4,0-2.7,0.9-3.9c0.7-1,1.5-1.6,2.7-1.4c1.3,0.2,2,1,2.4,2.1
			c0.3,0.8,0.5,1.7,0.5,2.7C151.5,133.7,151.5,139.7,151.5,145.6z"/>
		<path class="st2" d="M93,145.4c0-6.1,0-12.2,0-18.4c0-1.4,0.5-2.5,1.5-3.4c1-0.9,2.3-0.8,3.3,0.1c1,0.9,1.5,2,1.5,3.3
			c0,12.4,0,24.7,0,37.1c0,0.9-0.3,1.8-0.8,2.6c-0.7,1-1.7,1.6-3,1.3c-1.3-0.3-2.4-1.8-2.4-3.5c-0.1-2,0-4.1,0-6.1
			C93,154,93,149.7,93,145.4z"/>
		<path class="st2" d="M134.7,145.5c0-6.1,0-12.2,0-18.4c0-1.4,0.4-2.5,1.4-3.4c1.1-1,2.4-0.9,3.5,0.1c0.9,0.9,1.4,2,1.4,3.3
			c0,12.3,0,24.6,0,37c0,1.2-0.4,2.4-1.3,3.3c-1.3,1.2-3.2,1-4.2-0.5c-0.5-0.9-0.8-1.8-0.8-2.8C134.8,157.7,134.7,151.6,134.7,145.5
			z"/>
		<path class="st2" d="M124.3,145.5c0-6.1,0-12.2,0-18.2c0-1.4,0.4-2.6,1.4-3.6c1-0.9,2.4-0.9,3.4,0c1,0.9,1.4,2,1.4,3.3
			c0,12.3,0,24.6,0,37c0,1.3-0.4,2.4-1.4,3.3c-1.2,1.1-2.9,0.9-3.9-0.4c-0.7-0.9-1-1.9-0.9-3C124.3,157.8,124.3,151.6,124.3,145.5z"
			/>
		<path class="st2" d="M161.8,145.6c0,6.1,0,12.2,0,18.2c0,0.9-0.1,1.7-0.6,2.5c-0.5,1-1.3,1.6-2.5,1.6c-1.2,0.1-1.9-0.6-2.5-1.5
			c-0.5-0.9-0.7-1.8-0.7-2.9c0-12.1,0-24.1,0-36.2c0-0.8,0.2-1.7,0.5-2.4c0.5-1.2,1.4-2,2.8-2c1.3,0,2,1,2.6,2.1
			c0.4,0.7,0.4,1.5,0.4,2.3C161.8,133.5,161.8,139.5,161.8,145.6z"/>
		<path class="st2" d="M120,145.6c0,6.2,0,12.4,0,18.6c0,1.2-0.4,2.2-1.2,3.1c-1.3,1.3-3.2,1-4.3-0.6c-0.6-0.9-0.8-1.9-0.8-3
			c0-12.1,0-24.1,0-36.2c0-1,0.2-2,0.7-2.9c0.6-1,1.4-1.7,2.6-1.6c1.3,0.1,2,1,2.5,2c0.4,0.7,0.4,1.5,0.4,2.3
			C120,133.4,120,139.5,120,145.6C120,145.6,120,145.6,120,145.6z"/>
		<path class="st6" d="M188.2,123.8c5.1,0,10.2,0,15.4,0c1.4,0,1.9,0.4,2,1.8c0.1,1.5,0.1,2.9,0,4.4c0,1-0.5,1.6-1.6,1.6
			c-10.5,0-20.9,0-31.4,0c-0.9,0-1.3-0.3-1.5-1.2c-0.3-1.7-0.3-3.5,0-5.2c0.2-1,0.6-1.3,1.6-1.3C177.7,123.8,183,123.8,188.2,123.8z
			"/>
	</g>
</g>
</svg>
