<?xml version="1.0" encoding="utf-8"?>
<!-- Generator: Adobe Illustrator 25.3.1, SVG Export Plug-In . SVG Version: 6.00 Build 0)  -->
<svg version="1.1" id="Layer_1" xmlns="http://www.w3.org/2000/svg" xmlns:xlink="http://www.w3.org/1999/xlink" x="0px" y="0px"
	 viewBox="0 0 500 500" style="enable-background:new 0 0 500 500;" xml:space="preserve">
<style type="text/css">
	.st0{fill:#9A2D02;}
	.st1{fill:#701702;}
	.st2{fill:#9A3702;}
	.st3{fill:#3E0401;}
	.st4{fill:#401502;}
	.st5{fill:#3F0502;}
	.st6{fill:#9A6E40;}
	.st7{fill:#9A6E41;}
	.st8{fill:#9A6F41;}
	.st9{fill:#9A3802;}
	.st10{fill:#9A6E3F;}
	.st11{fill:#9B3802;}
	.st12{fill:#9B3803;}
	.st13{fill:#9A3803;}
	.st14{fill:#FEAC17;}
	.st15{fill:#FEEDD0;}
	.st16{fill:#FE7D00;}
	.st17{fill:#FED5AA;}
	.st18{fill:#FE7E00;}
	.st19{fill:#47150D;}
	.st20{fill:#3D0400;}
	.st21{fill:#FEFEFE;}
	.st22{fill:#761A02;}
	.st23{fill:#996C3F;}
	.st24{fill:#0547DE;}
	.st25{fill:#010000;}
	.st26{fill:#C53B18;}
	.st27{fill:#D1A48E;}
	.st28{fill:#470800;}
	.st29{fill:#882502;}
	.st30{fill:#3F1401;}
	.st31{fill:#AC4113;}
	.st32{fill:#EA7E03;}
	.st33{fill:#FEDDBB;}
	.st34{fill:#FE9E00;}
	.st35{fill:#FEDCBA;}
	.st36{fill:#EA7F03;}
	.st37{fill:#600A08;}
	.st38{fill:#C23916;}
	.st39{fill:#5A0906;}
	.st40{fill:#5E2017;}
	.st41{fill:#C33618;}
	.st42{fill:#FD7D00;}
	.st43{fill:#9B3703;}
	.st44{fill:#710419;}
	.st45{fill:#83041C;}
	.st46{fill:#F7D5C6;}
	.st47{fill:#D0A38E;}
	.st48{fill:#FCFDFD;}
	.st49{fill:#FAFBFB;}
	.st50{fill:#CD5A32;}
	.st51{fill:#FEEACC;}
	.st52{fill:#034BFA;}
	.st53{fill:#0540B4;}
	.st54{fill:#F84186;}
	.st55{fill:#F1237B;}
	.st56{fill:#8B3830;}
	.st57{fill:#FDFDFD;}
	.st58{fill:#F9F9FA;}
	.st59{fill:#F399BF;}
	.st60{fill:#F398BF;}
</style>
<g>
	<g>
		<path class="st0" d="M65.8,143.4c-6.7-6.2-9.7-14.2-11-23.1c-1-6.6-0.2-12.9,3.2-18.7c4.3-7.6,11-12.3,19.4-14.3
			c8.7-2.1,17.1-0.9,25,3.6c1.9,1.1,3.5,2.7,5.1,4.1c0.6,0.3,1,0,1.5-0.2c4.5-2,9.1-3.6,14-4.2c1-0.1,2,0,3-0.3
			c-4.2-1.6-8.5-1.7-12.9-1.9c-0.6,0-1.2,0-1.8,0c-0.5,0-1.1,0.2-1.4-0.3c-0.3-0.6,0.2-1,0.6-1.4c2.1-2.5,4.8-4.1,7.7-5.3
			c7-2.8,14.4-3.7,21.9-3.2c0.5,0,1.1,0,1.7,0.1c-3-1.6-5.9-3.2-8.8-4.9c-0.4-0.2-1-0.4-0.9-0.9c0-0.6,0.7-0.6,1.1-0.7
			c3.3-0.7,6.6-1.1,9.9-1.3c6.9-0.3,13.7,0.3,20.2,2.7c7.1,2.6,13.4,6.5,18.3,12.4c0.8,1,1.3,1,2.3,0.3c1.4-1.1,2.9-1.9,4.6-2.5
			c3.6-1.2,7.1-2.5,10.9-3.1c6.6-1.1,13.1-0.9,19.3,1.7c2,0.8,3.9,2,5.5,3.6c0.4,0.4,0.9,0.9,0.6,1.5c-0.3,0.6-1,0.4-1.6,0.4
			c-2.5-0.1-4.9,0.2-7.1,1.7c-1,0.7-1.7,1.6-2.2,2.7c-0.5,1-0.3,1.4,0.9,1.5c2.3,0.1,4.7,0,7-0.4c3.5-0.5,7-0.7,10.5-0.1
			c4.2,0.6,7.6,2.8,10.4,5.8c0.4,0.4,0.9,0.8,0.7,1.5c-0.3,0.7-1,0.7-1.6,0.7c-4.9,0-9.7,0-14.7,0.1c10.7,4.8,15.7,13.5,17.1,24.7
			c-0.1,0.9-0.9,1.2-1.5,1.6c-1.6,1.2-3.3,2.2-4.3,4c-1,1.2-2.1,2.3-3.3,3.4c-0.5,0.2-1,0.4-1,1c-0.1,0.2-0.2,0.4-0.4,0.6
			c-1,0.5-1.5,1.3-1.8,2.3c-0.1,0.3-0.4,0.5-0.6,0.7c-1.2,0.5-1.9,1.4-2.5,2.5c-0.1,0.1-0.2,0.2-0.3,0.2c-1,0.2-1.5,1.1-2.3,1.7
			c-1.7,1.2-3.7,1.8-5.8,2c-0.6-0.2-0.9-0.9-1.3-1.3c-2.5-3-5.1-5.9-8-7.7c4.7,3.3,8.7,8,11.7,13.5c3.3,5.9,4.6,12.3,5.6,18.9
			c1.3,9.2,4.5,17.9,9.5,25.7c2.5,3.9,5.4,7.5,8.6,10.9c1.9,2,3.8,3.9,5,6.5c0,1,0.7,1.6,1.3,2.2c1.1,1.5,1.9,3.2,2.5,5
			c0.6,3.2,1.2,6.4,1.5,9.7c0.7,7.4-0.3,14.5-3.5,21.3c-2.7,5.6-6.7,10.1-11.4,14c-3.1,2.6-6.5,5-9.8,7.4c-0.2,0.2-0.4,0.3-0.7,0.4
			c-0.3,0.2-0.7,0.3-1,0c-0.3-0.3-0.3-0.6-0.2-1c0.2-0.9,0.6-1.7,1-2.5c2.5-4.3,2-8.7,0.9-13.4c-0.7,1.2-1.2,2.2-1.8,3.2
			c-2.1,3.5-5.1,6-8.7,7.8c-3.1,1.5-6.1,3-9,4.8c-0.5,0.3-1,0.7-1.6,0.3c-0.7-0.4-0.4-1.1-0.3-1.7c0.5-2.4,0.2-4.7,0.2-7.4
			c-1.8,1.2-3.1,2.6-4.6,3.9c-4.6,4-9,8.1-14.2,11.4c-0.7,0.4-1.3,0.8-2,1.1c-0.4,0.2-0.9,0.5-1.4,0.1c-0.6-0.4-0.4-1-0.3-1.5
			c0.1-0.4,0.2-0.9,0.4-1.3c1.7-5.9,2.6-11.9,2.3-18.3c-1.7,3.6-3.4,7-5.5,10.2c-4.3,6.4-9.9,11.4-16.3,15.5c-0.5,0.3-1.1,1-1.5-0.1
			c-0.1-0.5,0.4-0.8,0.7-1.1c1.1-1.2,2.4-2.3,3.4-3.5c1.5-1.5,2.8-3.1,4.1-4.7c-1.4,1.6-2.7,3.2-4.1,4.7c-3.8,4.2-7.9,8-12.8,11
			c-0.4,0.2-0.8,0.5-1.3,0.3c-0.6-0.5-0.5-1.1-0.5-1.7c0-3.8,0-7.6,0-11.3c0-0.5,0.1-1-0.1-1.4c-0.2-0.1-0.3-0.1-0.4,0
			c-5.3,4.6-11.5,7.7-17.9,10.4c-4.2,1.9-8.5,3.7-12,6.9c-0.4,0.3-0.8,0.7-1.3,0.3c-0.5-0.3-0.3-0.8-0.2-1.2
			c0.5-2.4,0.7-4.8,0.8-7.2c0-1.8-0.2-1.9-1.8-1c-2.7,1.5-4.8,3.8-6.7,6.1c-3.1,3.8-5.6,8.1-8.5,12c-0.5,0.7-1,1.5-1.6,2.2
			c-0.6,0.6-1.1,0.6-1.7,0.1c-1-0.9-1.5-2-2.1-3.1c-3.9-8.2-7.2-16.6-9.5-25.4c-2-7.4-3.6-14.9-5.2-22.5c-0.6-3-1-6-1.3-9.3
			c-2.8,5.3-5.6,10.3-8.3,15.4c-0.5,0.6-0.9,1.7-1.8,1.5c-0.8-0.1-0.8-1.3-1.2-1.9c-0.2-0.4-0.3-0.8-0.3-1.2
			c-2.4-12.7-3.7-25.7-5.6-38.5c-0.1-0.6-0.1-1.2-0.1-1.7c0-0.5,0.2-0.9,0.4-1.3c0.5-1.2,1.2-2.3,1.7-3.5c-0.8,1.7-1.7,3.3-2.3,5.1
			c-0.2,0.7-0.4,1.5-0.9,2.1c-0.9,1-1.3,2.2-1.8,3.4c-1.2,3-2.1,6.1-3.4,9.1c-0.2,0.5-0.3,1.3-1.2,1.1c-0.5-1.1-1-2.2-0.7-3.5
			c0.5-0.8-0.1-1.6-0.1-2.3c0-1.6-0.1-3.2-0.6-4.8c-0.5-1.5-0.2-3.1-0.2-4.7c-0.1-3.7-0.9-7.4-0.7-11.1c0.1-0.9,0.1-1.9,0.4-2.8
			c0.6-2.7,0.5-5.4,0.5-8.1c0-1.5,0.5-2.9,0.7-4.3c0.7-6.4,2-12.7,3.9-18.8c0.2-0.5,0.3-1,0.3-1.6c0.3-1.4,1.3-2.5,2.1-3.6
			c4.1-5.7,9.1-10.4,15.4-13.6c1.7-0.9,3.5-1.8,4.6-2c-3.2,0.8-6.8,2.8-10.1,5.3c-4.1,3.1-7.7,6.8-10.5,11.1
			c-0.4,0.6-0.7,1.5-1.7,1.6c-0.8-0.5-0.7-1.3-0.8-2c-1-7.2-0.6-14.3,0.9-21.4c0.2-0.9,0.6-1.8-0.2-2.5
			C66,143.8,66,143.6,65.8,143.4z"/>
		<path class="st1" d="M243.8,125.8c-1.5-11.6-6.7-20.5-18.1-25.1c0.6-0.5,1-0.3,1.4-0.3c4.9,0,9.8,0,14.7,0c0.5,0,1.1,0.2,1.3-0.4
			c0.2-0.6-0.4-0.8-0.6-1.1c-3-3.3-6.6-5.5-11-5.9c-3.2-0.4-6.5-0.3-9.8,0.3c-2.4,0.4-4.8,0.5-7.2,0.4c-1.4-0.1-1.6-0.5-1-1.8
			c1.3-3,3.8-4.2,6.8-4.6c1.1-0.1,2.3-0.5,3.4-0.1c0.3,0.1,0.8,0.2,0.9-0.3c0.2-0.4-0.2-0.7-0.4-0.9c-2.6-2.5-5.7-4-9.1-4.9
			c-3-0.8-6-1.2-9-1.2c-5.6,0.2-11.1,1.3-16.3,3.4c-0.4,0.2-0.7,0.3-1.2,0.3c-0.1-0.6,0.5-0.7,0.8-0.9c9.9-4.6,20.1-5.5,30.6-2.7
			c5.5,1.5,10.6,3.9,15,7.6c0.6,0.5,1.5,1,1.2,1.8c-0.2,0.7-1.3,0.4-2,0.5c-1.7,0.2-3.5,0.2-5.4,0.6c2.4,0.4,4.6,0.8,6.7,1.4
			c7.9,2.2,14,6.9,19.3,12.9c0.3,0.3,0.8,0.7,0.5,1.1c-0.3,0.5-0.8,0.2-1.2,0.2c-4-0.6-8.1-0.8-11.9-0.8c4.5,2,8.9,4.6,12.3,8.8
			c1.3,1.7,2.4,3.5,3.2,5.5c0.2,0.5,0.3,1,0.8,1.3c0.1,0.1,0.2,0.2,0.2,0.3c0,0.6-0.5,0.6-0.9,0.6c-4.4,0.2-8.5,1.7-12.3,3.7
			C244.9,125.8,244.4,126.2,243.8,125.8z"/>
		<path class="st2" d="M242.8,271.7c0.4,0.5,1,0.3,1.5,0.3c9.3,0,18.6,0.2,27.9,0.6c9.1,0.3,18.1,0.9,27.2,1.6c0.6,0,1.1,0,1.7-0.3
			c9-5.3,18.7-8.3,29.1-9.3c12.6-1.1,24.5,1,35.5,7.5c3.3,1.9,6.3,4.2,9,6.8c0.4,0.4,0.9,0.7,1.5,0.6c7-0.6,13.8-2.2,19.7-6.2
			c8.1-5.5,12.9-13.3,14.6-22.9c1.3-7.3,0.6-14.6-0.9-21.8c-2.9-14.2-8.6-27.3-15.2-40.1c-4.7-9.2-7.1-19-6.5-29.4
			c0.2-4,1.2-7.8,3.1-11.4c0-0.3,0.1-0.6,0.3-0.9c0.9-1.3,1.9-2.3,3.3-3.1c0.3-0.2,0.6-0.3,0.9-0.4c1.6-0.5,3.2-0.7,4.8,0.1
			c0.3,0.1,0.5,0.3,0.8,0.4c2.6,1.6,3.2,4,2.8,6.8c-0.1,0.4-0.2,0.7-0.5,1c-3.9,9.5-3.1,19-0.3,28.5c2.5,8.4,6.3,16.3,10,24.2
			c4.2,9,7.9,18.3,10.1,28.1c2.1,9.3,2.9,18.6,0.7,27.9c-3,12.6-9.3,23.1-21,29.6c-4.6,2.5-9.6,3.9-14.8,4.7
			c-0.9,0.1-1.1,0.2-0.7,1.2c4.8,10.1,6.2,20.8,5.5,31.9c-0.6,9.1-2.6,17.8-5.1,26.5c-2,7.2-3.1,14.5-2,22
			c0.9,6.8,3.4,13.1,6.3,19.2c2.3,4.8,5,9.4,6.7,14.5c3.6,10.7,4.5,21.5,1.6,32.5c-0.3,1.1-0.6,2.2-1.1,3.3c-0.3,0.2-0.6,0.2-0.9,0
			c-0.2-0.6,0-1.1,0.2-1.6c3.2-10.4,2.8-20.7-0.1-31.1c-1.5-5.5-4.3-10.5-6.8-15.5c-2.4-4.8-4.4-9.6-5.9-14.8
			c-1.3-4.6-2-9.3-1.8-14.1c0.3-6,1.6-11.8,3.3-17.6c2-7.1,3.5-14.2,4.2-21.6c0.8-8.1,0.2-16.1-1.8-23.9c-0.1-0.4-0.3-0.9-0.4-1.3
			c-2.7-9.6-8-17.5-15.2-24.3c-8.3-7.8-18.2-12.3-29.4-13.8c-13.1-1.7-25.6,0.6-37.6,6c-1.1,0.5-2.1,1-3.1,1.7
			c-2.1,1.6-4.5,1.8-7,1.6c-4-0.4-8-0.6-12-0.8c-6.5-0.4-12.9-0.6-19.4-0.9c-7.3-0.3-14.6-0.1-21.8-0.2c-0.7,0-1.4,0.1-2-0.2
			C241.4,272.1,242,271.9,242.8,271.7z"/>
		<path class="st3" d="M242.8,271.7c-0.4,0.4-0.8,0.8-1.2,1.2c0,0.6-0.4,0.9-0.8,1.2c-6.6,5.4-14.1,9.1-22.4,11.1
			c-5.3,1.3-10.7,2.1-16.2,1.9c-0.6,0-1.3,0-1.9,0.2c-7.4,2.4-15.1,3.4-22.8,4.3c-6.9,0.8-13.8,1.3-20.7,1.1c-1.2,0-2.3,0.2-3.4,0.7
			c-6.4,2.4-12.8,4.7-19.5,6.2c-0.7,0.2-1.7,0.7-2.1,0c-0.4-0.6,0.6-1.2,1-1.8c0.2-0.3,0.5-0.5,0.6-0.6c-2.6,1.5-5.4,2.9-8.3,4.2
			c-0.4,0.1-0.8,0.3-1.2,0.3c-2.3,0.9-4.6,1.7-6.9,2.6c-0.6,0.2-1.2,0.3-2,0.6c0.5-1.5,1.3-2.7,1.7-4.5c-1.1,1.2-2,2.2-2.8,3.2
			c-2.5,2.7-5,5.3-8.2,7.2c-2.1,1.3-2.1,1.3-2.8-1c-2.4-7.3-4.9-14.6-8.2-21.6c-1.9-4-4.3-7.9-5.7-12.1c-2.1-6-3.6-12.1-4.2-18.5
			c0-0.2-0.1-0.3-0.1-0.6c-2.7,1.3-5.2,2.8-7,5.4c-4.3-9.7-7.3-19.6-9.2-30.2c-1.5,2.1-3.2,3.6-5.2,4.9c-0.8-3.7-1.5-7.4-2.2-11
			c-1.6-7.8-2.6-15.6-2.5-23.5c0.1-7.7,1.1-15.2,3.5-22.5c0.3-0.9,0.1-1.8,0-2.7c-1.8-11.6-0.2-22.8,3.9-33.7
			c0.1,0.1,0.2,0.2,0.3,0.2c0.5,0.8,0.1,1.5-0.1,2.2c-1.6,4.9-2.8,9.8-3.4,14.9c-0.5,4.6-0.6,9.2,0,13.8c0.1,0.6,0.1,1.2,0.2,2
			c0.7-1.9,1.6-3.5,2.5-5.1c0.3-0.6,0.7-1.3,1.3-1.6c4.1-6.4,9.2-11.8,15.9-15.5c1.5-0.8,3.1-1.5,4.6-2.2c0.9-0.4,1.8-0.4,3-0.3
			c-10.4,3.4-17.8,10-23.2,19.1c-0.4,1.2-0.9,2.3-1.5,3.4c-2.1,3.8-3.3,8-4.2,12.2c-1.5,6.8-2,13.6-1.7,20.5
			c0.3,6.4,1.3,12.8,2.5,19.1c0.3,1.3,0.6,2.6,0.5,4c0.2,1.1,0.4,2.1,0.6,3.2c0.1,0.1,0.1,0.1,0.2,0.2c0.8,1.6,0.8,1.6,2.2,0.3
			c1.4-1.4,2.4-2.9,2.2-5.2c-0.2-3.1,0.2-6.3,1.6-9.1c1-2.5,2.1-5.1,3.6-7.4c-0.5,1.7-1.6,3.2-2,5c-0.8,3.7-2,7.3-1.8,11.1
			c0.1,3.4,0.9,6.7,1.6,10c1.2,5.9,3.2,11.5,5.1,17.2c0.3,0.8,0.5,1.7,0.8,2.5c0,1,0.8,1.8,1,2.9c0.6-0.6,1.2-1.1,1.7-1.6
			c1.4-1.7,3.3-2.6,5.3-3.3c1-0.4,1.3,0.4,1.3,1.2c0.1,4.8,1.3,9.3,2.5,13.9c1.4,4.9,3.2,9.5,5.7,13.9c2.9,5.1,4.7,10.6,6.8,16
			c1,2.6,1.9,5.3,2.7,7.9c0.5,1.6,0.7,1.6,2.1,0.6c2.9-2,5.4-4.5,7.7-7.1c1.1-1.2,2.2-2.5,3.2-3.8c0.3-0.4,0.6-0.8,1.1-0.6
			c0.6,0.2,0.3,0.9,0.2,1.3c-0.1,1-0.4,1.9-0.8,2.9c-0.1,0.3-0.4,0.6-0.1,0.9c0.2,0.2,0.5,0,0.8-0.1c2.2-0.8,4.3-1.6,6.4-2.6
			c3.8-1.9,7.7-3.7,11.4-5.9c0.2-0.1,0.3-0.2,0.5-0.3c0.3-0.1,0.6-0.3,0.9,0c0.2,0.3,0.1,0.6-0.1,0.9c-0.6,1.1-1.6,2-2.4,3.1
			c3.9-0.8,7.6-2,11.3-3.3c3.9-1.4,7.8-2.6,11.4-4.5c0.2-0.1,0.4,0,0.7-0.1c2.2-1.1,4.2-2.6,6.1-4.1c2.3-1.9,4.6-3.9,6.7-6.1
			c0.3-0.4,0.6-0.7,1-1.1c0.3-0.1,0.4,0,0.3,0.3c-1.4,1.4-2.7,2.9-4.1,4.3c-0.8,1.7-2.4,2.5-3.7,3.7c-2,1.8-4.3,3.3-6.7,4.6
			c5,0,10-0.4,14.9-0.8c7-0.6,14-1.5,21-3c6.4-1.3,12.2-3.8,16.8-8.5c0.5-0.5,1.1-0.9,1.7-1.3c0.2-0.1,0.4-0.2,0.6,0
			c0.2,0.2,0.1,0.4,0,0.6c-0.2,0.4-0.5,0.7-0.9,1c-2.4,2.3-5,4.5-8,6.2c11.6-0.4,22.3-3.3,32-9.6c9.3-6.1,15.6-14.6,19.4-25.1
			c1.4-4,2.5-8,2.9-12.2c0.5-5.3-0.3-10.4-1.8-15.4c-0.4-1.4-0.9-2.8-1.3-4.2c-0.7-1.7-1.4-3.3-2.4-4.9c-0.4-0.7-1-1.4-1.3-2.2
			c-1.2-2.4-3-4.4-4.9-6.3c-9-9.4-14.9-20.3-17.6-33c-0.9-4.3-1.1-8.7-2.3-12.9c-1.7-6.2-4.5-11.9-8.7-16.8
			c-2.3-2.7-4.9-5.1-7.9-7.2c2.1,0.1,6.4,4,10.7,9.6c0.7,0.2,1,0.8,1.3,1.3c3.8,5.7,6,12.1,6.9,18.9c0.4,2.9,0.9,5.8,1.5,8.6
			c0.1,0.4,0.1,0.8,0.3,1.2c1.1,4.5,2.7,8.8,4.8,13c0.2,0.4,0.3,0.9,0.6,1.2c3.3,6,7.5,11.2,12.1,16.3c6.1,6.6,9.6,14.6,11.1,23.5
			c0.8,4.9,0.6,9.8-0.4,14.6c-0.1,0.7-0.3,1.3,0,2c1.6,4,1.5,8.1,0.6,12.2c0,0.2-0.2,0.4,0,0.7c2.7-2.8,5.2-5.8,7.5-9
			c3.1-4.2,5.8-8.7,8.1-13.4c1.7-3.5,2.2-7.3,1.8-11.2c-0.4-4.1-1.4-8-2.9-11.7c-1.1-2.5-2.5-4.8-4.4-6.8c-3-3.3-6.3-6.3-9.6-9.3
			c-0.7-0.6-1.8-1.1-1.7-2.3c0.3-0.2,0.7-0.2,1.1-0.1c4.4,3.9,9.1,7.7,12.7,12.4c3.5,4.5,5.1,9.8,6,15.4c0.3,2,0.4,4,0.2,5.8
			c1.7-4.7,2.9-9.7,3.4-14.9c0.6-6.2,0.4-12.5-0.8-18.7c-0.5-2.6-1.4-5-1.8-7.6c0.1-0.4,0.3-0.7,0.7-0.7c3.3,10.1,4.2,20.4,2.4,30.9
			c-2.4,14.1-8.9,26.2-17.9,37.1c-1.9,2.4-4,4.6-6.2,6.7c-0.2,0.2-0.4,0.3-0.8,0.7c1.4-4.7,2.3-9.1,1.5-13.7
			c-0.1-0.7-0.4-1.4-0.8-2.2C254.7,256.3,250.2,264.9,242.8,271.7z"/>
		<path class="st4" d="M403.4,151.5c0-0.3-0.1-0.7,0.2-0.9c0.3-0.2,0.6-0.2,0.9-0.2c6.9,0.5,13.8,0.1,20.6-1.5
			c8-1.9,15.1-5.3,21.3-10.9c6.9-6.2,11.3-14,14.2-22.7c1.8-5.5,2.9-11.2,3.6-17c0.1-1,0-2,0.4-3.3c-1,0.8-1.6,1.7-2.3,2.4
			c-1.3,1.4-2.6,2.6-4,3.8c-0.5,0.5-0.8,1-1.1,1.7c-1.7,3.9-3.9,7.4-7,10.3c-0.7,0.6-1.4,1.2-2.1,1.7c-0.4,0.2-0.9,0.8-1.3,0.2
			c-0.3-0.5,0.3-0.9,0.6-1.2c1.3-1,2.4-2.1,3.4-3.4c2.7-3.5,4.8-7.4,6.1-11.7c1.3-4.4,2.6-8.8,3.3-13.3c1.6-9.7-0.3-18.8-5.1-27.3
			c-0.1-0.2-0.2-0.3-0.6-0.4c-1,2.5-2.9,4.7-2.9,7.6c-0.1,4.9-2,9.1-5.1,12.8c-0.8,0.9-1.7,1.8-2.6,2.6c-0.3,0.3-0.8,0.9-1.2,0.4
			c-0.3-0.4,0.2-0.8,0.5-1.1c1.9-2.1,3.5-4.3,4.8-6.8c2.3-4.6,2.6-9.3,1-14.2c-1.7-5-3.5-10-6.8-14.1c-3.3-4.1-7.3-7.2-12.4-8.9
			c1,2.4,1.7,4.8,1.9,7.3c0.5,4.5-0.8,8.5-3.5,12.1c-2.6,3.5-6,5.9-9.8,7.9c-5.3,2.8-10,6.3-14.4,10.4c-4.5,4.2-8.5,8.8-12,13.8
			c-4.6,6.7-7.7,13.9-8.3,22.1c-0.3,3.6-0.6,7.3-0.5,10.9c0.3,6.7,1,13.3,3.7,19.5c0.8,1.9,1.9,3.7,3.3,5.2c0.4,0.5,0.9,0.9,1,1.6
			c0,0.3-0.2,0.6-0.5,0.8c-4.3-4.1-6.2-9.4-7.4-15c-1.7-8.1-1.7-16.2-0.9-24.4c0.8-7.9,3.9-14.9,8.4-21.3
			c7.3-10.5,16.2-19.1,27.5-25.1c3.1-1.6,5.9-3.7,8.1-6.4c4.6-5.6,4.8-11.7,2.3-18.2c-0.4-1-0.9-2-1.4-3.2
			c14.4,3.9,20.3,14.8,23.6,28.2c1.2-2.6,2.3-4.9,3.5-7.4c2.2,3.5,3.9,7.1,5.3,10.9c3.1,8.8,2.6,17.7,0.2,26.5
			c-0.7,2.4-1.3,4.8-2.1,7.5c3.1-2.5,5.3-5.5,7.9-8.4c-0.2,2.3-0.3,4.6-0.6,6.9c-1,9.3-3.1,18.2-7.4,26.6
			c-6.5,12.7-16.7,20.9-30.4,24.7c-7.8,2.2-15.8,2.5-23.8,2.2C403.7,151.7,403.5,151.6,403.4,151.5z"/>
		<path class="st5" d="M258.4,120.9c-0.9,0.6-0.8-0.4-0.9-0.7c-0.5-1.3-1.1-2.5-1.8-3.7c-2.5-4-6-6.9-10-9.1
			c-1.4-0.8-2.9-1.5-4.3-2.3c4.6-0.3,9.2,0.2,13.9,0.8c-1.5-2-3.2-3.8-5-5.4c-2.4-2.1-5-4-7.9-5.6c-3.6-1.9-7.5-3.2-11.5-3.8
			c-0.7-0.1-1.5-0.2-2.3-0.3c-0.3,0-0.6,0-0.6-0.4c0-0.5,0.4-0.4,0.7-0.4c2.4-0.2,4.9-0.5,7.6-0.6c-1.6-1.9-3.4-3.2-5.3-4.4
			c-4.8-2.9-9.9-4.8-15.4-5.8c-8.6-1.4-16.8-0.4-24.8,3.1c-0.8,0.3-1.7,0.5-2.3,1.1c-1.9,0.8-3.7,1.9-5.3,3.1
			c-0.5,0.4-0.8,0.4-1.2-0.2c-6.1-7.7-14.2-12.2-23.6-14.5c-4.9-1.2-9.9-1.6-14.9-1.3c-3.6,0.2-7.1,0.6-10.6,1.4
			c-0.2,0-0.3,0.1-0.7,0.3c3.7,2,7.2,4,11.1,6.1c-1.6,0-2.9-0.2-4.1-0.2c-8.1-0.2-16,0.7-23.3,4.6c-2.2,1.2-4.3,2.6-5.7,5
			c5.9,0,11.6-0.2,17.3,2.3c-2.8,0.5-5.3,0.5-7.7,1.1c-3.7,0.9-7.3,2.2-10.8,3.8c-0.5,0.2-1.1,0.7-1.4-0.2
			c5.2-2.3,10.5-4.3,16.2-5.1c-4.8-1.4-9.7-1.1-14.7-1.3c0.3-1,1-1.8,1.6-2.5c3.4-3.6,7.8-5.4,12.4-6.6c5.5-1.5,11.1-1.9,16.8-1.9
			c-3.2-1.8-6.3-3.5-9.6-5.3c1-0.7,2.1-0.7,3.1-0.9c6.3-1.2,12.8-1.7,19.2-0.9c11.7,1.4,21.8,6,29.5,15.2c0.7,0.8,1,0.3,1.5,0
			c6.1-3.9,12.7-6.5,19.9-7.2c11.6-1,22.3,1.5,31.6,8.9c0.9,0.8,1.8,1.6,2.6,2.8c-2,0.1-4,0.2-5.9,0.4c10.7,2.1,18.7,8.1,25.3,16.6
			c-4.3-0.9-8.4-1.3-12.6-1.2c1.8,1.1,3.6,2.1,5.3,3.4C253.9,112.2,256.9,116,258.4,120.9z"/>
		<path class="st6" d="M93.6,419.8c-2.1,4.2-4.1,8.4-6.6,12.3c-2.4,3.7-5,7.2-8.3,10.2c-7.5,6.7-16.1,7.7-24.9,2.9
			c-1.5-0.8-2.9-1.2-4.6-1.2c-6.8,0.1-10.8-2.7-12.8-9.3c-1-3.5-2.2-7-2.4-10.7c-0.3-4.6,1-8.9,3-13c3.2-6.8,7.9-12.5,13.5-17.5
			c0.3,0.3,0.3,0.7,0.3,1.1c-0.7,4.1-0.7,8.1,1.2,12c1.7,3.4,4.4,5.6,7.7,7c4,1.7,8.2,2.2,12.5,2.8c6.6,0.8,13.1-0.4,19.4-2.1
			c1.8-0.5,1.8-0.5,2-2.3c0.3-1.2,0.1-2.5,0.2-3.8c0-0.4,0-1.1,0.4-1.2c0.6-0.1,0.6,0.7,0.7,1.1c0.4,3.1,0.4,6.3-0.6,9.3
			C94.3,418.4,93.8,419.1,93.6,419.8z"/>
		<path class="st7" d="M398.5,445.5c0.3,0,0.5,0,0.8,0c-2.9,8-7.7,14.2-16.1,17c-6.9,2.3-14.1,3.6-21.4,3.4
			c-7.4-0.3-14.4-1.8-20.4-6.5c-2.1-1.6-3.7-3.5-4.7-6c-0.2-0.6-0.7-1-1.1-1.5c-1.4-1.5-2.6-3.1-3.5-4.9c-2.4-4.7-1.7-9.1,2-12.8
			c3.3-3.4,7.5-5.3,12-6.8c3.2-1,6.4-1.8,9.8-1.6c0.3,0,0.6,0,0.9-0.3c0.4,0.1,0.6,0.3,0.8,0.7c1.2,4.8,3.2,9.3,6.6,12.9
			c3.4,3.7,7.7,5.9,12.6,7.1c3.6,0.9,7.3,0.8,11,0.8c2.8-0.3,5.6-0.6,8.3-1.2C396.7,445.6,397.6,445.3,398.5,445.5z"/>
		<path class="st8" d="M222.7,425.8c-0.4,8.7-4.4,15.3-11.8,19.8c-5.3,3.2-11.2,4.9-17.2,6.4c-4.9,1.2-9.9,1.5-14.9,0.5
			c-4.2-0.8-7.9-2.6-11.2-5.2c-0.8-0.6-1.4-0.8-2.5-0.7c-4.5,0.7-8.7-2.8-9.5-7.6c-0.6-4.1,0.6-7.6,2.8-10.9
			c4.1-6.1,9.8-9.9,16.8-11.7c0.3-0.1,0.5-0.2,0.8-0.2c0.2-0.2,0.5-0.2,0.8-0.2c0.8,0.4,1.2,1.1,1.7,1.7c4.4,5,9.5,9.2,15.9,11.5
			c6.6,2.4,13.2,2.2,19.8,0c2.6-0.7,5-2,7.5-3.2C222,425.8,222.3,425.6,222.7,425.8z"/>
		<path class="st9" d="M357.2,426.1c-0.2-0.2-0.4-0.4-0.6-0.6c0.7-2.6-0.1-4.9-1.2-7.1c-1.8-3.7-4.4-7-7.1-10.1
			c-7.3-8.2-15.6-15.3-24.1-22.2c-0.5-0.4-0.8-0.4-1.2,0.2c-8.8,13.1-16.8,26.7-21.7,41.8c-0.3,1-0.6,2.1-1,3.1
			c-0.2,0.2-0.5,0.3-0.7,0.1c-0.5-0.6-0.1-1.2,0-1.8c1.4-4.6,3.1-9.1,5.1-13.5c4.6-10.3,10.4-20,16.7-29.4c0.9-1.4,1-1.5-0.4-2.5
			c-3.2-2.4-6.1-5.1-9-7.7c-1.7-1.6-3.2-3.4-4.8-5.1c-0.3-0.4-0.5-0.9-0.9-1.2c-4-4.6-7.1-9.8-9.7-15.2c-0.5-1.4-1.2-2.8-1.7-4.2
			c-0.1-0.3-0.2-0.6-0.3-0.9c-2.1-6.2-3.1-12.6-2.9-19.1c0.1-3.3,0.4-6.6,1.5-9.8c0.2-0.7,0.5-1.4,1-2.1c0.1-0.2,0.3-0.4,0.5-0.3
			c0.2,0.1,0.3,0.3,0.3,0.6c0,0.5-0.2,1-0.3,1.5c-1,4.1-1.5,8.3-1.4,12.6c0.3,9.4,2.8,18.2,7.5,26.3c5,8.7,11.6,16,19.5,22.1
			c6.3,4.9,12.5,9.9,18.3,15.3c5.4,5,10.7,10.1,15,16.2c1.7,2.4,3.2,4.9,4.1,7.7c0.4,1.3,0.5,2.7,0.4,4
			C358,425.2,358,425.9,357.2,426.1z"/>
		<path class="st6" d="M299.6,431.2c0.3,0,0.5,0,0.8,0c-2.3,6.1-6.8,10.3-12.3,13.4c-10.8,6-22.3,7.8-34.3,5.4
			c-4.5-0.9-8.7-2.8-12.2-5.9c-0.3-0.3-0.7-0.5-1.1-0.7c-8.7-4.3-10.4-13.6-3.8-20.7c3.4-3.7,7.7-6.2,12.2-8.2
			c2.1-0.9,4.2-1.7,6.2-2.5c0.3,0.1,0.4,0.4,0.4,0.7c2.3,8,7.6,13.1,15.3,15.8c5,1.8,10.1,3,15.3,3.6c4,0.1,8,0.5,11.9-0.7
			C298.5,431.2,299.1,431,299.6,431.2z"/>
		<path class="st9" d="M176.8,416c-0.3,0-0.6,0-0.8,0c-1.9-6.3-4.6-12.3-7-18.3c-2-4.9-4.1-9.8-5.7-14.8c-0.1-0.2-0.2-0.4-0.3-0.7
			c-2.1,1.4-4.1,2.9-6.2,4.2c-11.5,7.4-23.8,13-36.5,17.8c-5.5,2.1-11.1,3.8-16.2,6.7c-4,2.3-7.5,5.1-10.3,8.7
			c-0.3-0.7,0.3-1.3,0.3-1.9c2.3-3.7,5.9-5.8,9.5-7.9c5.4-3.1,11.3-4.9,17.1-7.1c10.6-4.1,20.9-8.7,30.7-14.5
			c6-3.5,11.7-7.5,16.9-12c6.1-5.3,11.5-11.3,15-18.7c1.4-2.9,2.4-5.9,2.8-9.1c0.1-0.5,0-1.4,1-0.8c0.4,1.4,0,2.8-0.2,4.1
			c-0.3,2.5-1.3,4.8-2.3,7c-0.2,0.4-0.4,0.7-0.6,1.1c-3.1,5.7-7.2,10.7-12,15.1c-0.3,0.3-0.6,0.6-1,1c-1.8,1.6-3.7,3.2-5.6,4.7
			c-0.9,0.7-1.1,1.5-0.7,2.6c2.1,6,4.6,11.9,7,17.8c1.8,4.4,3.6,8.8,5.1,13.4C176.9,415,177.3,415.5,176.8,416z"/>
		<path class="st2" d="M50.5,394.7c0-0.4,0-0.7,0-1.1c4.8-4.8,10.6-8.1,16.7-11c9.1-4.3,18.1-8.7,26.6-14.2
			c16.6-10.9,29-25.2,36.8-43.5c0.5-1.2,0.5-2.1,0-3.3c-2.7-6.6-4.9-13.3-6.6-20.2c0.2-0.3,0.5-0.4,0.9-0.5c1,1.9,1.2,3.9,1.8,5.9
			c1.5,4.7,3,9.4,4.9,14.2c0.8-1.5,1.1-3.1,1.8-4.5c0.3-0.6,0.4-1.7,1.3-1.3c0.9,0.3,0.3,1.2,0.1,1.8c-4.2,12.3-10.3,23.6-18.8,33.6
			c-8.3,9.7-18.3,17.2-29.3,23.5c-7.5,4.3-15.3,7.7-23,11.6c-4.3,2.2-8.2,5-11.8,8.2C51.4,394.3,51.1,394.9,50.5,394.7z"/>
		<path class="st10" d="M170.9,375.8c0.3-0.3,0.5-0.5,0.8-0.8c1.5,0.5,2.6,1.5,4,2.3c2.9,1.6,5.8,3.1,8.8,4.4
			c7.6,3.1,15.5,5,23.7,5.7c13.4,1.1,26.4-1,39.3-4.8c12.9-3.9,25.9-7.5,39.2-10.1c6.1-1.2,12.3-2,18.6-2.6c0.5,0,1.1,0.1,1.6,0.1
			c0.3,0.4,0.5,0.7,0.8,1.1c-0.7,0.6-1.6,0.6-2.4,0.6c-9.1,0.3-17.9,2.2-26.7,4.3c-2.8,0.7-5.7,1.3-8.5,2.1c-0.6,0-0.9,0.5-1.4,0.6
			c-0.1-0.8-0.5-0.5-0.9-0.4c-5.1,1.4-10.3,2.8-15.4,4.3c-7.5,2.2-15,4.4-22.7,5.5c-4,0.5-8.1,1-12.2,0.9c-1.1,0-1.3,0.4-1.2,1.3
			c-0.7,0-0.4-1.2-1.3-1c-7.9,0.2-15.6-1.1-23.2-3.3c-5.7-1.7-11.1-4.1-16.2-7c-1.2-0.6-2.3-1.4-3.4-2.1
			C171.5,376.5,171,376.3,170.9,375.8z"/>
		<path class="st11" d="M258.9,195.5c-0.4,0-0.7,0-1.1,0c-1.2,0.7-2.5,0.4-3.7,0.3c-5.6-0.5-11.1-1.7-16.2-4.3
			c-0.9-0.5-1.8-1-2.6-1.7c-0.3-0.3-0.5-0.7-0.5-1.1c0.6-0.3,1,0.1,1.5,0.4c4.7,2.8,9.8,4.4,15.2,5.1c7.8,1,15.3,0.1,22.2-4
			c4.2-2.5,7.1-6.2,9.4-10.5c3.3-6.2,5.2-12.9,5.8-19.9c0.6-6.9-0.1-13.5-2.9-19.9c-4.5-9.8-12.3-15.1-22.6-17.1
			c-7.7-1.5-14.6,1-20.9,5.4c-1.2,0.8-2.3,1.8-3.4,2.6c-0.3,0.3-0.6,0.7-1.2,0.5c0.2-1.4,1.5-2,2.4-2.9c1-0.9,2.3-1.4,3.3-2.5
			c2.2-0.8,4.2-2.1,6.5-2.9c2.5-0.8,5-1.5,7.6-1.5c0.3,0,0.5,0,0.7-0.2c12,0.4,21.2,5.5,27.4,15.8c3.1,5.3,4.3,11.2,4.4,17.3
			c0.1,10-2.2,19.5-7.5,28.1c-1,1.7-2.3,3.1-3.4,4.6c-0.2,0.2-0.4,0.4-0.5,0.5c-0.3,0.8-1,1.4-1.6,1.9c-4.5,3.5-9.6,5.3-15.2,6
			C261,195.7,259.9,196.1,258.9,195.5z"/>
		<path class="st12" d="M214.9,388.8c1.2-0.2,0.6,1,1.1,1.3c0.7,6.2,2.5,12.2,4.3,18.2c1.6,5.7,2.9,11.5,2.5,17.5
			c-0.3,0.1-0.5,0.2-0.8,0.3c-0.3-0.3-0.4-0.7-0.4-1.1c0.1-7-1.7-13.7-3.7-20.3c-1.4-4.7-2.6-9.5-3.1-14.3
			C214.7,389.8,214.5,389.3,214.9,388.8z"/>
		<path class="st13" d="M268.4,378.5c0.3-0.3,0.3-1,1-0.8c0.5,0.9-0.2,1.6-0.2,2.5c-1.9,7.6-4,15-7,22.2c-1.5,3.5-2.9,7-5.7,9.7
			c-0.4,0.4-0.7,0.9-1.3,0.8c0-0.3-0.1-0.6-0.1-0.9c3.4-3.1,5-7.3,6.7-11.4c2.7-6.8,4.6-13.8,6.3-20.8
			C268.2,379.3,268.3,378.9,268.4,378.5z"/>
		<path class="st14" d="M93.4,165.3c0-0.7,0.6-0.6,0.9-0.8c4.3-2,8.9-3.3,13.5-4.4c3.9-0.9,7.9-1.6,11.9-2.2
			c0.4-0.1,0.9-0.2,1.2-0.5c3.1-3.1,5.8-6.5,7.3-10.7c0.7-1.9,0.9-3.9,0.3-5.9c-0.2-0.7-0.4-1.5-1.1-2c0-0.5,0.3-0.4,0.6-0.4
			c-6.6-2-10.8,1.6-14.3,6.3c-2.7,3.5-4.2,7.6-4.6,12c-0.1,0.9-0.1,1.8-0.6,2.6c-0.3,0.1-0.6,0.1-0.9,0.2c-0.7,0.2-1,0-0.8-0.8
			c2.8-12.3,7.3-23.8,14.4-34.2c0.1-0.1,0.2-0.2,0.3-0.3c0.5-0.4,1-0.7,1.7-0.8c2.7-0.7,5.4-1.7,8-2.8c1.6-0.7,1.9-0.5,2,1.2
			c0.2,1.4,0.3,2.7,0.6,4.1c0.1,0.6,0.3,1.2-0.2,1.6c-0.4,0.2-0.7,0-1-0.2c-3.3-1.8-6.4-1.5-9.2,1.1c-1.9,1.7-3.2,3.8-4,6
			c4.1-3.3,8.7-5.6,14.3-5.2c0.8,0.2,1.4,0.5,1.7,1.3c2.7,6.3,7.3,10.9,12.9,14.7c3.4,2.3,7.2,4,11.1,5.2c0.3,0.1,0.7,0.2,1,0.3
			c0.1,0,0.3,0,0.5-0.1c-0.2-1.3-0.7-2.6-1.2-3.9c-0.6-1.5-1.1-3-1.6-4.6c-0.9-3-1.1-6.1-0.2-9.2c0.1-0.3,0.2-0.6,0.4-0.9
			c0.2-0.4,0.5-0.9,1.1-0.9c0.6,0,0.8,0.4,1,0.9c0.5,1.2,1.1,2.3,1.7,3.4c2.3,3.8,5.6,6.4,9.5,8.3c2.6,1.3,5.4,2.3,8.3,2.8
			c1.3,0.3,2,1.4,2.7,2.3c2,2.3,3.7,5,4.7,7.9c0-2.4-0.2-4.7-0.7-7c-0.1-0.5-0.4-1.1,0-1.7c2.1-0.2,4.2,0.3,6.3,0.4
			c1.4,0.1,2.8,0.2,4.2,0.4c0.9,0.1,1.1-0.3,0.6-1c-0.9-1.5-1.8-3-2.6-4.6c-0.9-1.9-1.5-3.9-1.9-5.9c-0.1-0.4-0.1-0.8,0-1.2
			c0.3-0.5,0.6-0.3,0.9,0c1.5,1.5,3.4,2.6,4.8,4.2c0.2,0.2,0.4,0.5,0.4,0.8c0.4,0.8,0.8,1.6,1.1,2.4c1.4,3.4,2.5,6.8,2.8,10.5
			c0.6,6.3,0.3,12.5-1.4,18.6c-1.7,6-4.1,11.7-7.9,16.7c-0.7,0.9-0.4,1.3,0.5,1.9c6.7,4.4,10.3,10.7,11,18.7
			c0.6,7-0.9,13.7-3.6,20.1c-2.4,5.8-6.5,10.2-12.2,12.9c-3.9,1.8-8,2.8-12.2,3.3c-5,0.6-10.1,0.8-15.1,0.5c-4.3-0.3-8.5,0-12.7,0.8
			c-0.4,0.1-0.8,0.1-1.2-0.1c-0.6-0.6-0.1-1.2,0.1-1.7c0.6-1.5,1.3-2.9,1.9-4.4c2.1-4.8,4.6-9.5,7.9-13.6c2.2-2.8,4.7-5.4,6.9-8.1
			c2.4-3,4-6.2,3.9-10.2c-0.1-3.1-1.4-5.4-3.7-7.3c-2.1-1.8-4.5-2.9-7-4c-1.2-0.5-2.3-1-3.5-1.3c-4-1.2-7-3.8-10-6.4
			c-3-2.6-6-5.3-9.3-7.5c-1.8-1.2-3.8-2.1-5.8-2.7c-0.7-0.2-1.4-0.3-1.8-1c-0.5-4-3.4-6-6.6-7.8c-4.4-2.4-9.2-3.5-14.1-4.5
			c-2.3-0.5-4.7-0.6-7.1-0.9c-1.5-0.2-3-0.3-4.5,0.1C94.8,165.6,94,165.8,93.4,165.3z"/>
		<path class="st15" d="M128,178.8c6.7,1.5,11.6,6,16.4,10.4c3.8,3.4,7.8,6.2,12.8,7.7c2.4,0.7,4.6,1.9,6.7,3.3
			c6,3.8,6.6,9.7,3.9,15.4c-1.2,2.5-3.1,4.6-5,6.7c-5.2,5.5-9.3,11.8-12.3,18.7c-0.4,0.3-0.7,0.6-1.1,0.8c-4.8,2-8.7,5.4-12.6,8.7
			c-3.2,2.6-6,5.7-9.9,7.3c-7.5,3.2-14.9,3-21.9-1.5c-2.3-1.5-4.1-3.6-5-6.3c-1.2-3.5-2.2-7.1-2.8-10.8c-0.5-2.9,0.1-5.4,1.5-7.9
			c2.7-3.3,4.8-6.9,5.6-11.2c0.5-2.6,0.3-5.1,0.1-7.7c0.6-0.1,1,0.3,1.4,0.7c1,0.7,2,1.5,3.1,1.9c1.4,0.6,2,1.6,1.8,3.1
			c-0.2,4.5-1.6,8.6-4.6,12.1c-1.2,1.5-2.4,3.1-3,4.9c-0.7,2.2-0.2,4.2,1.7,5.5c3.7,2.8,7.8,4.6,12.4,5.1c7.1,0.9,13.1-1.8,18.4-6.2
			c6.8-5.7,10.7-13.3,13-21.7c0.3-1,0.4-2,0.8-3c0.3-0.4,0.7-0.9,1.2-0.6c0.8,0.5,0.7,1.4,0.8,1.9c-0.1-1.9-0.8-3-3.5-4.6
			c0.6,0.5,1.1,0.7,1.6,1c0.4,0.3,0.9,0.7,0.4,1.3c-1.6,0.3-3.3,0.5-4.9,0.4c-7.2-0.3-14.2-1.9-21-4.4c-6.7-2.4-13.1-5.4-19.3-9
			c-1.9-1.1-3.6-2.3-5.3-3.7c-0.8,0.3-1.1,1.1-1.6,1.7c-1.2,1.5-2.4,3-3.8,4.3c-2.1,1.9-4.6,2.4-7.3,2.3c-2.2-1.5-3.6-3.7-4.8-6.1
			c-4-8.3-3.2-16.2,1.9-23.7c0.4-0.6,0.9-1.3,1.8-1.6c0.2,0,0.4,0.1,0.5,0.2c1.2,2.1,3.3,3.3,5.2,4.7c1.5,1.1,2.4,2.5,3.1,4.2
			c0.8,1.9,1.5,3.8,2.4,5.6c1.4,2.6,3.5,3.3,6.2,2c1.2-0.6,2.2-1.5,3.3-2.3c2.9-2.3,6.2-3.7,10-4.1c2.6-0.3,5.2-1,7.6-2.2
			c1.4-0.7,2.7-1.6,3.5-3C127.5,179.1,127.7,178.9,128,178.8z"/>
		<path class="st14" d="M238.1,131.2c2-1.5,3.9-3.2,6-4.5c11.2-6.8,23-6.2,33.4,1.7c3.9,3,7,6.6,8.8,11.1c2.4,7.2,1.2,14.1-1.4,20.9
			c-2.9,7.9-7.5,14.7-13.4,20.7c-2.7,2.7-5.7,4.8-9.3,6c-5.6,1.8-11,1.1-16.4-1c-5.5-2.2-10.2-5.5-14.4-9.6
			c-0.5-0.5-1.1-0.9-0.9-1.7c1.6-0.8,3-1.7,4.2-3.1c0.6-0.7,1.1-0.4,1.6,0.1c1.6,1.4,3.2,2.9,5,4.1c2.7,2,5.5,3.8,8.6,5
			c4.5,1.8,8.9,2.4,13.5,0.3c3.7-1.7,6.4-4.5,8.2-8.1c3.7-7.2,4-14.7,1.2-22.3c-0.2-0.6-0.6-1.1-0.4-1.8c0.4-0.5,0.9-0.2,1.4-0.1
			c0.8,0.2,1.6,0.4,2.3,0.8c0.7,0.3,1.3,0.8,2.2,1.3c-0.3-1.2-0.8-2.1-1.4-3c-2.3-3.3-5.5-5.1-9.3-5.9c-2.5-0.5-5-1.2-7.6-0.7
			c-6,1.1-10.4,4.7-13.1,10c-3.4,6.6-7.3,13-11.4,19.3c-1,1.5-2.2,2.9-3.9,3.6c-0.6,0.3-1.3,0.5-1.9,0.1c-1-3.3-1.3-6.7-1.8-10
			c-1.1-6.9-3.6-13.2-7.6-18.9c0-0.2,0.1-0.5,0.3-0.5c2.1,0.4,3.6-0.9,5.3-1.7c0.8-0.5,1.5-1.2,2.4-1.6l0,0c0.7-1,1.6-2,2.7-2.7
			c0.2-0.2,0.4-0.4,0.6-0.6c0.5-0.9,1-1.8,1.9-2.4c0.1-0.2,0.3-0.3,0.4-0.5c0-0.7,0.6-0.8,0.9-1.1
			C235.9,133.4,237,132.3,238.1,131.2z"/>
		<path class="st14" d="M57.2,127.7c-3.4-10.4-3.3-20.4,3.8-29.4c4.8-6,11.1-9.5,18.7-10.8c6.3-1.1,12.4-0.3,18.3,2.1
			c8.1,3.2,12.6,9.4,14.4,17.7c1.1,5,1.1,10.2,0.4,15.3c-0.1,0.5-0.1,1-0.1,1.5c0.2,0.4-0.1,0.7-0.3,0.9c-2.8,3.4-4.4,7.4-5.8,11.5
			c-0.6,1.8-1.4,3.6-2.5,5.2c-0.3,0.4-0.5,0.8-1,1.1c-5.7,2.5-11.7,3.7-18,3.3c-10.3-0.7-18.9-4.7-25.2-13.1
			C58.7,131.2,57.9,129.5,57.2,127.7z"/>
		<path class="st1" d="M254.8,219.2c1.5,3.1,2.4,6.4,3,9.8c0.3,1.9,0.5,3.9,0.6,5.9c0.2,6-1.4,11.7-3.5,17.3
			c-1.9,5.2-4.6,9.9-8.1,14.2c-3.9,4.8-8.6,8.8-14,11.8c-5.7,3.2-11.7,5.5-18.2,6.7c-2.7,0.5-5.4,1-8.1,1c-1.3,0-2.6,0.4-4.2,0.1
			c3.9-2.2,7.1-4.8,10-8c-1.6,0.8-2.8,2.1-4.1,3.3c-3.4,2.9-7.3,4.7-11.5,5.9c-5.4,1.5-10.9,2.3-16.5,3c-5.4,0.7-10.7,1.2-16.2,1.4
			c-2.5,0.1-4.9,0.1-7.4,0c0.9-0.6,1.8-1.2,2.8-1.7c3.1-1.9,5.7-4.3,8.4-6.7c0.1,0.6,0.3,0.5,0.7,0.2c4.7-3.1,9.2-6.6,12.9-10.9
			c4-4.6,6.9-9.8,9.3-15.4c0-0.1,0.2-0.2,0.3-0.3c0.5,0.2,0.3,0.7,0.3,1.1c0.2,6.4-0.7,12.7-2.5,18.8c-0.2,0.6-0.8,1.3-0.1,1.8
			c0.6,0.5,1.2-0.3,1.6-0.6c3.2-1.9,6.2-4,9.1-6.5c3.6-3.1,7.1-6.3,10.7-9.4c0.2-0.2,0.4-0.6,0.8-0.4c0.3,0.2,0.2,0.5,0.2,0.7
			c-0.1,2.6,0.4,5.2-0.4,7.8c-0.1,0.3-0.1,0.6,0.2,0.8c0.3,0.2,0.5,0.1,0.7-0.1c3.8-2.5,8-4.2,11.9-6.5c3.4-2,5.6-5,7.4-8.3
			c0.3-0.5,0.5-1,0.8-1.6c0-0.1,0.1-0.1,0.4-0.2c0.5,1.6,0.5,3.2,0.9,4.7c1,4.1-0.6,7.6-2.3,11.1c-0.1,0.3-0.3,0.6-0.4,0.9
			c-0.1,0.3-0.4,0.7,0,1c0.4,0.2,0.6-0.1,0.8-0.3c4.8-3.5,9.7-6.9,14-11.1c4.8-4.8,8.4-10.4,10-17.1c1.2-4.8,1.6-9.6,1.1-14.5
			C255.9,225.8,255.2,222.5,254.8,219.2z"/>
		<path class="st16" d="M148.2,247c2.5-0.2,4.9-0.8,7.4-0.9c1.5-0.1,3-0.2,4.4-0.1c6.3,0.5,12.5,0.3,18.8-0.5
			c5.1-0.7,9.9-2.2,14.1-5.1c4.2-2.9,7-6.9,8.9-11.6c1.5-3.8,2.6-7.6,3-11.6c0.9-7.2-0.1-14.1-4.6-20.1c-1.7-2.3-3.9-4.3-6.3-5.7
			c-1.2-0.7-1.3-1.1-0.4-2.2c4-5.3,6.5-11.4,8.2-17.8c1.3-5.2,1.6-10.5,1.3-15.7c-0.2-3.4-0.9-6.8-2.2-10.1
			c-0.3-0.7-0.6-1.3-0.5-2.1c2.1,3.6,3.6,7.4,4.7,11.4c1.6,5.4,2.4,11,2.2,16.6c-0.2,5.8-1,11.5-3.7,16.8c-0.5,1-1,1.9-1.7,2.7
			c-0.5,0.6-0.6,1,0.2,1.4c6,3.5,10,8.6,12.3,15c2.2,6.2,2.4,12.5,1,18.9c-2.3,10.4-8.9,17.4-17.9,22.5c-7.1,4-14.8,6.2-23,7
			c-5.1,0.5-10.2,0.1-15.2,0.2c-7.1,0.1-13.5,1.9-19,6.7c-0.2,0.1-0.4,0.2-0.6,0.4c-0.2-0.4,0-0.8,0.3-1.1c2.9-4.3,5.1-9,7.2-13.7
			C147.4,247.7,147.5,247.1,148.2,247z"/>
		<path class="st1" d="M157.9,290c-1.6,1.3-3.5,1.9-5.4,2.7c-6.1,2.3-12.3,4.5-18.8,5.9c1-1.6,2.4-2.7,3.5-4.7
			c-1.4,0.8-2.5,1.4-3.6,2c-5.1,2.7-10.2,5.4-15.7,7.3c-0.4,0.1-0.9,0.5-1.3,0.2c-0.4-0.4,0.1-0.8,0.3-1.2c0.5-1.3,0.9-2.7,1.1-4.3
			c-1,0.6-1.5,1.5-2.1,2.3c-3.1,3.5-6.2,7-10,9.7c-0.3,0.2-0.5,0.3-0.8,0.5c-0.7,0.5-1.1,0.3-1.3-0.5c-1.4-4.5-3-8.9-4.7-13.3
			c-1.7-4.6-3.7-9-6.1-13.3c-2.9-5.2-4.7-10.9-6-16.6c-0.7-3.2-1.5-6.4-1.4-9.7c0-0.9-0.3-1.1-1.1-0.7c-1.8,0.8-3.4,1.9-5.1,2.9
			c0.5-1.9,1.7-3.4,2.6-5.1c1.8-3.5,3.7-6.9,5.5-10.3c0.1-0.2,0.2-0.5,0.6-0.6c0.4,1,0.3,2.2,0.4,3.2c0.4,4.2,1.3,8.4,2.2,12.5
			c1.4,6.3,2.7,12.7,4.6,18.9c1.6,5.5,3.5,10.9,5.8,16.2c1.2,2.8,2.4,5.7,3.9,8.4c0.1,0.2,0.2,0.3,0.2,0.5c1,1.8,1.5,1.9,2.7,0.2
			c2.8-4,5.5-8.1,8.4-12c2.4-3.2,4.9-6.3,8.7-8c1.4-0.6,1.5-0.5,1.6,1c0,2.8-0.3,5.6-0.8,8.4c-0.1,0.2-0.3,0.5,0,0.7
			c0.3,0.2,0.5,0,0.7-0.2c4.4-4.3,10.2-6.1,15.5-8.6c5.3-2.5,10.4-5.1,14.7-9.1c0.2-0.2,0.4-0.6,0.8-0.4c0.3,0.2,0.2,0.6,0.2,0.9
			c0,4.3,0,8.6,0,13C157.7,289.1,157.5,289.6,157.9,290z"/>
		<path class="st17" d="M148.2,247c-1.2,2.5-2.4,5.1-3.6,7.6c-1.4,2.9-3.1,5.6-4.8,8.3c-7.2,7.8-16.3,10-26.5,8.5
			c-3.9-0.6-7.6-1.8-11-3.8c-6-3.6-9.3-9-10.5-15.9c-0.6-3.6-0.8-7.2,0.3-10.8c1.3-3.9,3.9-6.8,6.7-9.6c0,1.2-0.8,2.3-1.1,3.4
			c-0.5,2.2-0.2,4.3,0.3,6.4c0.8,3.6,1.5,7.3,3.2,10.5c2.3,4.2,6.3,6.4,10.9,7.4c7.2,1.5,13.8,0.1,19.5-4.5
			c4.5-3.6,8.6-7.6,13.4-10.7c1.7-1.1,3.6-2,5.5-2.7C149.8,243.1,149,245.1,148.2,247z"/>
		<path class="st18" d="M179.9,146.6c-2.2,0-4.1-0.9-6.1-1.7c-3.6-1.3-7-3.3-9.6-6.2c-1.8-1.9-3.2-4.1-4.2-6.5
			c-0.2-0.4-0.1-1-0.8-0.9c-0.6,0-0.7,0.6-0.8,1c-1.3,3.2-1,6.5,0,9.7c0.9,2.7,1.8,5.4,2.8,8.2c0.3,0.9,0.2,1.1-0.8,0.9
			c-4.9-1.3-9.3-3.4-13.5-6.3c-3.4-2.4-6.4-5.2-8.8-8.6c-1.2-1.7-2.3-3.4-3-5.4c-0.3-0.8-0.7-1.1-1.4-1.4c0.6-0.7-0.5-1.3-0.2-1.9
			c0.6-0.8-0.1-1.6-0.1-2.4c-0.1-1.2-0.4-2.4-0.4-3.6c0-1-0.4-1.1-1.2-0.7c-3.2,1.5-6.6,2.7-10.1,3.5c0.9-1.3,1.8-2.5,2.7-3.8
			c0.2-0.7,0.9-0.7,1.4-0.9c3.6-1.4,7.1-3.1,10.6-4.8c1.3-0.6,1.5-0.5,1.4,1c-1.1,9.6,5.4,19.1,13.7,23c0.2,0.1,0.3,0.1,0.5,0.2
			c0.8,0.4,1.1,0.3,1.1-0.8c-0.2-5.1,0.9-10,2.3-14.9c0.1-0.5,0.3-1.2,0.9-1.2c0.5-0.1,0.8,0.4,1.1,0.8c3.8,4.9,8.4,8.8,14,11.4
			c4.9,2.3,10,3.6,15.4,4.3c-7.3-5.6-10.7-13.3-11.9-22.2c-0.1-0.8-0.3-1.6-0.2-2.4c0-0.4,0-1,0.4-1.1c0.5-0.1,0.6,0.5,0.7,0.8
			c1.3,2.8,3,5.4,4.8,7.8c3.3,4.2,6.9,8.2,10.9,11.7c0.8,0.7,1.9,1.3,2.1,2.5c0.1,2.3,0.9,4.5,1.8,6.6c0.8,2,2.1,3.9,3.2,5.8
			c0.4,0.8,0.4,1-0.5,1c-2.7-0.2-5.4-0.4-8.1-0.7c-1-0.1-2-0.3-3-0.4c-0.6-0.2-0.7-0.7-0.9-1.1c-0.3-0.8-0.7-1.6-1.2-2.4
			c-2.7-4.2-7.2-5-11.7-2.8c2.2,0.9,4.2,2.2,6.1,3.6C179.4,145.5,179.9,145.9,179.9,146.6z"/>
		<path class="st1" d="M123.9,119.6c6.2-3.7,12-8,17.7-12.5c-0.2,1.8-0.6,3.5-0.8,5.2c-0.8,5.9-0.6,11.6,2.4,17c1.2,2.2,3,3.9,5.3,5
			c0.9,0.4,1.3,0.4,1.3-0.8c0.1-7.1,2.2-13.8,4.3-20.6c0.1-0.3,0.1-0.6,0.4-0.6c0.4,0,0.5,0.4,0.6,0.6c1,2.1,2,4.3,3.1,6.4
			c3.8,7.8,10.3,12.3,18.4,14.9c0.3,0.1,0.6,0.3,0.9,0c0.3-0.3,0-0.6-0.2-0.8c-2.3-3.1-3.2-6.6-3.9-10.3c-0.6-3.3-0.6-6.6-0.5-9.9
			c0.1-2.5,0.5-5,1.6-7.3c0.1-0.3,0.2-0.6,0.7-0.7c0.6,1.3,1,2.6,1.6,3.9c2.1,4.5,4.9,8.5,7.9,12.4c3.4,4.4,6.9,8.6,10.7,12.6
			c4,4.3,7.9,8.6,11.9,13c0.6,0.7,1.2,1.4,1.8,2c0.3,0.3,0.5,0.7,0.3,1c-1.5-1.4-3-2.8-4.5-4.3c-0.9-1.5-2.3-2.6-3.6-3.8
			c-5.7-5-11.3-10-16.5-15.5c-3.4-3.7-6.6-7.6-8.8-12.2c-0.5-1.1-0.9-2.3-1.4-3.7c-0.4,3.6,0.2,7,0.9,10.4c1.1,4.9,3.2,9.3,6.4,13.2
			c0.8,0.9,1.7,1.7,2.5,2.6c0.3,0.3,0.8,0.6,0.6,1.1c-0.2,0.5-0.8,0.3-1.2,0.3c-3.7-0.7-7.4-1.6-10.8-3.1c-6.5-2.8-11.8-6.9-16-12.6
			c-0.2-0.2-0.3-0.4-0.5-0.6c-0.1-0.1-0.2-0.3-0.5-0.4c-0.5,0.6-0.6,1.3-0.8,2c-1.2,4.2-2.1,8.5-2.3,13c0,0.5,0,0.9,0.1,1.3
			c0.1,1.1-0.3,1.4-1.3,0.9c-2-0.9-3.9-2.1-5.5-3.6c-4.4-3.9-7.3-8.7-8.3-14.6c-0.3-1.8-0.3-3.6,0-5.4c0.1-0.4,0.2-0.8-0.1-1
			c-0.3-0.2-0.7,0.1-1,0.3c-3.7,1.8-7.3,3.6-11.2,5.1C124.9,119.7,124.4,120.1,123.9,119.6z"/>
		<path class="st19" d="M128,178.8c-0.7,2.3-2.7,3.4-4.7,4.3c-2.6,1.1-5.4,1.7-8.2,2.1c-3.1,0.4-5.7,1.7-8.2,3.5
			c-1.1,0.9-2.3,1.8-3.5,2.5c-2.8,1.7-5.2,1-6.8-1.9c-0.9-1.5-1.5-3.2-2.1-4.8c-1-2.6-2.5-4.6-4.9-6.1c-1.6-1-3.1-2.2-3.9-4
			c-0.2-0.2-0.3-0.4-0.2-0.6c-0.2-2.1,0.3-4,1.6-5.6c1.3-1.7,3.2-2.3,5.2-2.6c0.3-0.1,0.7,0.1,1-0.2c0.7,0,1.4-0.1,2.1-0.1
			c1.6-0.1,3.2-0.1,4.8,0c4.5,0.3,8.8,1.1,13.1,2.3c3.4,1,6.6,2.1,9.6,4c1.2,0.7,2.3,1.6,3.2,2.7C127.3,175.5,128.1,177,128,178.8z"
			/>
		<path class="st18" d="M57.2,127.7c1.3,1.9,2.3,4,3.8,5.8c3.5,4.2,7.6,7.4,12.7,9.4c5.3,2.2,10.9,2.9,16.6,2.5
			c3.9-0.3,7.8-1.1,11.4-2.7c0.4-0.2,0.9-0.3,1.4-0.4c0.2,0.4-0.1,0.8-0.3,1.1c-1.9,2.7-4.4,5-6.7,7.3c-0.2,0.2-0.5,0.4-0.8,0.3
			c-3.5-0.1-7.1,0.2-10.6-0.3c-12.4-1.6-21.5-7.7-26.3-19.5C57.9,130,57.3,128.9,57.2,127.7z"/>
		<path class="st20" d="M123.9,119.6c2.2-0.4,4.1-1.5,6.1-2.4c2.5-1.1,4.9-2.3,7.3-3.5c0.2-0.1,0.5-0.3,0.8-0.2
			c0,1.3-0.5,2.6-0.5,3.9c0.1,6,2.3,11.1,6.4,15.4c2.2,2.3,4.6,4.3,7.5,5.6c0.4,0.2,1.1,0.6,0.9-0.4c-0.4-2.8,0.1-5.5,0.6-8.2
			c0.6-3.1,1.3-6.2,2.6-9.4c7,10.4,16.9,15.8,29.4,17.7c-8.5-7.9-11.5-17.5-11.1-28.4c0.5-0.1,0.6,0.1,0.6,0.3c1.2,4.9,4,8.9,7,12.7
			c3.1,3.9,6.7,7.3,10.2,10.7c3.9,3.8,8.2,7.1,12,11c0.4,0.4,1,0.7,0.7,1.4c-1.8-1.6-3.6-3.2-5.4-4.8c-2-1.7-3.9-3.5-5.9-5.2
			c-3-3-6.2-5.9-9.1-9c-3.7-4.1-7-8.3-9.3-13.3c0-0.1-0.1-0.3-0.4-0.2c0.8,10.3,4,19.3,13.1,25.8c-2.7-0.2-5.1-0.7-7.4-1.2
			c-2.4-0.6-4.8-1.3-7-2.2c-2.3-0.9-4.5-2-6.6-3.4c-2.1-1.3-4-2.9-5.8-4.6c-1.8-1.7-3.3-3.6-5-5.7c-1.8,6-3.2,11.7-2.6,17.8
			c-8.2-2-17.9-13.3-15.9-25.2c-4.3,2.2-8.7,4.2-13.1,6c-1.5,0.4-2.9,0.8-4.4,1.2c-0.4,0.1-0.9,0.3-1.1-0.1c-0.3-0.3,0.1-0.7,0.3-1
			c1.8-3.9,4.2-7.4,7.4-10.3c1.4-1.3,2.9-2.5,4.6-3.4c0.3-0.1,0.4,0.1,0.3,0.3c-5.1,3.4-9,7.8-11.5,13.6
			C121.3,120.6,122.6,120.1,123.9,119.6z"/>
		<path class="st21" d="M127.1,139.1c1.4,2.8,1.2,5.6,0,8.4c-0.4,0-0.6-0.3-0.8-0.5c-1.8-2.3-4.8-2.2-7-0.7c-3.2,2.2-5.2,5.2-6,9
			c-0.2,1-0.1,2.2-0.7,3.1c-1.1,0.2-2.1,0.4-3.2,0.6c-0.7-0.8-0.3-1.7-0.2-2.5c0.9-6.8,3.7-12.5,9.4-16.6c1.9-1.4,4-2.3,6.4-2.2
			C125.9,137.7,126.8,138,127.1,139.1z"/>
		<path class="st22" d="M62.6,230c-0.9-2.9-1.3-5.9-1.8-8.9c-1.2-7-1.9-14-1.6-21.1c0.3-6.4,1.2-12.8,3.1-19c1.1-3.6,2.7-7,4.7-10.2
			c-0.1,2.5-1.2,4.8-1.8,7.3c-1.2,5.1-2,10.2-2.7,15.4c-0.2,1.6,0,3.2-0.4,4.8c-0.3,1.6,0.1,3.3-0.3,4.9c-0.9,3.4-0.5,6.9-0.1,10.4
			c0.2,2.6,0.5,5.2,0.3,7.9c-0.1,1.5,0.6,3,0.7,4.6c0.1,1.1-0.3,2.2,0.3,3.3C63.2,229.7,62.9,229.9,62.6,230z"/>
		<path class="st1" d="M76.7,257.8c-1.8-3.5-2.8-7.4-4-11.1c-1.6-5.1-2.9-10.3-3.6-15.6c-0.6-4.5-0.1-8.8,1.5-13.1
			c0.1-0.3,0.1-0.7,0.4-1c0.1,3.3,0.8,6.5,1.2,9.8c0.3,3.2,0.8,6.4,1.3,9.5c0.5,3.4,1,6.9,1.5,10.3
			C75.5,250.5,76.1,254.2,76.7,257.8z"/>
		<path class="st1" d="M66.6,169.8c-1.4,2.4-2.6,4.9-3.8,7.5c-0.6-1.3-0.6-2.6-0.7-3.8c-0.8-8.5,0.2-16.7,2.6-24.9
			c0.5-1.7,1.3-3.3,1.4-5c1.1,0.5,1,1.4,0.8,2.4c-1.2,5.2-1.8,10.5-1.5,15.8c0.1,2.4,0.2,4.8,0.7,7.2
			C66.2,169.4,66.1,169.8,66.6,169.8z"/>
		<path class="st23" d="M85.6,173.8c0.1,0.2,0.2,0.4,0.2,0.6c-3.1,2.7-4.7,6.3-5.5,10.2c-1.6,8.1,0.6,15.1,6.6,20.8
			c0.6,0.2,1.1,0.6,1.6,1c4,3,8.5,4.5,13.4,4.9c0.3,0,0.7,0.1,1.1-0.1c-1.8-2.6-3.1-5.5-3.6-8.6c-0.1-0.5-0.4-1.3,0.5-1.4
			c0.6,0.9,0.7,2,1,3.1c1.8,5.9,5.8,9.7,11.5,11.8c4.7,1.7,9.5,2.7,14.5,2.9c7.6,0.4,14.8-0.8,21.5-4.4c0.5-0.3,1.1-0.4,1.6-0.7
			c-0.4-1.3-1.8-1.5-2.6-2.3c2.3,0.1,5,2.7,4.1,5.8c-0.1-0.7-0.3-1.3-0.4-1.9c-0.2-0.9-0.7-1-1.4-0.4c-0.2,0.4-0.5,0.7-0.9,0.9
			c-4.3,2.4-9,3.6-13.8,4.3c-2.4,0.3-4.7,0.2-7.1,0.3c-0.3,0-0.6,0-0.9,0c-3.1-0.2-6.2-0.6-9.3-1.4c-0.4,0-0.7-0.2-1-0.3
			c-1.8-0.5-3.7-1-5.5-1.8c-0.7,0-0.1,1.1-0.9,1.1c0.2-1.4-0.4-2.2-1.7-2.7c-1.6-0.7-3-1.8-4.3-2.9c-2.5,0-5-0.5-7.6-0.8
			c-0.3,0-0.5,0.1-0.8,0c-2.5-0.7-4.9-1.7-7.1-3.2c-0.4-0.2-0.6-0.6-1.1-0.6c-0.3-0.7-0.7-1.2-1.3-1.7c-3.8-3.4-6.3-7.6-7.2-12.6
			C78.3,186.1,79.9,179.3,85.6,173.8z"/>
		<path class="st24" d="M112.5,158.4c0.1-4.6,1.8-8.5,5.3-11.5c1.1-1,2.3-1.7,3.8-1.9c2.4-0.5,4.2,0.5,5.5,2.5
			c-0.4,1.1-0.8,2.2-1.6,3c-0.4,0-0.6-0.4-0.8-0.7c-0.8-1.3-1.9-1.7-3.3-1.5c-0.5,0-0.8-0.4-1.2-0.5c-1.1-0.3-2.3,0.5-2.6,1.6
			c-0.1,0.5-0.1,1-0.2,1.5c-0.2,0.4-0.4,0.9-0.7,1.2c-0.2,0.2-0.5,0.2-0.8,0.2c-1.3,0.3-1.6,1-1,2.2c0.2,0.3,0.4,0.6,0.4,1
			c0,0.8,0.3,1.7-0.4,2.4C114.2,158.3,113.3,158.2,112.5,158.4z"/>
		<path class="st25" d="M116.5,152c0.2-0.4,0.3-0.8,0.7-1c0.5,0,0.7,0.4,1.1,0.7c0.9,0.7,1.9,0.8,2.7,0.2c0.8-0.6,1.1-1.5,0.8-2.5
			c-0.1-0.4-0.3-0.8-0.4-1.3c2.2-0.6,3.2,0.8,4.1,2.5c-1.2,2.4-3.1,4.3-4.8,6.2c-0.4,0.4-0.9,0.4-1.3,0.5c-1.5,0.3-2.9,0.5-4.4,0.7
			c0.1-0.9,0.1-1.8,0.2-2.7c0.2-0.3,0.5-0.3,0.8-0.4c1.4-0.4,1.7-1.1,0.9-2.3C116.7,152.4,116.4,152.3,116.5,152z"/>
		<path class="st22" d="M69.4,219.5c-0.7,3-1.7,6-1.3,9.1c0.4,3.5-1.9,5-4,6.8c-0.4,0.4-0.6,0.2-0.7-0.3c-0.1-0.6-0.2-1.2-0.3-1.8
			c0.6,0,0.6-0.5,0.8-1c1.3-3.5,2.7-7,4-10.6C68.3,220.9,68.6,220.1,69.4,219.5z"/>
		<path class="st1" d="M95.3,150.9c2.9-2.6,5.7-5.4,7.8-8.7c1.6-1.9,2.6-4.1,3.4-6.5c1.4-4.3,3.3-8.4,6.3-11.9
			c1.3-1.2,2.7-2.3,4.8-2.4c-5.8,2.8-8,8-9.9,13.3c-1.7,4.9-4.4,9.2-8,12.9c-1.6,1.7-3.1,3.3-5.1,4.5c-0.3,0.2-0.6,0.5-1.1,0.5
			C93.9,151.8,94.9,151.7,95.3,150.9z"/>
		<path class="st26" d="M127.1,139.1c-0.8-1.1-2.1-1.1-3.3-1c-2.6,0.3-4.9,1.5-6.8,3.3c-5.1,4.8-7.7,10.6-7.7,17.6
			c-0.3,0.1-0.5,0.2-0.8,0.3c0.2-6.9,2.5-13,7.5-17.9c2.5-2.4,5.3-4.1,9-4c1.3,0,2.4,0.5,3.7,1.1c-0.5,0.3-1-0.3-1.3,0.3
			C127.3,138.9,127.2,139,127.1,139.1z"/>
		<path class="st1" d="M213.3,246c0.6-2.2,1.3-4.5,1.9-6.7c2-6.8,2-13.9,1.8-20.9c-0.1-1.8-0.3-3.5-0.4-5.3c0.9,2.5,1.1,5.1,1.3,7.7
			c0.4,8.4-1.2,16.5-4,24.3C213.7,245.4,213.6,245.8,213.3,246L213.3,246z"/>
		<path class="st27" d="M96.3,211.4c0.3,0,0.5,0,0.6,0.3c-0.6,2.1-1.3,4.1-2.4,5.9c-1.2,1.8-2.2,1.8-3.2,0c-1.7-3-2.5-6.4-3.4-9.7
			c0.5-0.8,0.8,0.1,1.1,0.2c0.7,2.4,1.2,4.8,2.2,7c0.4,0.9,0.6,2.4,1.6,2.4c1.1,0,1.3-1.5,1.8-2.4c0.4-0.8,0.6-1.7,0.9-2.5
			C95.7,212.2,95.8,211.7,96.3,211.4z"/>
		<path class="st1" d="M104.2,269.4c-0.5,8.3-0.4,16.5,0.9,24.7c-1.8-8.2-2-16.4-1.6-24.7C103.8,269.4,104,269.4,104.2,269.4z"/>
		<path class="st28" d="M218.7,195.1c-4.8-2.1-10-2.1-15-2.7c-0.1,0-0.1-0.2-0.3-0.5C208.8,191.9,213.9,192.7,218.7,195.1z"/>
		<path class="st1" d="M172,278.9c-0.1-0.1-0.2-0.2-0.3-0.3c1.5-1.8,3.1-3.5,4.6-5.3C175.2,275.5,173.7,277.2,172,278.9z"/>
		<path class="st1" d="M131.2,107.2c-0.1-0.1-0.2-0.2-0.3-0.3c2-1.5,4.2-2.5,6.5-3.4C135.3,104.7,133.2,105.9,131.2,107.2z"/>
		<path class="st11" d="M231,139.1c-0.7,1.1-1.6,1.9-2.7,2.7C228.8,140.4,229.6,139.4,231,139.1z"/>
		<path class="st11" d="M233.5,136.1c-0.5,0.8-1.1,1.7-1.9,2.4C231.8,137.3,232.2,136.4,233.5,136.1z"/>
		<path class="st1" d="M213.3,246c-0.2,1.4-0.8,2.6-1.5,3.8C212.2,248.5,212.4,247.1,213.3,246C213.3,246,213.3,246,213.3,246z"/>
		<path class="st11" d="M228.4,141.7c-0.7,0.7-1.4,1.3-2.4,1.6C226.7,142.7,227.1,141.6,228.4,141.7z"/>
		<path class="st1" d="M251.1,212.2c0.7,0.6,1.2,1.3,1.3,2.2C251.7,213.8,250.9,213.3,251.1,212.2z"/>
		<path class="st11" d="M234.8,134.5c-0.2,0.5-0.6,0.8-0.9,1.1C233.6,134.8,233.7,134.7,234.8,134.5z"/>
		<path class="st14" d="M50.5,394.7c7-6.9,15.9-10.7,24.5-14.9c8.7-4.2,17.1-8.8,24.8-14.6c10.9-8.1,19.8-18.1,26.5-29.9
			c3.3-5.9,6-12,8.2-18.4c0.1-0.2,0.2-0.4,0.2-0.6c0.1-0.3,0.3-0.7-0.2-0.9c-0.4-0.1-0.5,0.3-0.6,0.6c-0.6,1.7-1.3,3.5-1.9,5.2
			c-0.1,0.2-0.2,0.5-0.4,1c-0.7-1.8-1.3-3.4-1.9-5c-1.9-5-3.5-10.2-4.8-15.4c-0.1-0.2,0-0.4-0.1-0.7c3.3-1.5,6.5-3.2,9.8-4.7
			c-0.9,1-1.8,2.1-2.9,3.2c4.6-0.8,8.9-2.1,13.2-3.5c3.2-1.1,6.4-2.3,9.6-3.5c0.5-0.2,1-0.2,1.5-0.2c12.9,0.2,25.7-1.1,38.4-3.8
			c2-0.4,4-1,6-1.7c0.7-0.2,1.3-0.2,2-0.2c14.7,0,27.9-4.3,39.3-13.9c5.9,0,11.9,0,17.8,0.1c8,0.2,15.9,0.5,23.8,0.9
			c5.6,0.3,11.3,0.8,16.9,1.2c0.5,0,1-0.2,1.4-0.5c7.8-4.7,16.3-7.6,25.3-8.8c15.2-2.1,29.5,0.3,42.2,9.4c9.7,7,16.5,16.1,20.3,27.5
			c0.1,0.4,0.2,0.9,0.3,1.3c1,4,1.4,8.1,1.1,12.3c-0.4,5.5-1.3,11-2.7,16.4c-2.1,8.5-5.1,16.8-7.2,25.3c-1,4.2-1.9,8.5-2,12.9
			c-0.3,7.3,1.5,14.1,4.3,20.7c1,2.4,2.2,4.8,3.4,7.2c3.7,7,6.2,14.4,6.8,22.3c0.6,8.6-0.2,16.9-4.5,24.6c-0.4,0.7-0.7,1.4-1.4,1.7
			c-5.5,0.3-10.8-0.2-15.9-2.4c-7.1-3.2-11.4-8.9-13.7-16.2c-0.3-0.8-0.7-1.7-0.6-2.6c1.2-2.6,0.4-5-0.6-7.4
			c-1.8-4-4.4-7.4-7.3-10.6c-8.6-9.8-18.6-18.1-28.9-26.1c-9.2-7.2-16.9-15.7-22-26.4c-3.1-6.4-4.8-13.1-5.4-20.2
			c-0.4-5.8,0.3-11.4,1.6-16.9c-0.8,0.9-1.5,2.5-1.8,4.6c-1.1,5.8-1,11.6-0.1,17.4c0.5,3.1,1.3,6.1,2.2,9.1c-1.1,1-2.5,0.7-3.7,0.8
			c-6.3,0.8-12.6,2-18.8,3.5c-10,2.4-19.9,5.4-29.6,8.8c-5.1,1.8-10.3,3.3-15.7,3.9c-4.2,0.5-8.3,0.5-12.5,0.2
			c-6.4-0.4-12.6-1.7-18.8-3.3c-3.6-1-7.1-2.1-10.5-3.5c-0.5-0.2-1.1-0.3-1.4-0.9c0.9-2.4,2-4.7,2.3-7.2c0.2-1.4,0.3-2.7,0.4-4.1
			c-0.3-0.5-0.5-0.3-0.6,0.1c-3.2,6.8-7.9,12.5-13,18c-10.3,11.1-22.6,19.5-36.2,25.8c-12.6,5.9-25.8,9.6-39.4,11.8
			c-0.7,0.1-1.3,0.2-2,0.3c-1,0.2-1.3,1-1.3,1.9c-0.1,2.2-0.1,4.4-0.2,6.6c0.2,1.5-0.4,2.1-1.9,2.4c-5.5,1.4-11,2.7-16.7,2.4
			c-5.2-0.3-10.4-0.9-15.4-2.9c-7.4-2.9-10.7-9.5-9.8-17.1C50.2,396.3,50.2,395.5,50.5,394.7z"/>
		<path class="st29" d="M391.5,146.9c-3.5-3.3-5.4-7.5-6.5-12.1c-0.9-3.7-1.4-7.5-1.7-11.3c-0.3-4.1-0.2-8.2,0.1-12.2
			c0.5-8.9,3.5-16.8,8.7-24.1c2.8-4,5.9-7.8,9.3-11.3c4.8-4.9,10.2-9.2,16.3-12.5c4.1-2.2,8-4.7,10.7-8.6c4.2-5.8,3.9-12,1.3-18.4
			c-0.1-0.2-0.2-0.5-0.3-0.7c0,0,0-0.1,0-0.3c2.3,0.6,4.3,1.6,6.2,2.8c5.8,3.7,9.6,9,12.1,15.3c1,2.5,1.8,5.1,2.5,7.7
			c1.1,4,0.4,7.7-1.2,11.4c-1.4,3.2-3.5,5.9-5.9,8.4c0.1,0.1,0.2,0.2,0.2,0.2c1.3-1.3,2.7-2.5,3.8-3.9c2.9-3.7,4.7-7.8,4.4-12.7
			c0-0.9,0.5-1.6,0.8-2.4c0.8-1.8,1.7-3.5,2.6-5.5c2,3.5,3.5,6.8,4.7,10.4c1.2,4,1.9,8,1.8,12.2c-0.2,5.4-1.3,10.7-2.8,15.9
			c-1.2,4-2.4,7.9-4.5,11.5c-1.7,2.8-3.5,5.5-6.2,7.5c-0.2,0.2-0.4,0.4-0.6,0.6c-0.1,0.1-0.1,0.2-0.3,0.6c2.6-1.5,4.5-3.5,6.1-5.6
			c1.7-2.3,3.2-4.8,4.2-7.5c0.3-0.9,1.2-1.3,1.8-1.9c2-1.9,3.9-3.8,5.9-5.9c-0.1,1.3-0.1,2.7-0.3,4c-0.8,5.9-1.8,11.8-3.8,17.5
			c-2.1,6.1-5,11.8-9,16.9c-3.9,4.9-8.6,8.9-14.2,11.8c-4.8,2.6-9.9,4.2-15.3,5.2c-5.3,1-10.6,1.1-15.9,1.1c-1,0-1.9-0.3-2.8-0.3
			c0.2-2.7-0.2-5.1-2.7-6.7c0.1-3.5,1.1-6.7,2.5-9.8c2.7-5.7,6.6-10.1,12.3-12.9c3.7-1.9,6.7-4.8,9.6-7.8c1.6-1.7,3.2-3.4,4.2-4.8
			c-3.9,4.8-8.4,9.7-14.5,12.9c-5.5,2.9-9.3,7.3-11.8,12.9c-1.3,2.8-2.1,5.6-2.5,8.7c0,0.3-0.1,0.5-0.4,0.7c-1.6-0.6-3.2-0.7-4.8,0
			c-0.6-1-0.5-2.2-0.6-3.3c-0.3-3.7-0.3-7.4-0.1-11.2c0.4-5.6,1.5-11,3.5-16.1c1.9-4.7,4.7-8.7,8.2-12.4c7-7.4,13.5-15.2,18.6-24
			c2.1-3.6,3.8-7.4,3.7-11.7c0.1,3.1-0.9,5.9-2.2,8.7c-3.1,6.6-7.6,12.3-12.3,17.8c-3.4,4-7,7.8-10.4,11.9
			c-4.5,5.3-7.1,11.7-8.4,18.5c-1.1,5.9-1.4,11.9-0.9,18c0.1,1.4,0.7,2.8,0,4.2C393.4,144.7,392.5,145.8,391.5,146.9z"/>
		<path class="st14" d="M385.2,291.4c-2.5-3.9-5.3-7.5-8.7-11c2.8-0.4,5.5-0.7,8-1.3c14.4-3.7,23.2-12.8,26.8-27.1
			c1.2-4.9,1-9.9,0.5-14.9c-1.7-17.1-8.2-32.6-15.9-47.7c-3.4-6.7-5.9-13.7-6.8-21.1c-0.8-6.2-0.7-12.4,1.9-18.3
			c1-2.2,2.3-4.2,4.6-5.3c0.5-0.2,1-0.4,1.6-0.4c1.3-0.4,2,0.4,2.6,1.4c1,1.7,0.9,3.6,0.7,5.5c-0.2,1.5-0.7,3-1.3,4.4
			c-1.3,3.2-2,6.6-2,10c0,3.5,0.7,6.9,1.6,10.2c2.2,8,5.5,15.5,9.1,22.9c3.5,7.3,6.8,14.7,9.4,22.4c2.4,7.1,4.2,14.3,4.8,21.8
			c0.6,7.9-0.2,15.6-3.3,23c-3.6,8.7-9.1,15.9-17.3,20.7c-4.6,2.7-9.5,4.2-14.7,5C386,291.6,385.6,291.7,385.2,291.4z"/>
		<path class="st18" d="M387.4,447.3c2.9-4.5,4.6-9.5,5.3-14.8c0.6-4.1,0.5-8.2,0.1-12.3c-0.4-4.2-1.3-8.3-2.7-12.3
			c-1.4-4.3-3.6-8.2-5.6-12.2c-2.2-4.5-4.1-9.2-5.2-14.1c-1-4.5-1.2-9.1-0.8-13.7c0.7-6.9,2.7-13.6,4.6-20.2
			c2.1-7.2,4.5-14.5,5.8-21.9c0.9-4.8,1.4-9.7,1.2-14.7c-0.1-2.4-0.5-4.7-0.8-7c1,2.4,1.4,4.9,1.8,7.4c0.7,4.2,1,8.4,0.9,12.6
			c-0.3,8-1.6,15.9-3.6,23.7c-1.2,4.8-2.7,9.5-3.5,14.3c-1.5,8.8-0.4,17.2,2.7,25.5c2,5.5,4.8,10.7,7.4,16c3.1,6.3,5,12.9,5.7,19.9
			c0.7,7.6,0.2,15-2.4,22.1C394.9,446.7,391.2,447.1,387.4,447.3z"/>
		<path class="st18" d="M385.2,291.4c10-1.3,18.7-5.3,25.3-13.1c5.8-6.8,9.5-14.7,10.7-23.7c0.8-6.1,0.5-12.2-0.5-18.3
			c-1.7-10.2-5.4-19.7-9.5-29.2c-3.2-7.3-7-14.3-9.8-21.7c-2-5.3-3.8-10.7-4.5-16.4c-0.6-4.8,0.1-9.4,1.9-13.9
			c1.1-2.7,1.8-5.5,1-8.4c-0.4-1.6-1.3-2.4-2.7-2.6c2.7-0.7,5.5,1.5,5.7,4.4c0.1,1.4-0.2,2.8-0.7,4.1c-1.8,5-2.7,10.1-2.2,15.3
			c0.4,5.5,1.8,10.9,3.6,16.1c2.2,6.3,5,12.3,7.8,18.3c4.6,9.7,8.6,19.5,11,30c1,4.2,1.6,8.5,1.9,12.9c0.5,7.8-0.5,15.3-3.5,22.5
			c-5.2,12.5-13.7,21.4-27.3,24.8c-1.8,0.5-3.7,0.8-5.5,1.2c-0.9,0.2-1.6,0.1-1.9-0.9C385.8,292.3,385.4,291.8,385.2,291.4z"/>
		<path class="st30" d="M394.7,143.9c-0.4-4-0.7-8-0.5-11.9c0.2-7.3,1.5-14.4,4.6-21.1c1.5-3.3,3.5-6.2,5.9-8.9
			c6.4-7.2,13-14.3,18.3-22.3c2.6-3.9,4.9-8.1,5.6-12.8c0.1-0.7,0.2-1.5,0.3-2.5c0.5,3.5-0.5,6.4-1.8,9.2
			c-2.7,5.8-6.4,10.9-10.3,15.9c-4.1,5.4-9,10.1-13.3,15.4c-3.1,3.8-5,8.2-6.3,12.8c-1.8,6.3-2.3,12.8-2.2,19.3
			c0.1,2.3,0.3,4.5,0.5,6.8C395.2,143.7,395,143.8,394.7,143.9z"/>
		<path class="st30" d="M400.3,143.7c0.6-6.4,3.1-11.9,7.2-16.8c2.6-3.1,5.9-5,9.3-6.9c4.3-2.5,7.7-6.2,11-9.8
			c0.8-0.8,1.5-1.8,2.3-2.6c-0.8,1.6-2,3-3.2,4.3c-3.7,4.4-7.9,7.9-13,10.7c-5.6,3-9,8.1-11.2,13.9c-0.8,2.1-1.3,4.4-1.6,6.6
			c0,0.3-0.1,0.5-0.3,0.7C400.7,143.9,400.5,143.8,400.3,143.7z"/>
		<path class="st29" d="M235.4,189.8c2.2,1,4.3,2.2,6.5,3c5.1,1.8,10.4,2.8,15.9,2.6c1.5,2,3.4,3.4,5.3,5c7,6,12.1,12.9,13.5,22.4
			c1,6.6-0.3,12.4-3.7,18c-2.6,4.4-5.4,8.7-8.6,12.7c-1.8,2.2-3.6,4.5-5.9,6.6c0.4-1.9,0.6-3.6,0.9-5.3c0.5-3.1,0-6-1.1-8.8
			c-0.2-0.5-0.2-0.9-0.1-1.4c0.7-3.2,1.3-6.5,1.1-9.8c-0.4-8-2.7-15.5-6.9-22.3c-1.8-3-4-5.6-6.4-8.1
			C241.7,199.9,238.1,195.2,235.4,189.8z"/>
		<path class="st18" d="M230.8,175c0.5,1.3,1.7,2.1,2.7,3c2.7,2.3,5.4,4.4,8.5,6c3.5,1.8,7.1,3.2,11.1,3.7
			c5.8,0.8,10.9-0.8,15.5-4.3c4.2-3.3,7.5-7.3,10.4-11.7c2.9-4.4,5.2-9.1,6.7-14.2c1.7-5.6,2.1-11.2,0.8-16.9
			c-0.1-0.3-0.1-0.6-0.1-0.9c1.7,3.2,2.5,6.8,2.9,10.4c1.2,10.7-0.9,20.8-6,30.2c-4.4,8.2-11.3,12.9-20.5,14.2
			c-9.9,1.4-19.1-0.4-27.6-5.6c-0.1-0.1-0.3-0.1-0.4-0.1c-2.3-4.2-3.8-8.6-4.9-13.2C230,174.9,230.3,174.8,230.8,175z"/>
		<path class="st1" d="M258.9,195.5c7.5-0.4,14.4-2.6,20-7.9c4.5,14.3,4.1,28.4-1.1,42.4c-0.3-2.2-0.1-4.4-0.4-6.6
			c-1-6.1-2.8-11.8-6.9-16.6c-3.2-3.7-6.9-6.8-10.4-10.1C259.6,196.3,259.2,195.9,258.9,195.5z"/>
		<path class="st31" d="M230.8,175c-0.4,0.1-0.7,0.2-0.9,0.5c-0.3-0.3-0.2-0.7-0.2-1.1c2.4,0,4-1.6,5.2-3.4
			c4.2-6.3,8.1-12.8,11.6-19.6c2.9-5.5,7.3-9.2,13.5-10.4c2.6-0.5,5.1,0.2,7.6,0.7c4,0.9,7.4,2.7,9.7,6.2c-0.6,0.2-0.7,0.3-1.3-0.4
			c-1.5-1.7-3.3-2.8-5.3-3.8c-0.7-0.3-1.5-0.5-2.1-0.8c1.7,1.7,3.4,3.5,4.1,6c1.8,4.4,2.8,8.9,2.5,13.6c-0.5,6.6-2.8,12.6-8,16.9
			c-5.3,4.3-11.1,4.3-17.1,1.8c-5.1-2.1-9.5-5.4-13.5-9.2c-0.6-0.6-0.9-0.6-1.5,0.1C233.8,173.6,232.6,174.7,230.8,175z"/>
		<path class="st17" d="M36.4,429.6c-0.7-3.7,0.3-7.1,1.7-10.4c-0.8,0.5-1,1.4-1.5,2.1c-1.3,0.1-1.2-0.9-1.3-1.7
			c0.2-2.4,1-4.5,1.9-6.7c2.3-5.5,5.7-10.2,9.7-14.5c0.5-0.5,0.9-1,1.3-1.5c0.2-0.2,0.3-0.5,0.7-0.4c0.3,0.1,0.3,0.5,0.3,0.7
			c0,0.9,0,1.7,0,2.6c0.1,7.4,3.7,12.4,10.3,15.3c3.9,1.7,8.1,2.2,12.3,2.7c7,0.9,13.8-0.2,20.5-2.1c1.4-0.4,1.4-0.4,1.1,1
			c-0.9,4.6-3.4,8.6-5.6,12.6c-3,5.4-6.6,10.4-11.7,14.1c-3.6,2.7-7.7,4.3-12.3,4.1c-4.2-0.2-8-1.6-11.4-3.9
			c-1.8-1.2-2.6-3.4-3.2-5.5c-1.1-3.6-0.8-7.2,0.2-10.7c0.1-0.3,0.2-0.7,0.3-1c0,0,0-0.1-0.1-0.3c-1.6,3.8-2.1,7.6-1.4,11.5
			c-0.3,1.2-0.1,2.2,0.5,3.3c0.7,1.4,0,2.3-1.7,2.4c-0.3,0-0.7,0-1-0.1c-0.4-0.4-0.8-0.8-1.3-1c-3.9-1.3-5.7-4.5-6.9-8.2
			c-0.4-1.2-0.4-2.5-0.8-3.7C36.8,430,36.6,429.8,36.4,429.6z"/>
		<path class="st32" d="M93.9,412.3c0.1-1.9-0.1-3.9,0.1-5.8c0-0.7-0.3-1.3,0.1-2.2c0.3-0.8,0.8-0.9,1.4-1c8.6-1.2,17-3.2,25.2-5.8
			c12.4-3.9,24.1-9.5,34.8-17c4.5-3.1,8.7-6.6,12.7-10.3c5.4-5,10-10.5,14.1-16.5c1.6-2.3,3.1-4.6,4.1-7.4c0.5,0.5,0.3,0.9,0.3,1.3
			c-0.3,0-0.4,0.2-0.5,0.5c-0.7,6.9-3.9,12.7-8,18.1c-6.4,8.4-14.6,14.7-23.5,20.3c-12.9,8.1-26.8,14-41.1,19.1
			c-5.2,1.8-10.2,4.2-14.7,7.5c-1.8,1.4-3.5,3-5,4.6c0.9-3.4,1-6.9,0.4-10.4C94,409.1,94.6,410.8,93.9,412.3z"/>
		<path class="st17" d="M36.4,429.6c0.8,0.1,1,0.7,1,1.4c0.2,3.2,1.5,6,3.3,8.4c0.9,1.2,2.4,1.8,3.8,2.4c0.6,0.2,1.3,0.4,1.2,1.3
			c-4.8-0.7-7.3-4-8.6-8.3C36.7,433,36.4,431.3,36.4,429.6z"/>
		<path class="st17" d="M46.9,443.1c1.9-0.8,2-1.1,1.1-2.8c-0.5-1-0.7-2,0.1-2.9c0.6,2,1.3,4,2.8,5.9
			C49.4,443.2,48.1,443.5,46.9,443.1z"/>
		<path class="st17" d="M35.3,419.5c0.6,0.4,0.3,1.6,1.3,1.7c-0.5,1.9-1.3,3.8-1.2,5.9C34.6,424.6,34.7,422.1,35.3,419.5z"/>
		<path class="st33" d="M336.5,451.5c-6.1-5.9-7.1-12.9,0-18.3c4.7-3.6,10.2-5.5,16-6.3c1.2-0.2,2.6-0.7,3.5-0.1
			c0.9,0.6,0.8,2.1,1.2,3.2c3.8,10.5,11.1,16.6,22.2,18c5.8,0.7,11.5,0.2,17.1-1c0.4-0.1,0.8-0.2,1.4-0.3c-1.7,4-3.9,7.5-7,10.4
			c-3.8,3.6-8.6,5-13.5,6.2c-4.1,1-8.3,1.6-12.5,1.7c-8.1,0.2-15.8-1.1-22.6-6c-0.8-0.6-1.5-1.3-2.2-1.9c-3.8-3.5-2.9-8.3-0.8-12.7
			c1.4-2.8,3.1-4.2,6.8-6.3C341.6,438.6,337.8,443.9,336.5,451.5z"/>
		<path class="st34" d="M170.9,375.8c1.4,0.9,2.9,1.8,4.3,2.8c5.3,4,10.8,7.9,17.1,10.4c4.6,1.8,9.4,3.1,14.3,3.5
			c0.9,0.1,1.4,0.4,1.7,1.3c1.9,7.8,4.7,15.3,6.2,23.2c0.7,3.6,1.2,7.3,0.6,11c-0.1,0.5-0.1,1.1-0.6,1.4c-2,0.9-4.2,1.3-6.4,1.6
			c-5.6,0.8-11-0.1-16.1-2.5c-5.4-2.5-9.7-6.2-13.6-10.6c-0.5-0.6-1-1.2-1.5-1.8c-0.9-3.6-2.4-6.9-3.7-10.3
			c-3-7.5-6.2-14.9-8.9-22.5c-0.4-1.2-0.2-1.8,0.8-2.6C167,379.1,168.9,377.4,170.9,375.8z"/>
		<path class="st17" d="M206.5,432c2.5-0.4,5-0.7,7.4-1.5c2.6-0.8,5.1-1.9,7.7-3.2c0,1.7-0.4,3.1-0.8,4.6
			c-2.1,6.8-6.6,11.4-12.8,14.3c-6.5,3-13.4,5.2-20.6,5.8c-7.4,0.6-13.9-1.2-19.7-5.8c-0.7-0.5-1-1.1-1.1-1.9
			c-0.2-1.8-0.4-3.6,0.1-5.3c0.6-0.4,0.9,0.1,1.3,0.3c1,0.7,1.9,1.5,2.9,2.2c5,3.9,10.6,5.7,16.9,4.6c5.4-0.9,10.5-2.9,14.9-6.2
			c2.1-1.5,3.1-3.8,4-6.1c0.2-0.6,0.3-1.2,0.8-1.7C207,432.3,206.7,432.3,206.5,432z"/>
		<path class="st35" d="M206.5,432c0.9-0.1,1,0.3,0.7,1.1c-1.4,4.7-4.3,8-8.9,9.9c-3.2,1.4-6.3,2.7-9.7,3.4
			c-6.6,1.3-12.4-0.2-17.7-4.2c-1.5-1.1-2.7-2.5-4.4-3.2c0.3-3.4,2-6,4.1-8.5c0.3-0.3,0.7-0.6,1.1-1c-0.5-0.2-0.7,0.1-0.9,0.3
			c-4.3,4-6.2,8.9-5.2,14.8c0.2,1-0.4,1.1-1,1.1c-2.9,0.2-5.1-1-6.7-3.3c-2.6-3.9-2.1-7.9-0.1-11.8c3.2-6.2,8.3-10.3,14.7-12.7
			c3.5-1.3,3.5-1.2,6,1.5c4.7,5,10,9.2,16.7,11.3C199,431.9,202.7,432.1,206.5,432z"/>
		<path class="st32" d="M214.4,429.3c0.4-2.5,0.6-5,0.3-7.6c-0.3-3.7-1.1-7.3-2-10.9c-1.5-5.7-3.2-11.4-4.8-17.2
			c-0.2-0.6-0.5-0.8-1-0.8c-10.7-0.8-19.9-5.1-28.3-11.4c-1.2-0.9-2.5-1.6-3.3-2.9c3.4,1.6,6.7,3.5,10.2,4.8
			c6.4,2.5,12.9,4.1,19.7,4.9c3.3,0.4,6.5,0.5,9.8,0.6c0.8,8.1,3.5,15.7,5.5,23.5c1.1,4.5,1.7,9.1,1.6,13.7
			C219.5,427.5,217.1,428.6,214.4,429.3z"/>
		<path class="st15" d="M184.1,381.8c-4.4-1.8-8.6-3.9-12.4-6.8c4.7-4.5,8.8-9.4,11.9-15.1c0.6-0.3,1.1,0,1.7,0.2
			c7.9,3,16,5.3,24.3,6.4c9.5,1.3,19,1,28.3-1.9c4.8-1.5,9.6-3.3,14.5-4.8c11.2-3.5,22.5-6.6,34.1-8.5c2.6-0.4,5.1-0.8,7.8-0.9
			c0.4,0,0.8-0.2,1.1,0.2c0.6,1.4,1.2,2.8,1.7,4.2c-0.3,0.5-0.9,0.6-1.4,0.7c-9.9,2.4-19.3,6.4-28.5,10.7
			c-9.7,4.5-19.4,9.1-29.6,12.3c-7.1,2.2-14.4,4.1-21.8,4.7c-7,0.6-14,0.5-21,0.1c-2.2-0.1-4.4-0.3-6.6-0.5
			C186.7,382.6,185.4,382.2,184.1,381.8z"/>
		<path class="st17" d="M184.1,381.8c9,1.6,18,1.5,27.1,1.3c5.6-0.1,11.2-1,16.7-2.4c9.4-2.2,18.4-5.5,27.2-9.4
			c8.7-3.9,17.3-8.2,26.2-11.6c5.1-2,10.4-3.6,15.8-4.9c2.6,5.3,5.6,10.3,9.4,14.9c0.1,0.1,0.2,0.2,0.3,0.3
			c-0.9,0.6-1.9,0.4-2.8,0.4c-9.1,0.6-17.9,2.4-26.7,4.5c-11.9,2.8-23.6,6.3-35.4,9.6c-6.3,1.8-12.7,2.7-19.2,3.2
			c-5.8,0.5-11.7,0.4-17.5-0.3C197.8,386.5,190.7,384.8,184.1,381.8z"/>
		<path class="st36" d="M268.9,380.2c0.2-0.8,0.3-1.6,0.5-2.4c5-1.5,10.2-2.6,15.4-3.7c4.8-1,9.7-1.8,14.5-2.4
			c2.7-0.3,5.4-0.4,8.2-0.6c4.3,4.9,9.1,9.3,14.3,13.2c0.9,0.6,1,1.1,0.4,2c-5.8,8.6-11.2,17.4-15.7,26.8
			c-2.8,5.9-5.3,11.9-6.9,18.2c-1.6,0.9-3.4,1.2-5.2,1.3c-2.6,0.2-5.3,0.1-8,0c-0.2,0-0.4-0.1-0.6-0.2c0.8-0.5,1.1-1.2,1.3-2.1
			c2.4-12.3,7-23.7,13.3-34.4c2.5-4.3,5.2-8.5,8.2-12.6c0.8-1.1,0.7-1.2-0.5-1.5c-6.7-1.6-13.4-3.1-20.3-3.5
			c-5.9-0.3-11.9-0.2-17.6,2C269.8,380.3,269.4,380.5,268.9,380.2z"/>
		<path class="st10" d="M295.3,350.5c-19.2,1.8-37.4,7.6-55.5,13.8c-8.3,2.9-16.9,3.6-25.6,3c-10.4-0.8-20.4-3.5-30.1-7.2
			c-0.2-0.1-0.3-0.1-0.5-0.1c0.2-0.3,0.3-0.5,0.5-0.8c6.7,2.7,13.6,4.7,20.7,6.1c6.2,1.2,12.4,1.7,18.7,1.4
			c7.1-0.4,13.9-2.3,20.6-4.7c8.6-3.1,17.4-5.6,26.3-7.9c7.2-1.8,14.5-3.2,21.9-4.1c0.9-0.1,1.8-0.2,2.7-0.3
			C295.2,349.9,295.4,350.2,295.3,350.5z"/>
		<path class="st14" d="M268.9,380.2c6.1-2.5,12.5-2.8,18.9-2.4c5.2,0.3,10.3,1.3,15.4,2.5c1.8,0.4,3.6,0.9,5.5,1.2
			c1.1,0.2,1.4,0.3,0.6,1.4c-4.7,6.4-9,13.2-12.5,20.3c-4.5,8.9-7.7,18.2-9.5,28c-0.2,1-0.6,1.2-1.4,1.1c-6-0.5-11.7-2.1-17.2-4.3
			c-3.8-1.6-7.1-4-9.6-7.3c-1.8-2.4-2.9-5-3.9-7.8c2.7-2.1,4.2-5,5.6-7.9c3.2-6.9,5.3-14.3,7.3-21.6
			C268.3,382.2,268.6,381.2,268.9,380.2z"/>
		<path class="st17" d="M298.9,432.5c-1.5,3.2-3.6,5.7-6.1,7.8c-6.4,5.3-13.9,8-22.1,9.3c-4.3,0.7-8.6,0.8-12.9,0.3
			c-5.1-0.6-9.9-2.2-14.2-5.1c-2.5-1.7-2.8-4-2.7-6.6c0.2-3.3,1.8-6,4-8.3c0.5-0.5,1-1,1.4-1.5c-4.5,2.3-6.9,7.8-6,14
			c-3.3-1.7-5.6-4.1-6.6-7.5c-1.2-4.1,0.1-7.7,2.7-10.9c3.5-4.2,8.1-6.8,13-8.9c1.3-0.6,2.6-1,3.9-1.5c0.5-0.2,0.9-0.4,1.2,0.4
			c3,9.2,9.7,14.1,18.6,16.7c5.8,1.7,11.7,3,17.7,3C293.6,433.6,296.1,433.2,298.9,432.5z"/>
		<path class="st37" d="M179.9,146.6c-2.2-2.2-5-3.7-7.9-5c4.4-2.6,10-2.2,13,3c0.6,1.1,1.1,2.3,1.6,3.4c0.6,2.6,1,5.2,1,7.8
			c0,0.6,0.1,1.2-0.3,2C185.8,153.3,183.5,149.5,179.9,146.6z"/>
		<path class="st38" d="M153.6,183.8c1.3-0.7,2.4-0.6,3.5-0.5c0.8,0,0.9-0.2,0.6-0.9c-1-2.4-1.4-4.9-1.3-7.4
			c0.1-4.8,1.5-9.4,4.1-13.5c1.9-2.9,4.1-5.3,7.3-6.9c6.1-3.1,12.2-0.6,14.5,5.8c2.5,6.8,1.1,13.3-2.2,19.4
			c-1.8,3.3-4.2,6.1-7.5,7.9c-0.6,0.3-0.7,0.6-0.1,1c0.7,0.6,1.2,1.3,1.6,2.2C168.4,185.5,161.4,183.9,153.6,183.8z"/>
		<path class="st39" d="M133.4,127.4c0.3,0.4,0.5,0.7,0.8,1.1c0.6,0.8,0.1,0.9-0.5,0.9c-5.9-0.2-10.7,2.1-14.9,6
			c1.3-5.5,6.3-10.4,11.2-9.6C131.3,126,132.4,126.7,133.4,127.4z"/>
		<path class="st40" d="M100.2,165.2c-1.6,0-3.2,0-4.8,0C97.1,164.9,98.7,164.9,100.2,165.2z"/>
		<path class="st17" d="M150.1,213.8c-2.7,2-5.9,3.3-9.1,4.1c-11.1,2.7-21.8,1.9-32.1-3.3c-5.5-2.7-8-7.7-9-13.5
			c-1-1.4-0.8-2.8-0.5-4.4c2,1.4,4,3,6.2,4.2c5.4,3.1,11,5.7,16.8,8c5.3,2,10.8,3.6,16.4,4.5C142.5,214.1,146.3,214,150.1,213.8z"/>
		<path class="st17" d="M99.3,196.8c0.2,1.5,0.4,2.9,0.5,4.4c-0.5,0.4-0.2,0.9-0.1,1.3c0.3,1.6,0.8,3.2,1.4,4.7
			c0.7,1.5,1.5,2.9,2.6,4.3c-4.2,0.7-12.9-1.9-16.8-6.1c0.3-0.1,0.7-0.3,1-0.2c3.8,0.3,6.1-2,8.3-4.5
			C97.4,199.5,98.3,198.1,99.3,196.8z"/>
		<path class="st41" d="M110.5,218.1c0.3-0.4,0.2-0.8,0.2-1.2c0-0.5,0.2-0.5,0.6-0.3c0.8,1.4,0.1,2.8,0,4.2
			c-0.4,3.1-1.6,6.1-3.5,8.6c-1.2,1.6-2.5,3.2-3.5,5.1c-0.9,1.9-0.9,3.6,0.6,5.2c0.2,0.2,0.5,0.5,0.7,0.7c9.8,6.8,20,6.7,29.5-1.2
			c1.6-1.4,3.1-2.9,4.5-4.5c1.2-1.3,2.2-2.7,3.1-4.2c2.6-4.1,4.4-8.5,5.6-13.2c0.2-0.7,0.3-1.4,0.8-2c0.3-0.2,0.5-0.4,0.8-0.6
			c-2.2,10.5-6.7,19.6-15.4,26.2c-5.1,3.8-10.8,5.9-17.2,5.1c-4.4-0.6-8.5-2.2-12.1-4.9c-2.7-2-3.2-4.3-1.8-7.4
			c0.6-1.3,1.4-2.6,2.4-3.7C108.9,226.8,110.1,222.7,110.5,218.1z"/>
		<path class="st42" d="M272.6,149.1c-1.4-2.3-2.6-4.7-4.9-6.4c2.8,0.5,5.2,1.6,7.3,3.4c0.7,0.6,1.2,1.6,2.2,1.9
			c0.8,1.1,1.3,2.2,1.5,3.8C276.9,150.3,274.8,149.4,272.6,149.1z"/>
		<path class="st43" d="M101.5,134.1c0,1.8-0.1,3.7,0,5.5c0.1,1.2-0.4,1.7-1.5,1.9c-6.2,1.2-12.1,0.2-17.6-2.8
			c-5.3-2.9-9.7-6.7-12.4-12.2c-3.5-7-2.1-15.6,3-20.7c2.3-2.3,5.2-3,8.2-3.1c8.8-0.4,14.8,4,17.8,12.8
			C101.1,121.5,101.6,127.7,101.5,134.1z"/>
		<path class="st40" d="M97.4,165.8c3.9,0,7.4,0.1,10.6,1.2c4.8,1.7,9.6,3.7,12.9,7.9c0.4,0.5,0.7,1.2,0.9,1.8
			c0.5,1.3,0.1,2.1-1.2,2.6c-2.9,1.2-6.1,1.5-9.1,1.9c-2.2,0.3-4,1.2-5.6,2.7c-1.3,1.2-2.5,2.5-3.7,3.7c-1.9,1.9-5.2,1.2-6.2-1.3
			c-0.6-1.5-1.2-3-1.9-4.4c-1-2.1-2.9-3.2-4.7-4.5c-2-1.5-3.5-3.1-2.9-5.8c0.6-3,2.6-4.5,5.4-5.1C93.8,166,95.8,165.6,97.4,165.8z"
			/>
		<path class="st44" d="M149,215.5c-1.2,5.5-3,10.7-6.2,15.4c-0.6,0.1-1-0.3-1.4-0.6c-3.8-2.4-7.7-3.5-12.2-2.2
			c-1.7,0.5-3.5,0-5.1-0.5c-0.4-0.3-0.2-0.6,0-0.8c1.5-1.8,2.4-3.9,3.3-5.9c0.1-0.3,0.4-0.5,0.6-0.7
			C135.4,220.3,142.4,218.9,149,215.5z"/>
		<path class="st45" d="M104.8,240c-1.4-0.9-1.9-3.3-1.1-5.2c0.9-2.1,2.4-3.9,3.7-5.7c2.1-2.8,3.2-5.9,3.6-9.4
			c0.1-1.1,0.3-2.1,0.3-3.2c1.8,0.8,3.7,1.4,5.6,1.9c0.7,0.9,1,2.1,1.4,3.2c0.7,2,1.8,3.8,2.8,5.7c-0.1,0.6-0.7,0.7-1.1,0.8
			c-5.2,1.2-9.1,4.3-12.3,8.4c-0.7,1-1.5,1.9-2.1,2.9C105.4,239.7,105.2,240.1,104.8,240z"/>
		<path class="st46" d="M117.7,218.7c3.1,0.6,6.2,1.1,9.4,1.4c0.1,0.1,0.2,0.3,0.2,0.5c-0.8,2.4-1.9,4.6-3.7,6.5
			c-0.7,0.8-1.7,0.8-2.4,0c-1.9-2.3-3-5.1-3.7-8C117.5,219,117.6,218.8,117.7,218.7z"/>
		<path class="st46" d="M96.3,211.4c-0.7,2-1.2,4-2.4,5.8c-0.8,1.3-1.3,1.4-2.1,0c-1.5-2.8-2.3-5.8-3-8.8c0-0.1,0.1-0.2,0.2-0.3
			C91.3,209.6,93.8,210.6,96.3,211.4z"/>
		<path class="st47" d="M117.7,218.7c0.7,2.7,1.7,5.3,3.3,7.6c0.9,1.4,1.9,1.3,2.9,0c1.4-1.9,2.6-4,3.3-6.2c0.3,0,0.6,0,0.8,0
			c-1,2.6-2.2,5.1-4,7.2c-1,1.4-2,1.5-2.9,0.1c-2.2-2.6-3.2-5.8-4.2-9C117.1,218.5,117.4,218.6,117.7,218.7z"/>
		<path class="st48" d="M121.4,148.1c1.2,1.6,1.1,3.1-0.2,4.1c-1.3,1-2.8,0.5-4-1.2C116.7,148,119.4,146.6,121.4,148.1z"/>
		<path class="st49" d="M116.5,152c0.8,0.5,1.4,1.1,1,2.2c-0.4,1.2-1.4,1.2-2.4,1.1c-0.7-0.6-1.2-1.3-0.8-2.4
			C114.8,152,115.6,151.9,116.5,152z"/>
		<path class="st50" d="M274.3,161.2c0.1,4.7-1.1,9.4-3.9,13.6c-4,6-10,8.9-17.7,6.8c-5-1.4-9.2-4.3-13.2-7.5
			c-0.5-0.4-0.4-0.7-0.1-1.2c4.6-6.9,8.6-14.2,12.6-21.4c1.9-3.3,4.6-6,7.8-8c3.5-2.2,7.2-1.2,9.8,2.3
			C273,150.3,274.4,155.3,274.3,161.2z"/>
		<path class="st15" d="M60.8,439.8c-3.1,0.1-6.1-0.3-8.9-2c-1.4-0.8-1.6-2.1-1.7-3.4c-0.4-5.5,1.7-10.3,4.3-14.9
			c1.6-2.7,1.7-2.6,4.6-1.5c3.2,1.2,6.5,1.7,9.8,2.1c3.5,0.5,7,0.5,10.5,0.5c1,0,2.1-0.1,3.1-0.3c0.8-0.1,1.2,0.3,1,1.1
			c-1.3,4.6-3.2,8.9-6.7,12.2C72.4,437.7,67.2,440.1,60.8,439.8z"/>
		<path class="st15" d="M38.3,424.6c0.1-2.4,0.8-4.5,2.5-6.3c2.5-2.8,5.5-5.1,8.7-7c1.3-0.8,1.4-0.8,1.8,0.8
			c0.3,1.4,0.8,2.6,2.2,3.1c0.7,0.3,0.3,0.6,0.1,0.9c-4.1,4.4-5.6,9.9-6.6,15.6c-0.1,0.9-0.3,1.8-0.3,2.7c0,0.6-0.3,1.1-1,0.7
			c-3.8-2-6.4-4.8-7.3-9.1C38.3,425.5,38.3,425.1,38.3,424.6z"/>
		<path class="st15" d="M47,400.1c0.6,1.9,0.4,3.5,0.7,5c0.3,1.4,0.7,2.7,1.6,3.8c0.4,0.5,0.6,0.7-0.2,1.1c-3.6,1.6-6.7,4.1-9.9,6.4
			c-0.5,0.4-1,0.8-1.7,1.1C38.3,410.4,42.4,405.2,47,400.1z"/>
		<path class="st15" d="M185,444.5c-5.3,0.1-9.7-1.8-13.6-4.9c-3.7-2.9-3.5-2.3-0.9-5.9c2.7-3.9,6.6-6.2,11-7.7
			c0.8-0.3,1.2,0.3,1.6,0.6c5,4.1,10.9,6,17.1,7.5c0.8,0.2,1.6,0,2.4,0.3c0.7,0.2,0.8,0.4,0.3,0.9c-4.4,4.4-9.3,8.1-15.6,9.1
			C186.4,444.5,185.5,444.3,185,444.5z"/>
		<path class="st15" d="M179.1,423.2c-4.1,1-7.2,3.1-9.9,6c-1.6,1.8-3.1,3.7-4.2,5.9c-0.6,1.1-1.3,1.2-2.3,0.7
			c-2.3-1.1-3-3.5-2.1-5.7c1.1-2.6,3.2-4.3,5.3-5.9c2.5-1.8,5.3-3.2,8.1-4.6c0.5-0.2,1-0.5,1.3,0.1C176.3,421,177.5,422,179.1,423.2
			z"/>
		<path class="st15" d="M263,442.3c-7,0-12.5-1.5-17.7-4.3c-2-1.1-2.1-1.3-1.1-3.3c1.9-3.5,4.9-5.8,8.3-7.7c1.3-0.7,2.8-1.3,4.1-2
			c0.7-0.4,1.3-0.3,1.8,0.3c2.5,3.2,6.1,4.7,9.8,6.1c3.1,1.2,6.4,2.2,9.7,2.7c0.4,0.1,1,0,1.2,0.4c0.2,0.5-0.4,0.7-0.7,1
			C273.9,440.7,268.3,442.4,263,442.3z"/>
		<path class="st51" d="M236.5,429.4c0.5-2.1,0.9-4.3,2.8-5.8c1.4-1.1,2.4-2.6,3.9-3.6c2.6-1.8,5.4-3.4,8.4-4.5
			c0.8-0.3,1.2,0,1.2,0.7c0,1.5,0.7,2.7,1.6,3.8c0.8,1,0.5,1.6-0.6,2.2c-3.1,1.7-6.1,3.7-9,5.8c-2,1.5-3.9,3.2-4.9,5.6
			c-0.4,1-1,0.8-1.7,0.2C237.1,432.5,236.8,431,236.5,429.4z"/>
		<path class="st21" d="M161.6,183.9c-0.6-0.1-1.1-0.3-1.7-0.3c-0.8,0-1.2-0.4-1.5-1.1c-1.5-3.5-1.7-7.1-1-10.8
			c1-5.8,3.4-10.8,8-14.6c2.5-2.1,5.3-3.4,8.6-3c4.3,0.5,6.6,3.4,7.9,7.2c3.1,8.6-1.5,21.2-9.4,25.7c-0.8,0.5-1.6,1-2.4,0
			c0-0.5,0.5-0.6,0.8-0.8c4.3-2.5,6.3-6.5,7.2-11.2c0.6-2.8,0.2-5.5-1.1-8.1c-1.6-3.2-5.1-4.1-8.2-2.8c-3.6,1.5-5.6,4.5-7,8
			c-1.3,3.5-1.6,7-0.3,10.5C161.7,183.1,161.9,183.4,161.6,183.9z"/>
		<path class="st52" d="M169.3,186.6c-2.1-1-4.2-1.8-6.5-2.5c-1.4-0.6-1.6-2-1.8-3.3c-1-6.1,0.8-11.3,5.5-15.3
			c1.2-1,2.6-1.8,4.2-1.9c3.4-0.2,5.9,1.7,6.9,5c2,6.3-1,14.1-6.7,17.5C170.5,186.5,169.9,186.7,169.3,186.6z"/>
		<path class="st53" d="M169.3,186.6c4.9-1.9,7.3-5.9,8.4-10.7c0.5-2.2,0.5-4.5-0.2-6.8c-1.4-5.1-6.4-6.8-10.5-3.5
			c-3.4,2.7-5.2,6.4-5.8,10.7c-0.3,2.3,0,4.4,0.8,6.5c0.2,0.5,0.6,0.9,0.9,1.3c-0.4-0.1-0.8-0.2-1.2-0.3c-3.3-6.7,0.1-15.6,5.1-19
			c4.8-3.3,10-1.2,11.5,4.4c1.5,5.8-1.4,14.9-8.1,17.8C169.8,187,169.5,186.9,169.3,186.6z"/>
		<path class="st54" d="M139.9,234.9c-4.1,5.1-9.2,8.8-15.8,10.3c-4.5,1.1-8.9,0.4-13.1-1.4c-2-0.9-4.1-1.6-5.7-3.2
			c-0.2-0.5,0.2-0.9,0.4-1.2c1.1-1.8,2.5-3.4,3.8-5c1.5-1.8,3.6-2.5,5.8-2.7c2.1-0.2,4.1,0,6.2,0.5c0.6,0.1,1.2,0.2,1.4,0.9
			c0,0.1,0.1,0.1,0.1,0c0.3-0.4,0.7-0.6,1.1-0.7c5-1.6,9.8-1,14.3,1.4C139.1,233.9,139.7,234.2,139.9,234.9z"/>
		<path class="st55" d="M139.9,234.9c-3.1-2.3-6.7-3.2-10.5-3.2c-1.5,0-3,0.3-4.5,0.6c-1.2,0.3-2,1-2.7,1.9c0.7-1.4,0.7-1.4-1-1.8
			c-2.4-0.5-4.7-0.6-7.2-0.3c-2.3,0.3-3.8,1.8-5.1,3.4c-1.3,1.6-2.5,3.3-3.6,5c-0.2-0.2-0.4-0.3-0.5-0.5c2.3-3.4,4.7-6.6,8.1-9.1
			c2.5-1.8,5.3-2.8,8.2-3.5c1,1,2,0.7,2.9-0.1c2.5,0.6,4.9,0.4,7.4-0.1c4.3-0.7,8.1,1,11.4,3.6C142.1,232.4,141,233.7,139.9,234.9z"
			/>
		<path class="st50" d="M101,134.8c0.2,1.3-0.2,3.1-0.3,5c0,0.6-0.2,0.8-0.8,1c-2.4,0.6-4.8,0.7-7.2,0.4c-4.2-0.5-8.1-1.8-11.7-4.1
			c-4.8-3.2-9-6.9-11-12.5c-2.3-6.4-1.4-12.5,3-17.8c1.5-1.8,3.6-2.9,6-3.2c3.5-0.3,7.1-0.5,10.4,1.1c4.3,2,6.9,5.6,8.6,9.9
			c1.4,3.6,2.2,7.3,2.5,11.1C100.7,128.5,100.9,131.4,101,134.8z"/>
		<path class="st56" d="M116.9,174.3c-8.5-3.6-17.4-4.9-26.5-5C97.5,166.6,109.6,168,116.9,174.3z"/>
		<path d="M165.5,170.1c0.2-0.4,0.5-0.7,0.9-1c0.5,0,0.7,0.4,1,0.7c0.8,0.6,1.6,0.8,2.5,0.3c0.8-0.5,1.3-1.2,1.2-2.2
			c0-0.3-0.2-0.7,0.1-1c2.3,0.1,4.2,1.8,4.7,4.6c0.6,3.9-0.4,7.4-3.2,10.3c-1.5,1.6-3.4,2.7-5.8,2c-2.3-0.7-3.2-2.6-3.6-4.8
			c-0.3-2-0.2-3.9,0.7-5.8c0.2-0.1,0.3-0.1,0.5-0.1c0.7,0.2,1.3,0,1.7-0.6c0.4-0.7,0.1-1.3-0.4-1.8
			C165.7,170.5,165.5,170.3,165.5,170.1z"/>
		<path class="st57" d="M171.1,166.8c0.6,1.7,0.2,3.1-1.1,3.7c-1.3,0.7-2.7,0.2-3.7-1.4c-0.3-1.4,0.1-2.6,1.4-3.2
			C169,165.3,170.2,165.8,171.1,166.8z"/>
		<path class="st58" d="M165.5,170.1c1,0.6,1.7,1.4,1.1,2.5c-0.6,1.1-1.6,1.2-2.6,0.6c-0.6-0.6-0.8-1.3-0.4-2.1
			C163.9,170.2,164.6,170.1,165.5,170.1z"/>
		<path class="st59" d="M131,238.1c0.8,0.1,1.5-0.1,1.7,0.4c0.3,0.8-0.4,1.3-0.8,1.7c-2.2,1.9-4.7,3.2-7.5,3.8
			c-0.8,0.2-2,0.8-2.4-0.3c-0.4-1,0.7-1.6,1.5-2.1C125.8,239.8,128.4,238.6,131,238.1z"/>
		<path class="st60" d="M118.2,244.4c-1.1-0.1-2.2-0.3-3-0.9c-1-0.7-1-1.5,0.1-2c1.5-0.7,3-0.5,4.5,0.3c0.5,0.2,0.9,0.6,0.9,1.3
			c-0.1,0.7-0.7,0.9-1.2,1.1C119,244.2,118.6,244.3,118.2,244.4z"/>
	</g>
</g>
</svg>
