<?xml version="1.0" encoding="utf-8"?>
<!-- Generator: Adobe Illustrator 25.3.1, SVG Export Plug-In . SVG Version: 6.00 Build 0)  -->
<svg version="1.1" id="Layer_1" xmlns="http://www.w3.org/2000/svg" xmlns:xlink="http://www.w3.org/1999/xlink" x="0px" y="0px"
	 viewBox="0 0 500 500" style="enable-background:new 0 0 500 500;" xml:space="preserve">
<style type="text/css">
	.st0{fill:#FDC200;}
	.st1{fill:#A5A5A5;}
	.st2{fill:#FE1200;}
	.st3{fill:#FCFCFC;}
	.st4{fill:#9B4000;}
	.st5{fill:#A57E00;}
</style>
<g>
	<g>
		<path class="st0" d="M104.5,260.7c0-21.3,0-42.5,0-63.8c0-0.5,0-1.1,0-1.6c-0.4-0.4-0.4-0.9-0.4-1.4c0-4.7-0.1-9.4,0-14.1
			c-0.1-6.6,0-13.1,0-19.7c0-0.5,0-0.9,0.4-1.3c0-0.5,0-1.1,0-1.6c0-27.6,0-55.2,0-82.9c0-1.2,0.3-1.5,1.5-1.5
			c94.4,0,188.7,0,283.1,0c1.3,0,1.5,0.3,1.5,1.5c0,27.5,0,55.1,0,82.6c0,0.6,0,1.2,0,1.7c0.2,0.5,0.3,0.9,0.3,1.4
			c0,6.5,0.1,13.1,0,19.6c0.1,4.7,0.2,9.4,0,14.1c-0.5,10.1-0.1,20.2-0.2,30.3c-0.1,11,0,22.1,0,33.1c0,1.4,0,2.8,0,4.2
			c-0.2,5.2-1.1,10.3-2.4,15.3c-2.3,8.6-5.7,16.7-9.9,24.5c-3.5,6.5-7.6,12.7-12,18.7c-3.6,4.9-7.5,9.6-11.5,14.2
			c-4.4,5-9,9.9-13.8,14.5c-5.8,5.5-11.6,11-17.7,16.1c-7.8,6.6-15.8,13-24,19C288,392,276.6,399.7,265,407
			c-5.2,3.2-10.5,6.3-15.9,9.4c-1.2,0.7-2.1,0.6-3.3,0c-9.7-5.5-19.2-11.4-28.5-17.5c-6.5-4.3-13-8.8-19.3-13.4
			c-7.5-5.5-14.9-11.2-22.1-17.2c-4.2-3.5-8.4-7.1-12.5-10.9c-4.1-3.8-8.3-7.6-12.2-11.6c-9.9-10-19.2-20.7-27.1-32.4
			c-6.9-10.2-12.6-21.1-16.3-32.9c-1.5-4.7-2.5-9.6-3.1-14.5C104.5,264.3,104.6,262.5,104.5,260.7z"/>
		<path class="st1" d="M104.5,260.7c0.3,2.4,0.5,4.8,0.8,7.2c1.5,10.3,5,19.9,9.6,29.2c5.2,10.5,11.8,20.1,19.1,29.2
			c11.2,13.9,23.9,26.2,37.5,37.8c21.1,18,43.8,33.8,67.5,48c2.5,1.5,5,2.8,7.5,4.3c0.8,0.5,1.3,0.3,2-0.1
			c11.4-6.4,22.5-13.4,33.4-20.7c13.8-9.3,27.1-19.2,39.8-29.9c10.3-8.7,20.2-17.9,29.3-27.8c9.7-10.5,18.5-21.7,25.6-34.2
			c5.8-10.1,10.3-20.8,12.5-32.3c0.5-2.8,1-5.6,1.1-8.4c0-0.3,0-0.7,0.2-0.9c0,0.1,0.1,0.1,0.1,0.2c0,4.3,0.1,8.6-0.1,12.9
			c0,0.7,0,1.5-0.1,2.2c-0.3,0.5,0,1-0.2,1.5c-0.9,9.1-3.2,17.8-6.7,26.2c-3.2,7.6-7.1,14.8-11.6,21.7c-4.7,7.2-10,14-15.6,20.6
			c-3.9,4.5-8,8.9-12.1,13.1c-3.6,3.6-7.2,7.2-11,10.6c-5.5,5.1-11.2,9.9-17,14.6c-11.2,9.2-22.9,17.7-34.9,25.8
			c-9.8,6.6-19.8,12.9-30,18.8c-1.1,0.6-2.1,1.2-3.2,1.9c-0.5,0.4-1,0.2-1.5-0.1c-4.5-2.5-8.9-5.1-13.3-7.8
			c-7.1-4.3-14-8.8-20.8-13.4c-5.7-3.8-11.2-7.8-16.7-11.9c-4.5-3.3-8.9-6.6-13.2-10.1c-4.1-3.3-8.2-6.7-12.2-10.2
			c-3.2-2.8-6.4-5.6-9.5-8.5c-3.8-3.4-7.5-6.9-11-10.6c-4.1-4.2-8.1-8.6-11.9-13.1c-5.2-6-10-12.3-14.4-18.9
			c-3.5-5.3-6.7-10.8-9.4-16.5c-3.3-6.7-5.8-13.6-7.6-20.8c-0.8-3.2-1.4-6.4-1.6-9.7c-0.2-0.4,0.1-0.9-0.2-1.3c0-0.5,0-1-0.1-1.5
			c-0.2-0.6,0.1-1.2-0.2-1.8C104.5,270.9,104.5,265.8,104.5,260.7z"/>
		<path class="st2" d="M390.5,179.8c0-7,0-14,0-21c6.1,2.1,11.8,4.9,17,8.8c7.1,5.4,12.5,12.2,16.5,20c3.4,6.6,5.5,13.5,6.9,20.7
			c0.7,3.6,1.1,7.3,1.6,11c0.2,0.6-0.1,1.2,0.2,1.8c0,0.6,0,1.1,0.1,1.7c0.2,0.6-0.1,1.2,0.2,1.8c0,1.8,0,3.6,0.1,5.4
			c0.1,1,0.1,2,0,3c0,1.8-0.1,3.5-0.1,5.3c-0.2,1.8-0.1,3.5-0.1,5.3c-0.1,6.1-1.1,12.1-2.1,18.2c-1.7,10.1-4.4,20-7.8,29.8
			c-2.7,7.9-5.9,15.6-9.3,23.2c-5.1,11.4-10.7,22.5-15.5,34c-3.3,7.9-6,16.1-6.9,24.7c-0.1,1.2,0,2.5-0.3,3.7
			c-0.3,1.4-0.4,1.5-1.8,1.6c-4,0-8.1,0-12.1,0c-1.4,0-2.9,0.2-4.3-0.2c-0.5-0.1-1,0.2-1.4-0.2c0-0.9,0-1.7,0-2.6
			c0.2-0.7,0-1.4,0.2-2.1c0.2-3.5,0.6-6.9,1.3-10.2c0.7-3.2,1.5-6.3,2.5-9.4c1.2-3.7,2.5-7.4,3.9-11.1c1.2-3.1,2.5-6.1,3.9-9.1
			c1.9-4.2,3.8-8.5,5.8-12.7c1.6-3.3,3.2-6.7,4.8-10.1c2.6-5.6,5.1-11.3,7.4-17c1.7-4.4,3.5-8.9,4.9-13.4c2-6.3,3.7-12.7,4.9-19.2
			c0.7-3.7,1.3-7.5,1.8-11.2c0.2-0.4,0-0.9,0.2-1.3c0-0.4,0-0.8,0.1-1.2c0.2-0.4,0-0.9,0.2-1.3c0-0.4,0-0.8,0.1-1.2
			c0.2-0.4,0-0.9,0.2-1.3c0-0.6,0-1.3,0.1-1.9c0.2-0.7,0-1.4,0.2-2.1c0-0.3,0-0.7,0-1c-0.2-0.4-0.1-0.8-0.1-1.2c0.2-2.2,0-4.4,0-6.7
			c0.1-7.8-0.7-15.5-2.6-23.1c-2.2-8.5-5.8-16.2-12.3-22.3c-2-1.9-4.3-3.6-6.7-5C391.3,180.4,390.8,180.3,390.5,179.8z"/>
		<path class="st2" d="M104.4,158.8c0,7,0,14,0,21c-0.3,0.4-0.7,0.7-1.1,0.9c-6.5,3.6-11.2,8.9-14.6,15.4
			c-3.5,6.6-5.3,13.7-6.2,21.1c-0.5,3.6-0.6,7.1-0.8,10.7c-0.2,3.4,0.2,6.7-0.1,10.1c0.1,0.8-0.1,1.7,0.1,2.5c0,0.7,0,1.4,0.1,2.1
			c0.2,0.5,0,1.1,0.2,1.6c0,3.4,0.6,6.8,1.1,10.2c0.6,4.6,1.6,9.2,2.7,13.8c1.6,6.6,3.6,13.1,5.9,19.4c4.4,12.2,10,23.9,15.5,35.6
			c4.5,9.6,9.1,19.3,12.3,29.5c1.8,5.8,3.3,11.6,3.9,17.7c0.1,0.6,0.2,1.2,0.3,1.8c0.2,0.5,0,1.1,0.2,1.6c0,1,0,2.1,0.1,3.1
			c0.1,1.3,0.1,1.3-1.4,1.4c-0.8,0.2-1.5,0.2-2.3,0.2c-4.7,0-9.3,0-14,0c-1.8,0-1.9-0.2-2-2c-0.3-5.4-1.3-10.6-2.8-15.8
			c-2.3-8-5.8-15.5-9.2-23.1c-5.5-12.1-11.5-24-16.4-36.4c-4.5-11.5-8.2-23.2-10.7-35.3c-1.4-7-2.4-14-2.9-21
			c-0.1-1.3,0.1-2.6-0.1-3.8c-0.1-2.5,0.1-5-0.1-7.5c0-1.5,0-3,0-4.5c0.3-1.7-0.1-3.4,0.2-5.1c0-0.6,0-1.1,0.1-1.7
			c0.2-0.6,0-1.2,0.2-1.8c0.3-2.8,0.4-5.6,0.9-8.3c0.7-3.8,1.4-7.6,2.5-11.4c1.1-3.9,2.5-7.7,4.2-11.4c1.7-3.7,3.8-7.2,6.2-10.6
			c2-2.8,4.2-5.5,6.8-7.8c3.3-3,6.9-5.8,10.9-8C97.2,161.5,100.7,160,104.4,158.8z"/>
		<path class="st1" d="M62.1,241.4c0.2,2.4,0.5,4.7,0.7,7.1c0.9,9.6,2.7,19.1,5.1,28.4c3.6,13.9,8.9,27.1,14.9,40.1
			c5.1,11.2,10.7,22.3,15.3,33.7c2.6,6.3,4.6,12.8,5.7,19.6c0.4,2.2,0.6,4.5,0.6,6.8c0,1,0.3,1.2,1.2,1.2c5.5,0,11,0,16.6,0
			c0.1,0,0.1,0,0.1,0.1c0,0-0.1,0.1-0.1,0.1c0,2,0.7,3.9,0.9,5.9c0.1,1.3,0.3,2.5,0.4,3.7c0.2,0.5-0.1,1,0.2,1.5c0,1,0,2,0.1,2.9
			c0.1,0.4,0.2,0.8-0.1,1.2c-6,0-12.1,0-18.1,0c-0.4,0-1,0.3-1.2-0.5c-0.2-0.9,0.1-1.9-0.2-2.8c0-0.5,0-1-0.1-1.4
			c-0.2-0.4,0-0.9-0.2-1.3c-0.5-4.1-1.4-8.1-2.6-12c-1.7-5.9-4.1-11.6-6.6-17.2c-1.7-3.9-3.6-7.8-5.4-11.7
			c-2.7-5.8-5.4-11.6-8.1-17.5c-2.3-5-4.4-10.1-6.4-15.2c-2-5.2-3.9-10.5-5.4-15.9c-1.4-4.7-2.6-9.5-3.7-14.3c-0.8-3.5-1.4-7-2-10.5
			c-0.2-1.4-0.4-2.7-0.5-4.1c-0.2-0.4,0.1-0.9-0.2-1.3c-0.1-1.1-0.2-2.1-0.3-3.2c-0.2-0.4,0.1-0.9-0.2-1.3c0-0.4,0-0.8-0.1-1.2
			c-0.2-0.5,0.1-1-0.2-1.5c0-0.6,0-1.1-0.1-1.7c-0.2-0.6,0.1-1.2-0.2-1.8c0-0.8,0-1.6-0.1-2.4c-0.2-1.4,0.1-2.8-0.2-4.2
			c0-2.7,0-5.4,0-8.1C62.2,242.3,61.8,241.8,62.1,241.4z"/>
		<path class="st1" d="M372.7,378.3c5.5,0,11,0,16.6,0c0.9,0,1.3-0.2,1.3-1.2c0.4-10.5,3.7-20.3,7.7-29.8c5.1-12,11-23.7,16.3-35.6
			c5.6-12.7,10.4-25.7,13.6-39.2c2-8.4,3.4-16.8,4.1-25.4c0.2-2.9,0.4-5.8,0.6-8.7c0,2.5,0.1,5.1,0.1,7.6c0.1,1.1,0.1,2.1,0,3.2
			c0,1.7,0,3.4-0.1,5.2c-0.3,0.7,0,1.5-0.2,2.3c0,0.7,0,1.5-0.1,2.2c-0.3,0.5,0,1-0.2,1.5c0,0.6,0,1.1-0.1,1.7
			c-0.2,0.4,0,0.9-0.2,1.3c0,0.4,0,0.8-0.1,1.2c-0.3,0.4,0,0.9-0.2,1.3c-1.1,8.8-2.7,17.5-4.9,26.1c-2.5,9.3-5.6,18.3-9.2,27.2
			c-3.3,8.2-7.1,16.1-10.8,24.1c-3.6,7.8-7.4,15.5-10.6,23.6c-2.3,5.9-4.2,12-5.3,18.2c-0.2,1-0.4,2.1-0.3,3.2c-0.3,0.5,0,1-0.2,1.5
			c0,0.4,0,0.8,0,1.2c-0.4,1,0.2,2-0.3,3c-6,0-11.9,0-17.9,0c-1.2,0-1.5-0.4-1.4-1.5c0.1-0.7,0-1.5,0-2.2c0.3-0.5,0-1,0.2-1.5
			c0.1-3.3,0.6-6.5,1.3-9.7c0-0.1,0-0.3,0-0.5C372.5,378.4,372.5,378.3,372.7,378.3z"/>
		<path class="st1" d="M390.5,179.8c5.7,2.7,10.1,7,13.6,12.2c4.3,6.4,6.6,13.5,8,20.9c1.5,7.9,1.7,15.9,1.5,24
			c0,0.3-0.1,0.6-0.2,0.8c-0.1,0.1-0.2,0.1-0.2-0.1c0-0.6,0-1.1-0.1-1.7c-0.2-0.4,0.1-0.9-0.2-1.3c-0.6-4.8-1.4-9.5-2.8-14
			c-1.5-4.9-3.6-9.5-6.5-13.8c-3.3-4.7-7.5-8.5-12.5-11.2c-0.1-0.1-0.2-0.1-0.4-0.1c0,0.3-0.1,0.7-0.1,1c0,20.2,0,40.4,0,60.6
			c0,0.1,0,0.2,0,0.4c-0.1,0.1-0.1,0.1-0.1,0c0-0.3,0-0.6,0-0.9c0-25.3,0-50.5,0-75.8C390.5,180.5,390.5,180.1,390.5,179.8z"/>
		<path class="st1" d="M81.5,238c-0.4-6.7-0.2-13.3,0.6-20c0.7-6,2-11.9,4.3-17.6c3.3-8,8.2-14.7,15.6-19.4c0.8-0.5,1.6-0.8,2.4-1.3
			c0,5.2,0,10.4,0,15.5c-2.1,0.6-3.9,2-5.5,3.3c-6.1,4.9-10.3,11.1-13,18.4c-2.1,5.7-3.5,11.7-4,17.8c0,0.1,0,0.2,0,0.4
			c-0.2,0.4,0,0.9-0.2,1.3c0,0.5,0,1-0.1,1.5C81.6,238,81.6,238,81.5,238z"/>
		<path class="st3" d="M390.5,257.5c0,0,0.1,0,0.1,0c0,5.6,0,11.2,0,16.8c0,0.3,0,0.6-0.2,0.8c0-4.4,0-8.8-0.1-13.2
			C390.5,260.4,390.5,258.9,390.5,257.5z"/>
		<path class="st3" d="M62.1,241.4c-0.2,0.4,0.1,0.9-0.3,1.3c0-3,0-6,0-9.1C62.2,236.2,62.1,238.8,62.1,241.4z"/>
		<path class="st3" d="M62.1,224.1c0,1.7,0.1,3.4-0.2,5.1C62,227.5,61.6,225.8,62.1,224.1z"/>
		<path class="st3" d="M61.9,250.8c0.4,1.4,0.2,2.8,0.2,4.2C61.6,253.6,62,252.2,61.9,250.8z"/>
		<path class="st3" d="M433,249.1c0-1.1,0-2.1,0-3.2C433.4,247,433.4,248,433,249.1z"/>
		<path class="st3" d="M433.1,233c0-1,0-2,0-3C433.4,231,433.4,232,433.1,233z"/>
		<path class="st3" d="M390.4,393.8c0.2-1-0.1-2,0.3-3C390.6,391.8,391,392.9,390.4,393.8z"/>
		<path class="st3" d="M122.2,378.5c0-0.1,0-0.1,0-0.2c0.9,0,1.8,0.1,1.6-1.3C124.2,378.5,124.1,378.5,122.2,378.5z"/>
		<path class="st3" d="M104.2,390.6c0.4,0.9,0.2,1.8,0.2,2.8C104,392.4,104.3,391.5,104.2,390.6z"/>
		<path class="st3" d="M81.5,238c0.1,0,0.1,0,0.2-0.1c0,0.9,0,1.7,0,2.6C81.4,239.7,81.5,238.8,81.5,238z"/>
		<path class="st3" d="M432.8,256.5c0-0.8-0.2-1.5,0.2-2.3C432.9,255,433.2,255.8,432.8,256.5z"/>
		<path class="st3" d="M413.4,239.9c0,0.7,0.1,1.4-0.2,2.1C413.3,241.3,413,240.6,413.4,239.9z"/>
		<path class="st3" d="M371.4,373.6c0,0.7,0,1.4-0.2,2.1C371.2,374.9,370.9,374.2,371.4,373.6z"/>
		<path class="st3" d="M432.7,221.2c-0.2-0.6-0.2-1.2-0.2-1.8C433,220,432.7,220.6,432.7,221.2z"/>
		<path class="st3" d="M62.3,220.6c0,0.6,0.1,1.2-0.2,1.8C62.2,221.9,61.9,221.2,62.3,220.6z"/>
		<path class="st3" d="M433,224.7c-0.2-0.6-0.2-1.2-0.2-1.8C433.2,223.4,432.9,224.1,433,224.7z"/>
		<path class="st3" d="M104.4,276c0.3,0.6,0.2,1.2,0.2,1.8C104.2,277.2,104.5,276.6,104.4,276z"/>
		<path class="st3" d="M62.1,257.5c0.3,0.6,0.2,1.2,0.2,1.8C61.9,258.7,62.2,258,62.1,257.5z"/>
		<path class="st3" d="M81.9,244.2c-0.3-0.5-0.2-1-0.2-1.6C82.1,243.2,81.9,243.7,81.9,244.2z"/>
		<path class="st3" d="M432.6,260.2c0-0.5-0.1-1,0.2-1.5C432.7,259.2,432.9,259.7,432.6,260.2z"/>
		<path class="st3" d="M62.4,260.9c0.3,0.5,0.2,1,0.2,1.5C62.2,262,62.4,261.4,62.4,260.9z"/>
		<path class="st3" d="M372.7,378.3c0,0.1-0.1,0.1-0.1,0.2c-0.5-0.1-1.1,0.2-1.5-0.3C371.7,378.2,372.2,378.3,372.7,378.3z"/>
		<path class="st3" d="M390.2,278.8c0-0.5-0.1-1,0.2-1.5C390.4,277.8,390.6,278.3,390.2,278.8z"/>
		<path class="st3" d="M123.7,373.9c-0.2-0.5-0.2-1.1-0.2-1.6C123.9,372.8,123.7,373.4,123.7,373.9z"/>
		<path class="st3" d="M123.7,389.7c-0.3-0.5-0.2-1-0.2-1.5C123.9,388.6,123.7,389.2,123.7,389.7z"/>
		<path class="st3" d="M390.7,389.6c0-0.5-0.1-1,0.2-1.5C390.9,388.6,391.1,389.2,390.7,389.6z"/>
		<path class="st3" d="M371.4,388.7c0,0.5,0.1,1-0.2,1.5C371.2,389.7,371,389.1,371.4,388.7z"/>
		<path class="st3" d="M432.3,263.2c0-0.4-0.1-0.9,0.2-1.3C432.5,262.3,432.7,262.8,432.3,263.2z"/>
		<path class="st3" d="M104.7,279.2c0.3,0.4,0.2,0.8,0.2,1.3C104.5,280.1,104.7,279.7,104.7,279.2z"/>
		<path class="st3" d="M62.6,263.6c0.3,0.4,0.2,0.8,0.2,1.3C62.5,264.5,62.7,264.1,62.6,263.6z"/>
		<path class="st3" d="M413.2,243.9c0,0.4,0,0.9-0.2,1.3C413,244.8,412.8,244.3,413.2,243.9z"/>
		<path class="st3" d="M413.2,237.7c0.1,0,0.2,0.1,0.2,0.1c0,0.4,0,0.8,0,1.2C413.1,238.6,413.3,238.1,413.2,237.7z"/>
		<path class="st3" d="M63.1,268.1c0.3,0.4,0.2,0.8,0.2,1.3C63,269,63.2,268.5,63.1,268.1z"/>
		<path class="st3" d="M104,387.8c0.3,0.4,0.2,0.8,0.2,1.3C103.8,388.7,104,388.3,104,387.8z"/>
		<path class="st3" d="M432.1,265.7c0-0.4-0.1-0.9,0.2-1.3C432.2,264.8,432.4,265.3,432.1,265.7z"/>
		<path class="st3" d="M412.9,246.4c0,0.4,0,0.9-0.2,1.3C412.8,247.2,412.6,246.8,412.9,246.4z"/>
		<path class="st3" d="M412.7,248.9c0,0.4,0,0.9-0.2,1.3C412.5,249.7,412.3,249.2,412.7,248.9z"/>
		<path class="st3" d="M81.7,236.5c0-0.4-0.1-0.9,0.2-1.3C81.9,235.6,82.1,236.1,81.7,236.5z"/>
		<path class="st3" d="M413,234.7c0.3,0.4,0.2,0.8,0.2,1.3C412.8,235.6,413,235.1,413,234.7z"/>
		<path class="st3" d="M123.7,393.8c0-0.4,0.1-0.8,0.1-1.2C124.1,393,124.1,393.5,123.7,393.8z"/>
		<path class="st4" d="M157.2,259.7c-1.4-4.1-2.4-8.3-2.5-12.8c2.1,1.4,4.1,2.7,6.1,4c9.6,6,19.7,11.1,30.3,15.3
			c7.7,3.1,15.6,5.6,23.6,7.5c6.7,1.6,13.5,2.7,20.3,3.4c5.1,0.5,10.1,0.8,15.2,0.6c9.4-0.3,18.8-1.5,28-3.5
			c12.5-2.8,24.5-7.1,36.1-12.5c8.8-4.1,17.3-8.8,25.2-14.3c0.2-0.1,0.4-0.2,0.8-0.5c0,4.5-1.2,8.7-2.5,12.8
			c0.1,0.7-0.1,1.3-0.3,1.9c-4.4,11.3-10.8,21.4-18.5,30.8c-3.5,4.3-7.2,8.4-11.3,12.3c-11.1,10.4-23.4,18.8-38,23.7
			c-5.2,1.7-10.6,2.9-16,3.4c-12,1-23.5-1-34.6-5.7c-8.3-3.5-15.9-8.2-22.9-13.7c-7.2-5.7-13.7-12.2-19.6-19.3
			c-4.9-5.9-9.2-12.2-12.9-18.8c-2.3-4.1-4.3-8.3-6-12.7C157.3,261,157.1,260.4,157.2,259.7z"/>
		<path class="st5" d="M157.2,259.7c3.1,8.8,7.6,16.9,13,24.6c3.3,4.7,6.9,9.1,10.7,13.4c2.3,2.6,4.7,5,7.3,7.4
			c6.7,6.3,14,11.8,22,16.3c6.9,3.9,14.2,6.8,21.8,8.6c6.7,1.6,13.5,2.1,20.3,1.6c11.8-0.8,22.7-4.7,32.9-10.5
			c4.9-2.8,9.5-5.9,13.9-9.4c4.9-3.9,9.5-8.1,13.8-12.7c6.4-7,12.2-14.5,17-22.7c2.9-4.9,5.4-9.9,7.3-15.2c0.2-0.5,0.3-0.9,0.5-1.4
			c0.6,0.5,0.8-0.3,1.2-0.4c0.4-0.1,0.7-0.5,1.3-0.8c0.1,2.8-0.4,5.4-1.1,7.9c-1.7,6.7-4.6,12.9-7.9,19c-3.5,6.3-7.5,12.2-12,17.8
			c-4.7,5.8-9.8,11.2-15.4,16.2c-5.1,4.5-10.5,8.6-16.4,12.1c-8.7,5.2-17.9,9-27.9,10.9c-5.3,1-10.7,1.3-16.1,1
			c-9.9-0.6-19.2-3.3-28-7.5c-8.7-4.1-16.5-9.5-23.7-15.9c-11.4-9.9-20.8-21.4-28.1-34.6c-3.3-6-6.1-12.1-7.8-18.8
			c-0.6-2.3-0.9-4.6-1.1-6.9c0-0.3,0-0.6,0.1-1C155.7,258.8,156.2,259.9,157.2,259.7z"/>
		<path class="st4" d="M276.8,188.8c-2-0.1-2-0.1-1.9-1.7c0.4-6.1,2-11.7,5.4-16.9c5.4-8.2,13-13.2,22.5-15.2
			c11.4-2.4,22.1-0.6,31.5,6.4c7.7,5.6,12.1,13.3,13.3,22.8c0.1,0.9,0.2,1.8,0.2,2.7c0,1.8,0,1.8-1.7,1.8c-0.7,0.5-1.6,0.4-2.4,0.4
			c-20.6,0-41.2,0-61.8,0c-1.2,0-2.4,0-3.6,0C277.8,189.1,277.3,189.1,276.8,188.8z"/>
		<path class="st4" d="M148,188.8c-1.9-0.1-1.8,0.3-1.7-1.7c0.5-9.6,4.3-17.8,11.7-24.1c7.9-6.8,17.3-9.5,27.6-8.8
			c9.8,0.6,18.2,4.4,24.9,11.6c4.9,5.4,7.8,11.8,8.6,19c0.1,0.7,0.2,1.5,0.2,2.2c0,2,0.2,1.7-1.7,1.7c-0.7,0.5-1.6,0.4-2.4,0.4
			c-19.5,0-39,0-58.5,0c-2.3,0-4.6,0-6.9,0C149.1,189.1,148.5,189.2,148,188.8z"/>
		<path class="st5" d="M148,188.8c4.5,0,9,0,13.5,0c18.2,0,36.5,0,54.7,0c0.5,0,0.9,0,1.4,0c0.1,1.7,0.9,3.2,1.1,4.9
			c0.3,1.8,0.5,3.6,0.6,5.4c0.1,1.1-0.4,1.4-1.4,1.3c-6.4,0-12.8,0-19.2,0c-16.9,0-33.9,0-50.8,0c-1.6,0-1.6,0-1.6-1.6
			c0.1-3,0.6-5.9,1.5-8.7C147.9,189.6,148.1,189.2,148,188.8z"/>
		<path class="st5" d="M276.8,188.8c0.4,0,0.7,0,1.1,0c22.5,0,44.9,0,67.4,0c0.3,0,0.6,0,0.9,0c0.4,1.8,0.9,3.7,1.3,5.5
			c0.4,1.7,0.5,3.4,0.5,5.1c0,0.7-0.2,1-0.9,1c-0.3,0-0.7,0-1,0c-23.1,0-46.2,0-69.3,0c-2,0-2.1-0.1-1.8-2.2
			C275.3,195,275.9,191.8,276.8,188.8z"/>
	</g>
</g>
</svg>
