<?xml version="1.0" encoding="utf-8"?>
<!-- Generator: Adobe Illustrator 25.3.1, SVG Export Plug-In . SVG Version: 6.00 Build 0)  -->
<svg version="1.1" id="Layer_1" xmlns="http://www.w3.org/2000/svg" xmlns:xlink="http://www.w3.org/1999/xlink" x="0px" y="0px"
	 viewBox="0 0 500 500" style="enable-background:new 0 0 500 500;" xml:space="preserve">
<style type="text/css">
	.st0{fill:#E33F32;}
	.st1{fill:#F7D340;}
	.st2{fill:#55ADDE;}
	.st3{fill:#F8E282;}
	.st4{fill:#FEFEFE;}
</style>
<g>
	<g>
		<path class="st0" d="M237.4,285.5c-3.5,14-9.5,27-16.9,39.3c-4.7,7.8-9.9,15.2-16.2,21.8c-5.2,5.5-11,10.2-18.1,13.2
			c-5.7,2.4-11.7,3-17.8,2.4c-10.4-1.1-19.6-5.2-28.4-10.6c-13.4-8.2-24.9-18.6-35.1-30.4c-7.6-8.8-13.5-18.8-18.9-29
			c-12.5-23.3-21.6-48-28.7-73.4c-4.7-16.9-8.4-34.1-11.3-51.5c-0.5-3-1.1-6-1.4-9c-0.2-3.2,0.9-6.2,2.7-8.8c3.1-4.7,7.7-7,13-8.3
			c4.8-1.1,9.8-0.8,14.6-1c12.4-0.5,24.8-0.9,37.2-1.6c7.6-0.5,15.2-0.9,22.8-1.6c11.3-1,22.5-3.1,33.4-6.3
			c9.2-2.7,18.2-6.2,27.1-9.8c7.1-2.9,14.5-4.3,22.2-4.3c2.6,0,5.1,0.5,7.6,1c1.5-0.1,2.7,0.7,4,1.3c2.5,1.2,4.5,2.9,6.2,5
			c1.1,1.2,1.7,2.6,2.2,4.2c1,4,1.9,8,2.9,11.9c0.2,0.6,0.2,1.3,0.1,1.9c0.7,3.6,1.4,7.2,2,10.8c0.5,2.9,1,5.8,1.5,8.7
			c0.5,0.3,0.5,0.8,0.5,1.3c0.9,6.3,1.6,12.6,2.2,18.9c0.5,6.5,0.9,13,1,19.6c0.1,3.2,0.3,6.4,0.1,9.6c-0.2,5.3-0.3,10.6-0.6,15.9
			c-0.7,10.8-1.9,21.4-3.7,32.1c-1.4,8.5-3.2,16.9-5.5,25.2C238.1,284.6,238,285.2,237.4,285.5z"/>
		<path class="st1" d="M237.4,285.5c2.4-8.4,4.2-16.9,5.7-25.4c1.3-7.5,2.3-15,3.1-22.5c0.5-5,0.9-10,1.1-15c0.2-6,0.5-12,0.4-17.9
			c-0.1-7.1-0.4-14.1-0.9-21.2c-0.6-7.4-1.4-14.8-2.5-22.1c0.9-0.8,1.8-1.7,2.7-2.3c4.3-3,9.1-3.8,14.2-3.4c6.2,0.6,12,2.8,18,4.4
			c20.1,5.3,40.2,10.6,60.6,14.7c5.4,1.1,10.9,1.7,16.3,2.1c7.6,0.6,15.2,0.6,22.8,0.4c5.4-0.2,10.7-0.7,16.1-1.3
			c3.7-0.4,7.5-0.3,11.3,0c4.4,0.4,8.7,1.1,12.8,2.5c5,1.8,9.5,4.4,12.5,9c1.8,2.9,2.7,5.9,2.3,9.4c-0.4,3.1-0.4,6.2-0.6,9.3
			c-0.3,5.3-0.9,10.5-1.5,15.7c-1.1,8.4-2.5,16.8-4.2,25.1c-3.4,16.4-8.2,32.4-14.2,48c-6.6,17-14.6,33.3-24.1,48.8
			c-7.3,12-16.1,22.7-26.4,32.2c-7.9,7.3-16.2,13.9-25.7,19c-5.5,3-11.3,5.3-17.5,6.3c-7,1.1-13.7,0-20.1-2.7
			c-6.5-2.8-12.1-6.9-17.3-11.6c-8.3-7.7-14.9-16.8-20.9-26.3c-0.2-0.3-0.4-0.6-0.6-0.9c-0.4-0.1-0.6-0.5-0.8-0.9
			c-4-6.7-7.5-13.7-10.6-20.8c-0.5-1-0.7-2.1-1.2-3.2c-0.1-0.3-0.2-0.7-0.1-1c-3-9-5.2-18.2-7-27.4c-1.2-6.5-2.3-13-3.1-19.6
			C237.7,286.4,237.7,285.9,237.4,285.5z"/>
		<path class="st2" d="M240.7,141.9c-1-4.2-2.2-8.4-3-12.6c-0.8-4-3.3-6.7-6.4-8.9c-1.8-1.3-3.9-2.1-5.9-2.8
			c8.2-8.5,17.2-15.9,27.5-21.7c8.3-4.6,17-7.9,26.4-9.3c12.9-1.9,25.2,0,37,5.4c8.1,3.7,15.2,8.8,22,14.4c12,9.9,24.6,19,38.6,26
			c6.8,3.4,13.8,6.2,21.3,7.8c6.6,1.4,13.2,1.7,19.8,0c7.4-1.8,13.5-6,18.8-11.4c6.1-6.3,10.6-13.6,14.4-21.4c0.3-0.7,0.7-1.4,1-2.1
			c0-0.1,0.1-0.1,0.3-0.2c0.5,2.5,1.1,4.9,1.6,7.4c1,4.8,2.1,9.5,3.1,14.3c0.2,1.2,0.6,1.1,1.5,0.6c5.9-3.4,11.8-6.8,17.7-10.3
			c0.3-0.2,0.6-0.3,1-0.5c0.3,0.4-0.1,0.7-0.2,1c-4.3,9.2-9.5,18-16.1,25.8c-8.8,10.5-19.4,18.6-32.6,22.8
			c-4.8,1.5-9.7,2.4-14.6,2.7c-14.3,1-27.7-2.4-40.7-7.8c-13.6-5.7-26.1-13.5-38-22.1c-6.9-5-13.3-10.6-20.1-15.7
			c-6.1-4.6-12.9-8-20.6-9.2c-6.1-0.9-12.1-0.2-17.9,1.7c-7.6,2.5-14.3,6.6-20.5,11.5C250.2,131.6,245.3,136.6,240.7,141.9z"/>
		<path class="st2" d="M247.9,333.8c3.2,8.8,7.5,17,12.2,25c0.2,0.3,0.3,0.6,0.4,0.9c-4,0.6-8,1.4-11.8,2.7
			c-9.2,3.1-17.8,7.7-26.1,12.7c-10.4,6.3-20.3,13.2-29.7,20.8c-8.2,6.6-16.8,12.4-26.2,17.1c-10.1,5.1-20.8,8.6-32,10
			c-17.9,2.2-35-0.4-50.7-9.3c-18.1-10.2-30.8-25-37.3-44.9c-1.1-3.2-1.8-6.6-2.3-10.2c1.1,0.8,2.1,1.4,3,2c5,3.3,10,6.6,14.9,10
			c0.8,0.6,1.1,0.3,1.5-0.4c2.4-4.8,4.9-9.6,7.4-14.3c0.2-0.4,0.3-0.8,0.8-1.1c0.5,3,1.2,5.8,2.4,8.6c4.9,12,13.4,20.8,24.9,26.8
			c6.1,3.2,12.6,4.8,19.5,5.4c11,0.9,21.3-1.5,31.3-5.7c9.2-3.9,17.5-9.4,25.3-15.6c13.8-11,28.2-21.1,43.8-29.3
			c9-4.7,18.3-8.7,28.2-11.2C247.5,333.9,247.7,333.9,247.9,333.8z"/>
		<path class="st3" d="M22.7,314c1.7-0.6,3.3-0.8,4.9-1.1c5.6-1.1,11.3-2,16.9-3.2c3.3-0.7,5.7-3,7.6-5.7c1.7-2.4,2.3-5.2,2.7-8.1
			c0.4-4.1,1-8.2,1.6-12.3c0.5-4,1-8,1.5-12c0.2-1.5,0.4-3,0.7-4.5c0,1.8,0,3.6,0,5.4c0.1,8.6,0,17.2,0.3,25.8
			c0.2,4.9,3.1,8.3,7.4,10.5c1.5,0.8,3.2,1,4.9,1.1c4.6,0.4,9.2,0.7,13.8,1c3.3,0.3,6.6,0.6,10,0.9c-2.1,0.2-4.2,0.5-6.4,0.7
			c-4.5,0.5-9.1,0.9-13.6,1.4c-1.6,0.2-3.3,0.2-4.9,0.5c-4.7,1-7.7,4-9.2,8.6c-0.3,0.9-0.3,1.8-0.3,2.7c-0.2,4.6-0.3,9.1-0.5,13.7
			c-0.2,3.8-0.4,7.7-0.6,11.7c-0.6-2-0.7-4-1.1-6c-1-6.1-1.7-12.3-3-18.4c-1.3-5.9-5.9-9.9-11.6-10.8c-4.3-0.7-8.6-0.9-12.9-1.3
			C28.2,314.5,25.5,314.3,22.7,314z"/>
		<path class="st3" d="M450.1,373.3c-1.5-1.6-2.9-3.2-4.4-4.8c-2.1-2.3-4.3-4.6-7.3-5.8c-3.8-1.5-7.6-1.3-11.4,0.3
			c-2.3,1-4.6,2-6.9,3c-0.3,0.1-0.7,0.5-1.3,0.3c1.3-1.6,2.5-3.1,3.8-4.7c1.6-2,3.2-3.9,4.7-5.9c3.1-4.3,3.5-9,2.3-14
			c-0.6-2.6-1.1-5.2-1.4-7.9c1.2,1.6,2.5,3.1,3.7,4.7c1.3,1.7,2.6,3.5,4.4,4.8c3.6,2.6,7.6,3.3,11.9,2c2.9-0.9,5.9-1.6,8.8-2.4
			c0.3-0.1,0.5-0.2,1,0c-1.4,1.2-2.8,2.3-4.1,3.5c-1.7,1.5-3.6,2.7-5,4.5c-2.5,3.4-3.1,7.2-1.8,11.3c1.1,3.6,2.1,7.3,3.2,10.9
			C450.2,373.2,450.2,373.3,450.1,373.3z"/>
		<path class="st3" d="M379.7,76.2c1,2.1,1.9,4.3,2.9,6.4c2.1,4.6,5.5,7.2,10.7,7.1c3.2,0,6.3,0.1,9.6-0.3c-0.2,0.5-0.6,0.6-1,0.7
			c-2.1,1.1-4.2,2.1-6.4,3.2c-4.4,2.2-6.4,6.2-5.9,11.1c0.3,2.9,0.1,5.9,0.1,8.8c-0.2-0.1-0.4-0.6-0.6-1c-1.5-2.6-2.7-5.4-4.6-7.7
			c-2.1-2.4-4.7-3.9-8-4.2c-3-0.3-6,0.6-8.9,1.1c-0.7,0.1-1.5,0.3-2.3,0.2c1.9-1.5,3.8-2.9,5.6-4.4c1.9-1.5,4-2.8,5.5-4.8
			c2-2.6,2.9-5.5,2.9-8.7c0.1-2.5,0-5,0-7.5C379.5,76.3,379.6,76.2,379.7,76.2z"/>
		<path class="st3" d="M405.8,403.9c-0.9-1.6-1.7-2.9-2.5-4.3c-1.9-3.5-4.8-5.2-8.8-4.9c-1.5,0.1-3.1,0.5-4.6,0.8
			c-0.4,0.1-0.8,0.1-1.3,0c1.8-1.4,3.6-2.9,5.4-4.3c2.9-2.1,4.2-5,4.3-8.6c0-1.5,0-3.1,0-4.6c0.1,0,0.2,0,0.3-0.1
			c0.6,1.4,1.4,2.7,1.9,4.1c1.3,3.5,4.7,5.7,8.2,5.5c2-0.1,4-0.1,6.1,0c-1.7,0.8-3.4,1.7-5.1,2.5c-2.2,1.1-3.6,2.9-4,5.4
			c-0.2,1.2-0.1,2.5,0,3.7C405.9,400.5,405.8,402.1,405.8,403.9z"/>
		<path class="st4" d="M108.3,273.6c3.3,1.1,6.4,2.1,9.5,3.1c11.8,3.8,23.8,7.1,36.1,9.3c9.1,1.6,17.9,0.3,26.5-2.7
			c15.4-5.3,28.4-14,39.5-25.8c0.1-0.1,0.3-0.3,0.6-0.3c-0.4,1.3-0.8,2.5-1.2,3.8c-5.1,16.4-10.3,32.8-16.4,48.9
			c-1.6,4.3-3.3,8.6-5.6,12.6c-0.9,1.6-2.3,2.9-3.8,4c-6,4.7-12.9,7.3-20.3,8.5c-5.8,0.9-11.4,0.7-17-1.4c-4.9-1.8-8.7-5.2-12.2-9
			c-7.7-8.3-14.2-17.5-20.5-26.8c-5.1-7.6-9.9-15.3-14.6-23.1C108.7,274.5,108.6,274.1,108.3,273.6z"/>
		<path class="st4" d="M222.2,213.5c-6.8-0.3-13,1.8-19,4.9c-3.5,1.8-6.5,4.3-9.6,6.6c-5.3,3.8-11,4.5-17.1,1.9
			c-4.8-2.1-6.7-5.9-5.4-11c1.1-4.2,3.6-7.4,6.7-10.2c5.7-5.2,12.5-8,20-9.3c8.7-1.5,17.4-0.9,25.8,2.1c3.3,1.2,5.7,3.5,7,6.7
			c1.9,4.4-0.6,8.1-5.3,8.3C224.3,213.6,223.3,213.5,222.2,213.5z"/>
		<path class="st4" d="M114.6,209.8c7.9,0.1,15.2,2,21.5,7.1c3,2.4,5,5.4,5.2,9.4c0.1,2.3-0.8,4.2-2.4,5.8
			c-3.8,3.6-8.2,5.5-13.5,5.1c-2.6-0.2-5.1-1.1-7.5-2c-9.7-3.7-19.5-4.7-29.5-0.9c-0.6,0.2-1.2,0.4-1.8,0.5
			c-4.8,0.8-7.9-2.8-6.6-7.8c0.9-3.5,2.9-6.3,5.9-8.3c6.5-4.4,13.7-7.2,21.5-8.3C109.7,210,112.2,209.8,114.6,209.8z"/>
		<path class="st4" d="M237.2,192.6c-2.3-1.4-4.6-2.7-7.1-3.8c-6.8-2.9-13.8-4.7-21.1-5.4c-5-0.5-9.9,0.4-14.8,1.7
			c-10,2.7-18.8,7.5-26.7,14.1c-1.7,1.4-1.7,1.5-2.8-0.4c-1-1.7-1.9-3.4-2.5-5.3c-0.3-0.9-0.2-1.6,0.5-2.4c3.5-4,7.7-7,12.2-9.7
			c7.5-4.3,15.4-7.4,24-8.4c6.9-0.8,13.3,0.6,19.5,3.7c7.4,3.7,13.4,9,18.4,15.4C237,192.3,237.1,192.5,237.2,192.6z"/>
		<path class="st4" d="M69.7,218c0.6-1.4,1.1-2.8,1.8-4.2c2.8-5.9,6.3-11.3,11-16c6.4-6.4,14.3-9.7,23.2-10.4
			c10.7-0.8,21.1,0.9,31,5.3c1.4,0.6,2.7,1.5,4.1,2.2c0.6,0.3,0.8,0.8,0.8,1.5c0.1,2.7-0.6,5.2-1.3,7.8c-0.2,0.8-0.7,0.3-1,0.2
			c-4.1-1.9-8.4-3.3-12.8-4.3c-10.4-2.4-20.8-2.8-31.2,0.3c-2.9,0.9-5.5,2.4-8.1,3.8c-5.6,3.1-10.9,6.7-15.3,11.4
			c-0.7,0.8-1.4,1.6-2.1,2.4C69.8,218.1,69.7,218.1,69.7,218z"/>
		<path class="st4" d="M369.5,342.1c-0.5,7.4-3.7,14.9-11,20.3c-1.7,1.3-3.6,2.1-5.7,2.3c-4.5,0.5-7.8-1.5-10.2-5.1
			c-2.7-3.8-5.5-7.5-9.3-10.4c-4.9-3.6-10.3-5.8-16.3-6.8c-4.3-0.7-8.6-0.8-13-0.2c-2.8,0.4-5.6,1-8.1,2.5c-5,3.1-10.4,4.7-16.4,4.5
			c-7.7-0.2-13.7-5.8-14.5-13.5c-0.8-7.3,1.4-13.5,7.1-18.2c3.8-3.1,8-5.5,12.5-7.5c6.9-3.1,14.2-4.7,21.8-4.8
			c13.2-0.2,25.9,2.6,38.2,7.1c5.6,2,10.8,4.8,15.4,8.6C365.9,325.9,369.5,333.3,369.5,342.1z"/>
		<path class="st4" d="M300,267.8c-3.7-0.1-7.3-1.9-10.6-4.6c-5.8-4.8-12.3-8-19.6-9.7c-2.8-0.6-5.7-0.7-8.6-0.6
			c-1.2,0-2.3,0.2-3.5-0.1c-3.5-0.8-5.3-3.7-4.1-7.2c1.2-3.5,3.6-6.1,7.1-7.4c4.8-1.9,9.8-2.7,14.9-2.9c7.4-0.3,14.5,0.8,21.3,3.6
			c6.3,2.7,11.5,6.7,15.1,12.6c1.5,2.5,2.2,5.3,1.8,8.3c-0.4,2.4-1.6,4.3-3.7,5.5C307.6,266.8,303.7,267.8,300,267.8z"/>
		<path class="st4" d="M370.3,248.6c6.8,0,13.3,1.4,19.6,4c3.9,1.6,7.7,3.5,10.9,6.3c2.9,2.6,4.7,5.8,4.3,9.9
			c-0.4,3.6-3.2,5.5-6.8,4.7c-2.3-0.5-4.5-1.5-6.8-2c-5.8-1.2-11.6-0.8-17.3,0.3c-3.2,0.6-6.2,1.8-9.2,3c-7.3,2.8-14.3,1.2-19.6-4.6
			c-2.4-2.6-2.2-5.7-1-8.8c1.1-2.6,2.9-4.6,5.1-6.3C355.5,250.4,362.6,248.7,370.3,248.6z"/>
		<path class="st4" d="M344.5,243.6c-0.8-2.4-1.2-4.7-1.5-7.2c-0.2-1.5,0.5-2.4,1.8-3.2c5.3-3,11-4.8,16.8-5.9
			c6-1.2,12.1-1.6,18.2-1c10.3,1,18.7,5.5,25.3,13.4c4,4.7,7.1,10,9.3,15.8c0.1,0.3,0.2,0.7,0.4,1c0,0.1,0,0.2-0.1,0.3
			c-1.6-2-3.3-3.8-5.2-5.5c-4.6-4.1-9.9-7.2-15.3-10c-8.2-4.3-17-4.7-25.9-4.1c-8.1,0.6-15.9,2.7-23.3,6.1
			C344.9,243.4,344.7,243.5,344.5,243.6z"/>
		<path class="st4" d="M318.7,240c-1.9-1.6-3.8-3.2-5.8-4.6c-8.4-6.1-17.6-10.2-27.8-12.1c-5.5-1-11-0.7-16.5,0.5
			c-6.1,1.4-12.1,3.1-17.6,6.1c-1.2,0.7-2.4,1.4-3.8,2.3c0.9-1.5,1.9-2.6,2.9-3.7c5.5-6.1,11.9-11,19.6-14c6.5-2.5,13.2-2.8,20-1.4
			c10.7,2.2,20.1,6.9,28.5,13.8c1.4,1.1,2.6,2.4,3.8,3.7c0.5,0.5,0.7,1.1,0.4,1.8C321.7,235.2,320.3,237.6,318.7,240z"/>
	</g>
</g>
</svg>
