<svg width="537" height="72" viewBox="0 0 537 72" fill="none" xmlns="http://www.w3.org/2000/svg">
<path d="M40.9171 71H0.501125V1.20799H40.9171C60.5971 1.20799 74.9011 15.128 74.9011 35.384C74.9011 55.64 60.5971 71 40.9171 71ZM12.5971 58.808H40.9171C53.4931 58.808 62.7091 49.112 62.7091 35.96C62.7091 22.808 53.4931 13.4 40.9171 13.4H12.5971V58.808ZM147.276 40.184V1.20799H159.18V40.184C159.18 61.784 148.524 71.96 121.452 71.96C94.5721 71.96 83.8201 61.784 83.8201 40.184V1.20799H96.3961V40.184C96.3961 54.2 102.636 59.96 121.836 59.96C141.036 59.96 147.276 54.2 147.276 40.184Z" fill="#F09631"/>
<path d="M265.321 71H253.225L239.881 21.944L220.105 67.352C218.761 70.328 216.841 71.96 213.865 71.96C210.985 71.96 208.873 70.328 207.625 67.352L187.945 21.944L174.601 71H162.601L180.553 5.336C181.417 1.976 183.337 0.343994 186.601 0.343994C189.193 0.343994 191.593 1.784 192.745 4.472L214.249 53.816L235.753 4.472C236.905 1.784 239.017 0.343994 241.609 0.343994C244.585 0.343994 246.505 1.976 247.465 5.336L265.321 71ZM318.428 71H301.436C281.948 71 267.548 55.64 267.548 35.384C267.548 14.84 281.948 1.20799 301.436 1.20799H318.428C338.588 1.20799 352.604 15.128 352.604 35.384C352.604 55.64 338.3 71 318.428 71ZM301.436 58.808H318.428C331.292 58.808 340.412 49.112 340.412 35.96C340.412 22.808 331.292 13.4 318.428 13.4H301.436C288.956 13.4 279.74 22.712 279.74 35.96C279.74 49.112 288.86 58.808 301.436 58.808ZM388.613 68.024L348.485 1.20799H363.365L395.045 54.968L426.629 1.20799H440.645L400.421 68.024C398.981 70.424 397.061 71.96 394.565 71.96C391.877 71.96 390.053 70.424 388.613 68.024ZM461.021 71H448.829V1.20799H461.021V71ZM536.151 71H473.751V1.20799H536.055V13.4H485.847V58.808H536.151V71ZM533.463 40.664H494.775V30.392H533.463V40.664Z" fill="white"/>
</svg>
