<?xml version="1.0" encoding="utf-8"?>
<!-- Generator: Adobe Illustrator 25.3.1, SVG Export Plug-In . SVG Version: 6.00 Build 0)  -->
<svg version="1.1" id="Layer_1" xmlns="http://www.w3.org/2000/svg" xmlns:xlink="http://www.w3.org/1999/xlink" x="0px" y="0px"
	 viewBox="0 0 500 500" style="enable-background:new 0 0 500 500;" xml:space="preserve">
<style type="text/css">
	.st0{fill:#EF9631;}
	.st1{fill:#EF9733;}
</style>
<g>
	<path class="st0" d="M330.1,305.1c0.9-6.5,1.5-12.9,1-19.4c-0.7-9.1-2.8-17.8-6.8-26c-3.8-7.7-9.1-14.1-15.2-20.2
		c-8.1-8-17.8-12.7-28.3-16.4c-11.7-4.1-23.7-4.6-35.8-3c-14.9,1.9-28.5,7.4-40,17.2c-10,8.5-18.1,18.7-22.6,31.3
		c-3.8,10.7-4.8,21.8-3.4,33.2c0.4,3.4,1.2,6.7,2,10.7c-4.4-3-8.4-5.5-12.1-8.4c-1.3-1-2.6-2-4-2.9c-6.1-4.1-12.4-7.9-18.2-12.2
		c-6-4.5-12.4-8.5-18.7-12.8c-1.3-0.9-1.4-1.8-1.4-3.1c0-15.8,0-31.7,0-47.5c0-41.2,0-82.5-0.1-123.7c0-2.3,0.7-2.8,2.9-2.8
		c80.4,0.1,160.8,0.1,241.3,0c2.2,0,2.9,0.5,2.9,2.8c-0.1,57.4-0.1,114.8,0,172.2c0,1.9-0.6,3-2.2,4c-4.1,2.4-8.2,4.9-12,7.7
		c-8.5,6.3-17.6,11.6-26.4,17.4C332.1,303.6,331.8,305,330.1,305.1z M253.1,160c25.8,0,51.6,0,77.4,0c2,0,3.8-0.3,5.4-1.6
		c2.6-2.2,3.7-6.2,2.6-9.5c-1.2-3.4-4.1-5.4-8.1-5.4c-51.4,0-102.7,0-154.1,0c-5.1,0-8.6,3.3-8.6,8c0,5.2,3.5,8.6,8.5,8.6
		C201.8,159.9,227.5,160,253.1,160z"/>
	<path class="st0" d="M79,456.3c7.8-7,16.5-12.7,24.5-19.3c7.1-5.9,14.8-11,21.8-16.9c6.4-5.4,13.3-9.9,19.6-15.3
		c7.2-6.1,15.1-11.2,22.2-17.3c6.5-5.5,13.7-10.2,20.2-15.7c7.2-6.1,15-11.2,22.2-17.3c6.6-5.6,13.9-10.2,20.4-15.9
		c5.7-5,11.9-9.2,17.8-14c1.5-1.2,2.5-1.3,4-0.1c4.7,3.7,9.7,7,14.3,10.9c7,6,14.8,10.9,21.9,16.9c6.9,5.8,14.4,10.7,21.2,16.5
		c6.9,5.9,14.5,10.8,21.4,16.6c6.7,5.7,14.1,10.5,20.8,16.2c6.8,5.8,14.3,10.6,21,16.3c6.6,5.6,13.9,10.3,20.4,15.9
		c7.1,6,14.8,11.2,22,17.1c2.1,1.7,4.1,3.6,6.7,5.4C307.2,456.3,193.2,456.3,79,456.3z"/>
	<path class="st0" d="M437.4,254.8c0,64.2,0,128.3,0,192.9c-3.9-2.9-7.5-5.4-10.9-8.2c-8.2-6.7-16.8-12.8-24.9-19.4
		c-6.6-5.4-13.7-10.2-20.2-15.7c-7-5.9-14.7-10.9-21.6-16.8c-6.7-5.7-14.1-10.5-20.8-16.2c-6.9-5.9-14.5-10.8-21.4-16.7
		c-4.7-4-9.9-7.5-14.6-11.5c8.8-6.3,17.8-11.9,26.7-17.8c10.4-6.9,21-13.4,31.2-20.4c7.8-5.3,16-10,23.7-15.5
		c8.7-6.2,18-11.3,26.6-17.5c7.9-5.6,16.2-10.4,24.2-15.7C436,255.8,436.7,255.3,437.4,254.8z"/>
	<path class="st0" d="M63,255c6.3,4,12.7,7.8,18.8,12c9.8,6.7,20,12.8,29.8,19.5c7.9,5.4,16.3,10.2,24.1,15.8
		c8.5,6.1,17.7,11.2,26.2,17.2c7.9,5.6,16.2,10.6,24.1,16.3c3.2,2.3,6.4,4.7,9.7,6.9c1.2,0.8,1,1.2,0,1.9c-2.2,1.6-4.5,3.2-6.6,5
		c-8.1,6.7-16.7,12.7-24.7,19.3c-6.6,5.4-13.6,10.1-20.1,15.6c-7.3,6.2-15.3,11.5-22.6,17.6c-6.4,5.4-13.5,10-19.8,15.5
		c-7.1,6.1-14.9,11.1-22,17.1c-5.4,4.6-11.2,8.5-17,13.2C63,383.2,63,319,63,255z"/>
	<path class="st0" d="M271.6,259.9c-4.4-3.8-8.2-7.3-13.4-8.5c-9.2-2.1-18.3-1.6-26.4,3c-12.1,6.9-19.2,17.6-20.7,31.8
		c-1.1,10.2,0.3,19.9,6.1,28.6c1.6,2.4,3.5,4.6,5.4,6.8c0.8,0.9,0.6,1.3-0.2,1.9c-3.3,2.4-6.6,4.8-9.8,7.3c-1,0.8-1.5,0.5-2.3-0.3
		c-7.1-7.2-11.7-15.9-13.7-25.8c-2.4-11.6-1.7-23.1,2.5-34.3c0.9-2.4,2.1-4.7,3.4-6.9c6.3-10.5,15-18.4,25.9-24.1
		c11.8-6.2,24.2-7.2,37.1-6c3.7,0.3,7.4,0.9,10.9,2.2c12.8,4.6,23.2,12.3,29.8,24.5c8.4,15.6,10.3,32,4.8,49.1
		c-0.9,2.7-2.5,5.1-4.6,7.1c-2.1,2-4.6,3.1-7.5,1.8c-2.7-1.1-3-3.6-3-6.1c0-12,0-24,0-36c0-7.2,0-14.3,0-21.5c0-1.7-0.3-2.5-2.3-2.5
		c-6.7,0.1-13.3,0.1-20,0c-1.6,0-2.2,0.4-2.1,2.1C271.7,255.9,271.6,257.6,271.6,259.9z"/>
	<path class="st1" d="M110.6,192.5c0,24.8,0,49,0,73.2c-0.7,0.5-1.1-0.1-1.6-0.4c-4.9-3.1-9.9-5.9-14.5-9.2
		c-8.1-5.9-16.7-10.8-25-16.2c-2.4-1.6-2.4-1.7-0.5-3.7c4-4.1,8.2-8.1,11.9-12.4c4.9-5.7,10.5-10.6,15.4-16.3
		c3.9-4.5,8.1-8.6,12.1-12.9C109,193.9,109.6,193.4,110.6,192.5z"/>
	<path class="st1" d="M389.7,266.1c0-24.7,0-48.9,0-73.8c4.4,4.6,8.5,8.9,12.5,13.1c0.6,0.6,1,1.3,1.5,1.9
		c9.1,9.6,18.2,19.1,27.4,28.7c2,2.1,1.9,2.3-0.5,3.8c-7.2,4.5-14.5,8.8-21.4,13.7c-5.6,3.9-11.3,7.4-17,11.1
		C391.5,265.1,390.8,265.5,389.7,266.1z"/>
	<path class="st0" d="M287.3,82.4c-25,0-49.5,0-73.9,0c-0.3-0.6,0.2-0.9,0.4-1.1c6.3-6.4,12.7-12.7,18.9-19.2
		c5.2-5.5,10.5-10.9,15.8-16.2c1.4-1.4,2-1.2,3.3,0.1c8.8,9,17.7,17.8,26.3,26.8C281.1,75.9,284.2,78.9,287.3,82.4z"/>
	<path class="st0" d="M235.6,292.6c0.1-8.2,2.1-14.1,7.7-18.5c3-2.3,6.6-3.3,10.1-3.5c8.3-0.3,16.6,7.6,17.8,15.9
		c0.9,6.2,0.2,12.1-2.4,17.7c-0.8,1.8-1.9,3.3-3.3,4.6c-2.9,2.7-3.3,2.7-6.4,0.2c-1.5-1.2-3-2.4-4.6-3.5c-3-2-5.9-2.1-8.9,0.1
		c-0.3,0.2-0.5,0.4-0.8,0.6c-3.3,2.4-3.8,2.3-5.6-1.3C237,300.7,235.3,296.2,235.6,292.6z"/>
	<path class="st1" d="M279.1,324.5c-3.1-1.1-3.4-1.6-1.8-3.4C278.1,322.1,278.7,323.3,279.1,324.5L279.1,324.5z"/>
	<path class="st1" d="M279.1,324.5c0.1,0.1,0.2,0.2,0.3,0.2C279.1,324.9,279,324.7,279.1,324.5C279.1,324.5,279.1,324.5,279.1,324.5
		z"/>
</g>
</svg>
