<?xml version="1.0" encoding="utf-8"?>
<!-- Generator: Adobe Illustrator 25.3.1, SVG Export Plug-In . SVG Version: 6.00 Build 0)  -->
<svg version="1.1" id="Layer_1" xmlns="http://www.w3.org/2000/svg" xmlns:xlink="http://www.w3.org/1999/xlink" x="0px" y="0px"
	 viewBox="0 0 500 500" style="enable-background:new 0 0 500 500;" xml:space="preserve">
<style type="text/css">
	.st0{fill:#FECF53;}
	.st1{fill:#FFC448;}
	.st2{fill:#FFF0CA;}
	.st3{fill:#FFE192;}
	.st4{fill:#FFF1CB;}
	.st5{fill:#FFF1CC;}
	.st6{fill:#FFF5D9;}
	.st7{fill:#FFE39A;}
	.st8{fill:#FFE39C;}
	.st9{fill:#FFF5DA;}
	.st10{fill:#FFF9E9;}
	.st11{fill:#FFD870;}
	.st12{fill:#FFEEC9;}
	.st13{fill:#FFEFCD;}
	.st14{fill:#FFD57A;}
	.st15{fill:#FFD781;}
	.st16{fill:#71523F;}
	.st17{fill:#FFD77A;}
	.st18{fill:#FF6669;}
	.st19{fill:#2C2C2C;}
</style>
<g>
	<path class="st0" d="M244.7,0.2c2.8,0,5.7,0,8.5,0c1,0.4,2,0.1,3.1,0.2c1.1,0,2.1,0,3.2,0c1,0,2.1,0,3.1,0c11.6,0,23,1.2,34.3,3.3
		c15.9,3,31.4,7.5,46.4,13.5c13,5.2,25.4,11.4,37.3,18.7c0.5,0.3,1.1,0.6,1.5,1.1c2.1,3.8,4.5,7.4,6.6,11.2
		c4.4,7.9,8.4,15.9,12,24.2c0.4,0.8,0.8,1.7,0,2.6c-1,0.3-1.6-0.2-2.3-0.8c-10.6-8.9-21.9-16.9-33.9-23.8
		c-15.4-8.9-31.6-15.8-48.6-21c-10.2-3.1-20.6-5.5-31.2-7.1c-6.1-1-12.3-1.7-18.5-2c-5.6-0.3-11.1-0.7-16.7-0.7
		c-11.4,0-22.7,0.9-33.9,2.5c-14.5,2.1-28.7,5.5-42.5,10.3c-17.4,6.1-33.9,14.1-49.4,24.2c-10,6.5-19.4,13.7-28.4,21.6
		C84.7,87.5,75.1,98,66.3,109.2c-9.5,12.3-17.7,25.4-24.6,39.3c-9.1,18.4-15.6,37.8-19.5,58c-1.6,8.3-2.8,16.6-3.4,25
		c-0.4,4.8-0.4,9.6-0.8,14.3c-0.5,5.5,0.1,10.9,0.2,16.4c0.3,9.1,1.4,18.1,2.9,27c2.2,12.9,5.4,25.4,9.7,37.8
		c5.9,16.6,13.5,32.4,23,47.3c3.2,5,6.5,9.9,9.7,15c0.1,0.3,0.4,0.5,0.5,0.8c0.1,0.2-0.2,0,0,0.1c0-0.1,0-0.1,0-0.2
		c-0.1-0.3-0.3-0.5-0.5-0.8C54.1,374.3,48,357.9,43,341.1c-2.7-8.9-4.7-18.1-6.2-27.3c-0.9-5.6-1.6-11.3-2.1-17
		c-0.5-5.8-0.5-11.5-0.8-17.3c-0.2-5.3,0-10.6,0.2-15.8c0.4-10.3,1.7-20.5,3.6-30.7c2.7-14.6,6.9-28.9,12.4-42.7
		c8.3-20.7,19.2-39.9,33.1-57.4c4.3-5.5,8.8-10.7,13.6-15.8c11.2-12.1,23.7-22.7,37.3-32.2c9.1-6.4,18.7-12.1,28.6-17
		c15.6-7.8,31.8-13.7,48.7-17.8c9.7-2.3,19.6-4,29.5-5.1c11.1-1.3,22.2-1.7,33.3-1.3c8.8,0.3,17.5,1.1,26.2,2.4
		c14.3,2.1,28.2,5.4,41.8,10.1c9.8,3.3,19.3,7.3,28.5,12c12.4,6.2,24.1,13.5,35.2,21.8c1,0.7,2.1,1.3,2.4,2.7
		c4.9,12.8,7.6,26.2,9.8,39.7c1.1,6.8,1.7,13.6,2.3,20.4c0.8,9.1,0.9,18.3,0.6,27.4c-0.3,8.1-1,16.1-2,24.2
		c-1.3,9.9-3.1,19.7-5.6,29.4c-3.3,12.9-7.6,25.5-13.1,37.7c-0.4,0.9-0.9,1.7-1.7,2.4c-1.1,0.5-2.3,0.3-3.5,0.3
		c-21.1,0-42.2,0-63.3,0c-81.3,0-162.5,0-243.8,0c-0.9,0-1.7,0-2.6,0c-1.6,0.1-1.9,0.5-1.7,2.1c0.8,7.1,2.3,14,4.1,20.9
		c5.7,21.8,15.5,41.6,29.2,59.5c5.3,6.9,11.2,13.4,17.5,19.4c3,3.1,6.3,5.8,9.6,8.5c9.8,8,20.3,14.8,31.6,20.4
		c9.3,4.6,18.9,8.3,28.8,11.1c1.2,0.3,3,0.2,3.3,2.1c-0.8,1.1-2.1,1-3.2,1.1c-7.5,1-15,1.6-22.5,2c-6.3,0.3-12.5,0.4-18.8,0.2
		c-6.5-0.2-13-0.6-19.4-1.3c-12.5-1.3-24.9-3.5-37.1-6.7c-14.3-3.7-28.1-8.7-41.5-15c-8.1-3.8-16.1-7.9-23.7-12.7
		c-0.4-0.2-0.7-0.1-1.1-0.2c-0.9-0.2-1.4-0.9-1.9-1.7c-9.5-14.9-17.3-30.7-23.5-47.3c-5-13.4-8.8-27.2-11.4-41.3
		c-1.7-9.7-3.3-19.5-3.3-29.4c0-1.8-0.2-3.6-0.2-5.3c0-7.2-0.2-14.4,0-21.6c0-11.9,1.4-23.6,3.5-35.3c2.3-12.5,5.5-24.8,9.8-36.8
		c6.2-17.6,14.2-34.3,24.1-50c6-9.6,12.7-18.8,20-27.6c3.8-4.6,7.8-8.9,11.9-13.3c7.9-8.4,16.5-16,25.5-23.1
		c11.9-9.4,24.6-17.7,38.1-24.8c11.1-5.9,22.6-10.9,34.4-15c11.2-3.9,22.6-7,34.3-9.3c10.2-2,20.4-3.6,30.8-3.6
		c1.8,0,3.7-0.2,5.5-0.2c1,0,2,0,3.1,0C242.5,0.2,243.6,0.6,244.7,0.2z"/>
	<path class="st1" d="M398.5,273.5c2.2-4.5,4-9.2,5.8-13.9c3.4-9.1,6.3-18.3,8.7-27.8c1.9-7.7,3.5-15.6,4.6-23.4
		c0.7-4.7,1.3-9.4,1.6-14.2c0.2-3.7,0.4-7.3,0.7-11c0.6-7.1,0.4-14.1,0.2-21.2c-0.1-4.4-0.5-8.8-0.9-13.2c-0.3-3.9-0.8-7.8-1.3-11.7
		c-0.7-5.3-1.6-10.7-2.7-15.9c-2-9.3-4.3-18.5-7.3-27.6c-0.1-0.3-0.2-0.6-0.2-0.9c0.9-0.6,1.5,0.1,2.1,0.5
		c4.7,3.6,9.2,7.5,13.7,11.5c7,6.3,13.5,13.2,19.7,20.4c1.8,2.1,3.3,4.4,4.9,6.6c0,0,0,0,0,0c-7.4-10.7-14.6-21.6-23.1-31.4
		c-6-6.9-12.3-13.6-19.1-19.7c-1.4-1.3-2.7-2.6-4.2-3.9c-0.6-0.5-1.3-1.1-0.9-2c-0.2-1.8-1.3-3.3-1.9-4.9c-1.7-4.1-3.8-8-5.7-12
		c-3.2-6.6-7-12.8-10.7-19.1c-0.2-0.4-0.7-0.8-0.3-1.3c1-0.5,1.8,0.1,2.5,0.6c8.9,5.8,17.6,11.9,25.8,18.7
		c7.7,6.4,15,13.2,21.9,20.5c10.8,11.3,20.4,23.6,28.9,36.7c9.9,15.4,18.1,31.6,24.4,48.8c5.8,15.7,9.9,31.7,12.5,48.2
		c0.9,5.8,1.5,11.5,1.6,17.4c0,2.3,0.1,4.7,0.1,7c0,0.9,0,1.7,0,2.6c0.1,0.7-0.2,1.4,0.2,2c0,6.5,0,13,0,19.6
		c-0.4,0.7-0.1,1.5-0.2,2.3c0,0.9,0,1.8,0,2.7c0.2,15.1-2.3,29.8-5.8,44.4c-5,21-12.8,41-23,60c-8.1,15.1-17.8,29.3-28.9,42.4
		c-5,5.9-10.2,11.8-15.8,17.2c-15.1,14.7-31.7,27.5-49.9,38.1c-16.3,9.5-33.5,17-51.5,22.7c-12.8,4-25.9,6.9-39.1,8.8
		c-7,1-14,1.6-21.1,1.5c-1.2,0-2.4,0.2-3.7,0.2c-1.3,0-2.6,0-3.9,0c-4.4,0-8.8,0-13.3,0c-1.3,0-2.6,0-3.9,0
		c-20.6-0.1-40.6-3.7-60.3-9.4c-16.3-4.8-32-11.2-47-19.2c-16.3-8.7-31.5-19.1-45.5-31.2c-5.4-4.7-10.7-9.4-15.6-14.6
		c-9.6-9.9-18.4-20.4-26.3-31.7c-1.3-1.9-2.7-3.8-4-5.8c-0.4-0.7-1.1-1.4-0.5-2.4c0.3-0.9,0.8-0.5,1.3-0.2c1.4,0.8,2.9,1.7,4.3,2.5
		c6.2,3.6,12.6,6.9,19.1,9.9c9,4.2,18.3,7.9,27.7,11c10.4,3.4,21,6.1,31.7,8.1c5.2,1,10.5,1.8,15.8,2.4c4,0.4,7.9,0.8,11.9,1.1
		c2.3,0.2,4.7,0.1,7,0.3c5.6,0.6,11.3,0.3,16.9,0.3c4,0,7.9-0.3,11.9-0.6c2.3-0.2,4.5-0.4,6.8-0.5c3.4-0.2,6.7-0.7,10-1.2
		c0.9-0.1,1.9,0.1,2.7-0.5c0.7-0.8,1.6-0.5,2.4-0.3c6,1.5,12,2.6,18.1,3.4c3.3,0.4,6.6,0.7,9.9,1c4.8,0.4,9.7,0.3,14.5,0.3
		c15.2,0,30.1-2.3,44.6-6.5c9.5-2.7,18.7-6.3,27.6-10.7c12.7-6.3,24.5-14.1,35.2-23.4c0.6-0.5,1.2-0.9,1.8-1.3
		c7.7-7.1,14.9-14.6,21.3-22.8c6.7-8.6,12.5-17.7,17.4-27.5c7.8-15.6,13.2-32.1,15.9-49.4c0.2-1.5,0.4-3,0.6-4.6
		c0.2-1.7,0-1.9-1.7-1.9c-4.8,0-9.6,0-14.4,0C400.2,274.3,399.2,274.4,398.5,273.5z"/>
	<path class="st2" d="M0.5,241c0.1-0.7-0.1-1.5,0.3-2.2c0.1,2.8,0.1,5.6-0.2,8.4c-0.2,1.8-0.2,3.5,0,5.3c0.2,2.9,0.3,5.9,0.2,8.8
		c-0.4-0.6-0.3-1.3-0.3-1.9c-0.1-0.7,0.1-1.5-0.4-2.1c0-4.3,0-8.6,0-12.9C0.6,243.3,0.1,242.1,0.5,241z"/>
	<path class="st3" d="M243.6,499.7c4.6,0,9.1,0,13.7,0c0.2,0.1,0.2,0.2,0,0.3c-4.5,0-9.1,0-13.6,0
		C243.4,499.9,243.4,499.8,243.6,499.7z"/>
	<path class="st4" d="M243.6,499.7c0,0.1,0,0.2,0,0.3c-1.4,0-2.7,0-4.1,0c0-0.1,0-0.3,0-0.4C240.9,499.6,242.3,499.6,243.6,499.7z"
		/>
	<path class="st5" d="M257.3,500c0-0.1,0-0.2,0-0.3c1.3,0,2.7,0,4-0.1c0,0.1,0,0.3,0,0.4C260,500,258.6,500,257.3,500z"/>
	<path class="st6" d="M238.1,0.5c0-0.1,0-0.2,0-0.3c1.1,0,2.2,0,3.3,0c0.2,0.1,0.2,0.2,0,0.3C240.3,0.5,239.2,0.5,238.1,0.5z"/>
	<path class="st7" d="M241.4,0.5c0-0.1,0-0.2,0-0.3c1.1,0,2.2,0,3.3,0C243.7,0.8,242.5,0.5,241.4,0.5z"/>
	<path class="st8" d="M259.5,0.5c-1.1,0-2.2,0-3.3,0c-0.3-0.1-0.3-0.2,0-0.3c1.1,0,2.2,0,3.3,0c0.1,0.1,0.2,0.1,0.2,0.2
		C259.6,0.4,259.6,0.5,259.5,0.5z"/>
	<path class="st9" d="M259.5,0.5c0-0.1,0-0.2,0-0.3c1.1,0,2.2,0,3.3,0c0,0.1,0,0.2,0,0.3C261.7,0.5,260.6,0.5,259.5,0.5z"/>
	<path class="st10" d="M0.5,241c-0.1,1.1,0.3,2.3-0.4,3.3c0-1.1,0-2.2,0-3.3C0.3,241,0.4,241,0.5,241z"/>
	<path class="st11" d="M256.2,0.2c0,0.1,0,0.2,0,0.3c-1-0.1-2.1,0.3-3-0.3C254.2,0.2,255.2,0.2,256.2,0.2z"/>
	<path class="st12" d="M499.7,235.1c0.1,0,0.2,0,0.3,0c0,1,0,2,0,3c-0.1,0.1-0.1,0.2-0.2,0.2c0-0.1-0.1-0.2-0.1-0.3
		C499.6,237.1,499.6,236.1,499.7,235.1z"/>
	<path class="st13" d="M500,264.7l-0.2,0l-0.2,0c0-1,0-2,0-2.9c0.1-0.3,0.2-0.3,0.3,0C500,262.7,500,263.7,500,264.7z"/>
	<path class="st14" d="M500,261.7c-0.1,0-0.2,0-0.3,0c0-0.8-0.2-1.6,0.3-2.3C500,260.2,500,261,500,261.7z"/>
	<path class="st15" d="M499.7,238c0.1,0,0.2,0,0.3,0.1c0,0.6,0,1.2,0,1.8C499.5,239.4,499.6,238.7,499.7,238z"/>
	<path class="st16" d="M398.5,273.5c0.9,0,1.7,0.1,2.6,0.1c5,0,10.1,0,15.1,0c2,0,2.1,0.1,1.8,2.1c-2.2,17.3-6.9,33.9-14.3,49.8
		c-9.3,20-22,37.5-38,52.5c-1.1,1-2.1,2.1-3.3,2.9c-0.8-0.1-1.2-0.7-1.4-1.3c-0.5-1.3-1.5-2-2.7-2.6c-18.1-8.5-36.9-14.7-56.5-18.6
		c-7.8-1.5-15.7-2.7-23.6-3.5c-4.1-0.4-8.3-0.6-12.5-0.9c-7.1-0.5-14.1-0.3-21.2-0.2c-8.2,0.1-16.4,0.8-24.6,1.7
		c-11.1,1.2-22.1,3.1-33,5.6c-15.1,3.4-29.8,7.9-44.1,13.6c-2.1,0.8-4.1,1.8-6.1,2.6c-0.7,0.3-1.4,0.4-2.1,0.1
		c-4.1-3.6-7.7-7.5-11.3-11.6c-15.9-18.3-27.5-39-34.5-62.2c-2.7-8.9-4.6-18-5.8-27.2c-0.4-3.2-0.3-2.7,2.4-2.7
		c103.5,0,207,0,310.5,0C396.7,273.6,397.6,273.5,398.5,273.5z"/>
	<path class="st17" d="M400.8,74.7c1.8,2.2,4.2,3.8,6.1,5.8c0.5,0.5,1.1,0.9,1.7,1.5c2.6,2.6,5.3,5.2,7.8,7.8
		c3.9,4.1,7.6,8.3,11.3,12.6c6,7.2,11.5,14.8,16.7,22.7c1.3,2.1,2.6,4.2,3.9,6.2c0.3,0.4,0.5,0.9,0.5,1.4l0,0
		c-0.5-0.2-0.9-0.7-1.2-1.1c-2.6-3.3-5.3-6.4-8.1-9.5c-3.5-3.8-6.9-7.7-10.6-11.2c-4.4-4.1-8.7-8.3-13.4-12
		c-2.2-1.8-4.4-3.6-6.5-5.4c-0.3-0.3-0.7-0.5-1.1-0.6c-1.7-1.8-3.8-3.1-5.8-4.5c-5.9-4.3-12-8.3-18.3-12c-2.2-1.3-4.4-2.6-6.7-3.8
		c-5-2.7-10.1-5.3-15.4-7.6c-3.5-1.5-7-3.1-10.5-4.5c-7.7-3-15.5-5.6-23.4-7.8c-6.2-1.7-12.4-3.1-18.7-4.3
		c-4.6-0.8-9.2-1.5-13.8-2.1c-4.4-0.6-8.8-0.8-13.2-1.4c-0.1,0-0.2,0-0.4,0c-7.8-0.5-15.6-0.6-23.4-0.3c-4.4,0.2-8.8,0.5-13.2,0.9
		c-9.2,0.9-18.2,2.2-27.3,4.1c-6.2,1.3-12.3,2.9-18.4,4.7c-6.8,2-13.5,4.4-20.2,7.1c-3.8,1.5-7.5,3.2-11.1,4.9
		c-3.6,1.7-7.2,3.5-10.7,5.4c-4.7,2.5-9.2,5.2-13.7,7.9c-5.9,3.6-11.5,7.5-17,11.7c-3.8,2.9-7.5,5.9-11.2,9
		c-5.1,4.4-10.1,8.9-14.8,13.8c-3.4,3.5-6.7,7.2-9.9,10.9c-7.3,8.3-13.8,17.2-19.8,26.5c-2.8,4.3-5.4,8.8-7.9,13.3
		c-2.1,3.8-4.1,7.7-6,11.7c-3.1,6.5-5.9,13.1-8.4,19.8c-3.1,8.4-5.7,16.9-7.8,25.6c-1.7,7.1-3.1,14.3-4.1,21.5
		c-0.6,4.4-1.1,8.7-1.5,13.1c-0.5,5.5-0.7,11-0.7,16.5c0,1.1-0.4,2.2-0.3,3.3c0.5,4,0.1,8.1,0.4,12.1c0.4,4.9,0.8,9.9,1.3,14.8
		c1.2,10.8,3.2,21.3,5.9,31.8c2.8,10.5,6.2,20.8,10.5,30.9c2.9,6.9,6.3,13.5,9.6,20.1c0.6,1.2,1.6,2.2,1.8,3.6l0,0
		c-1-0.5-1.4-1.5-2-2.3c-5.4-7.5-10.5-15.1-15-23.2c-4.3-7.7-8.2-15.7-11.6-23.8c-4.1-9.8-7.5-19.7-10.2-30
		c-2.1-8-3.8-16.1-5.1-24.3c-0.7-4.4-1.2-8.9-1.7-13.3c-0.2-2.3-0.4-4.6-0.5-7c-0.3-3.7-0.1-7.4-0.4-11c-0.1-1.9-0.5-3.8-0.2-5.7
		c0.4-3.6,0.2-7.2,0.4-10.9c0.3-4.5,0.6-8.9,1.1-13.4c1.6-13.3,4.1-26.4,7.9-39.3c2.4-8.2,5.2-16.3,8.5-24.1
		c2.9-7,6.2-13.9,9.8-20.6c3.9-7.2,8.2-14.3,12.8-21.1c3.7-5.4,7.6-10.6,11.7-15.6c3.6-4.4,7.3-8.6,11.2-12.7c2-2.2,4-4.3,6.1-6.4
		c3.6-3.4,7.3-6.8,11-10c7.3-6.4,15-12.1,23-17.5c4.2-2.9,8.6-5.5,13-8.1c4.6-2.7,9.4-5,14.2-7.4c7.4-3.7,15.1-6.9,22.9-9.7
		c8.2-3,16.6-5.4,25.1-7.5c6.4-1.5,13-2.7,19.5-3.7c4.7-0.7,9.4-1.2,14-1.7c2.5-0.2,5-0.4,7.5-0.5c6.3-0.3,12.5-0.5,18.8-0.2
		c3.4,0.1,6.7,0.1,10.1,0.6c1.9,0.3,3.9,0.2,5.9,0.4c3.7,0.4,7.3,0.8,10.9,1.3c5.8,0.8,11.5,1.9,17.2,3.2c4.9,1.1,9.8,2.3,14.6,3.7
		c8.1,2.4,16,5.1,23.8,8.4c7,2.9,13.8,6.1,20.5,9.7c7.7,4.1,15.1,8.7,22.3,13.6c5.6,3.9,11.1,7.9,16.3,12.3
		C398.3,72.9,399.3,74.1,400.8,74.7z"/>
	<path class="st18" d="M134.5,377.3c8.1-3.8,16.5-6.9,25.1-9.7c14.7-4.8,29.8-8.4,45.1-11c7.3-1.2,14.7-2.1,22.1-2.8
		c11.7-1.1,23.4-1.3,35.2-0.9c8,0.2,16,1,24,2c16.3,2.1,32.2,5.8,47.8,11.2c8.6,2.9,16.9,6.4,25.1,10.2c1.5,0.7,2.6,1.6,3,3.2
		c0.1,0.5,0.4,0.9,0.6,1.4c-2.1,2.2-4.6,4.1-7,6c-9.2,7.4-19.2,13.7-29.8,19c-14,7-28.7,11.9-44.1,14.7c-4.9,0.9-9.8,1.5-14.8,2
		c-8.3,0.9-16.7,0.9-25,0.6c-6.9-0.3-13.8-1.1-20.6-2.3c-4.5-0.8-8.9-1.9-13.3-2.8c-4.3-1.4-8.7-2.5-13-4
		c-15.7-5.5-30.2-13.1-43.7-22.9c-5.3-3.9-10.3-8.1-15.2-12.4C135.4,378.3,135,377.8,134.5,377.3z"/>
	<path class="st19" d="M324,189.2c0.1-6.9,1.3-13.8,4.6-20.2c1.5-2.9,3.3-5.5,5.8-7.5c5-4.1,11-4.1,16,0c2.7,2.2,4.6,4.9,6.1,8
		c3.6,7.4,4.7,15.2,4.2,23.3c-0.4,5.9-1.6,11.7-4.4,17c-1.4,2.8-3.2,5.4-5.6,7.4c-5.1,4.4-11.3,4.4-16.4,0.1
		c-2.7-2.3-4.7-5.2-6.2-8.4C325.2,202.8,324,196.2,324,189.2z"/>
	<path class="st19" d="M140,189.4c0.1-6.7,1.2-13.2,4-19.3c1.5-3.2,3.4-6.1,6.1-8.4c5.3-4.5,11.7-4.4,16.9,0.2
		c2.6,2.3,4.4,5.1,5.9,8.2c3.4,7.4,4.4,15.2,3.9,23.2c-0.4,5.1-1.4,10.1-3.5,14.8c-1.5,3.4-3.5,6.5-6.3,9c-5.3,4.6-11.6,4.6-16.9,0
		c-2.8-2.5-4.8-5.6-6.3-9C141,202.1,140,195.9,140,189.4z"/>
	<path class="st17" d="M64,389.7c0.2,0.2,0.3,0.4,0.4,0.7l0,0C64.1,390.2,64,390,64,389.7C64,389.7,64,389.7,64,389.7z"/>
	<polygon class="st17" points="64.3,390.4 64.4,390.5 64.3,390.4 	"/>
	<path class="st17" d="M448.7,132.6c0.1,0.1,0.2,0.1,0.3,0.2c0.1,0.1,0.4,0.4,0.2,0.5c-0.2,0.2-0.3-0.2-0.4-0.4
		C448.7,132.8,448.7,132.7,448.7,132.6C448.7,132.6,448.7,132.6,448.7,132.6z"/>
</g>
</svg>
