<?xml version="1.0" encoding="utf-8"?>
<!-- Generator: Adobe Illustrator 25.3.1, SVG Export Plug-In . SVG Version: 6.00 Build 0)  -->
<svg version="1.1" id="Layer_1" xmlns="http://www.w3.org/2000/svg" xmlns:xlink="http://www.w3.org/1999/xlink" x="0px" y="0px"
	 viewBox="0 0 500 500" style="enable-background:new 0 0 500 500;" xml:space="preserve">
<style type="text/css">
	.st0{fill:#E8E8E8;}
	.st1{fill:#D6D6D6;}
	.st2{fill:#302D2E;}
	.st3{fill:#201F1F;}
</style>
<g>
	<g>
		<path class="st0" d="M28,173.4c1.3-6.1,2.5-12.1,4-18.1c3-11.8,6.6-23.4,11.9-34.3c2.6-5.4,5.7-10.6,10.2-14.8
			c3.6-3.3,7.7-4.3,12.5-3.7c6.8,0.9,12.1,4.6,16.9,9.1c7.3,6.8,12.7,15,17.7,23.5c4.6,7.9,8.5,16.2,12,24.6
			c2.7,6.5,4.8,13.3,6.7,20.1c2.2,8,5,15.8,8.1,23.4c3,7.3,6.3,14.4,10.8,20.9c2.3,3.3,4.7,6.5,8.4,8.5c4.2,2.3,5.9,0,6.2-3.6
			c0.6-5.2-0.3-10.4-1-15.6c-0.4-3.6-1-7.1-1.2-10.7c-0.3-5.1-0.5-10.3-0.9-15.4c-0.3-3.6-0.5-7.3-0.5-10.9c0-1.7-0.4-3.3-0.3-5
			c0.2-6.1,0.4-12.2,1.1-18.3c0.9-7.6,2.4-15.1,4.8-22.4c2.4-7.3,5.9-14.2,10.1-20.6c3.8-5.7,7.9-11.2,12.4-16.3
			c8.4-9.4,18-17.3,29-23.6c8.5-4.9,17.5-8.6,27-11.1c4.9-1.3,9.9-2.3,15-2.9c6.4-0.9,13-0.9,19.4-0.5c8.8,0.5,17.5,2.2,25.9,5.2
			c7.5,2.6,14.5,6.2,20.9,10.9c3.5,2.6,6.9,5.4,9.8,8.7c5.9,6.5,10.4,13.8,13.3,22.1c1.9,5.5,3.4,11.2,4.3,16.9c0.5,3,0.7,6,1,9.1
			c0.3,3.7,0.1,7.4,0.2,11.1c0.1,5-0.5,10-1.1,15c-0.9,8.6-2.7,17.1-4.6,25.5c-2.5,11.1-5.8,22-8.4,33.1c-1.1,4.8-2.2,9.6-2.1,14.5
			c0,2.1,0.3,4.2,1.8,5.9c1.8,2.2,5.1,2.7,8.3,1.4c3.4-1.3,6.2-3.4,8.9-5.7c1.7-1.5,3.6-3,5.2-4.7c4.4-4.7,8.7-9.4,12.8-14.4
			c6-7.2,11.7-14.5,17.6-21.8c4.1-5,8-10.2,12-15.2c3.3-4.1,6.8-8.1,10.2-12.2c5.2-6.2,10.7-12.3,16.6-17.9
			c5.6-5.3,11.4-10.3,18.3-13.7c3.3-1.6,6.8-2.8,10.6-2.7c3.5,0.1,6.5,1.4,9.2,3.7c4.8,4,7.4,9.4,9.7,15c2.5,6.2,4.1,12.7,5.4,19.2
			c1,5.2,1.8,10.5,2.3,15.8c0.5,4.5,0.8,9,1.3,13.4c0.2,1.6,0.2,3.3,0.3,4.9c0.6,11.9,0.4,23.8,0.3,35.7c0,3.8-0.3,7.7-0.5,11.5
			c-0.4,5.3-0.8,10.5-1.3,15.8c-0.5,5.1-1,10.2-1.7,15.3c-0.9,6.3-1.9,12.5-3.3,18.6c-1.1,4.7-2.4,9.4-4.5,13.7
			c-1.3,2.7-3.5,4.1-6.2,5c-2,0.6-4.8-0.7-6.4-2.8c-2.8-3.7-4.5-7.9-6.4-12.1c-2.5-5.7-4.8-11.6-8.5-16.7c-1.2-1.6-2.4-3.1-4.1-4.2
			c-2.9-1.9-5.1-1.6-7.6,1.4c-2.5,3-3.9,6.7-5.3,10.3c-2,4.8-3.6,9.8-6.1,14.4c-0.8,1.5-1.8,3-3,4.2c-3.1,3-6.6,2.5-8.6-1.3
			c-1.5-2.8-2.1-5.9-2.6-9c-0.9-5.2-1.4-10.5-2.8-15.6c-1-3.8-3.6-6-7-5.9c-2,0.1-3.7,1-5.1,2.4c-3.3,3-5.8,6.7-8,10.5
			c-2.5,4.1-4.5,8.5-7.5,12.3c-4.1,5.3-9.1,9.6-15,12.8c-7.3,4-15.2,6-23.2,7.7c-1.2,0.3-2.5,0.6-3.7,1c-2.4,0.9-3.4,3-4.3,5.2
			c-1.7,3.9-1.3,7.9-0.1,11.9c1.8,6.1,4.9,11.7,8,17.2c3.2,5.7,6.4,11.3,8.1,17.8c1.6,6.1,1.2,12.1-0.8,18
			c-1.3,3.9-2.8,7.6-4.1,11.5c-1.4,4.2-2.5,8.6-2.3,13.1c0.3,5.7,3.6,8.4,9.2,9c4.3,0.5,8.6-0.3,12.9-0.8c3-0.3,6.1-0.8,9.1-0.6
			c0.4,0,0.8-0.1,1.2,0.3c-3.7,1.6-7.5,3-11.3,4.1c-6.7,2-13.5,2.9-20.4,2.9c-7.5,0-12.6-3.5-15.6-10.3c-1.8-4-2.9-8.2-3.9-12.4
			c-1.2-4.9-2.2-9.9-4.2-14.6c-2.7-6.3-7.6-10.1-14-12c-4.1-1.2-8.4-0.8-12.6-0.6c-2.1,0.1-4.1,0.2-6.2,0.3
			c-2.9,0.2-5.8,0.2-8.6,0.2c-3.2,0-6.5,0-9.7-0.2c-4.7-0.4-9.5-0.7-14.2-1.3c-6.7-0.9-13.5-1.5-20-3.7c-6.4-2.2-12.1-5.7-17.2-10.1
			c-9.5-8.2-16.4-18.4-22.4-29.3c-6.9-12.7-12.3-26-16.7-39.7c-3.9-12-7.1-24.2-9.6-36.5c-0.1-0.7-0.2-1.3-0.2-1.8
			c0.7,6,0.4,12.4,0.9,18.6c0.3,3.7,0.4,7.5,0.7,11.2c0.3,4.9,0.7,9.8,1.2,14.6c0.4,4.3,0.9,8.6,1.4,13c0.1,1.2-0.2,1.5-1.6,1.3
			c-4.7-0.8-8.9-2.6-12.9-5.2c-5.6-3.6-10.4-8-14.9-12.9c-7.7-8.4-14-17.8-20.4-27.2c-2.9-4.2-5.7-8.4-9-12.3
			c-1.6-1.9-3.2-3.7-5.4-4.7c-3.1-1.4-5.3-0.8-7.3,1.9c-2,2.8-3.1,6-4.5,9.1c-1.2,2.6-2.4,5.1-4.2,7.4c-1.1,1.4-2.4,2.4-3.9,3.2
			c-2.5,1.3-4.6,0.5-5.8-2c-1-2.1-1.3-4.4-1.5-6.7c-0.4-4.6-0.5-9.1-0.6-13.7c-0.2-5.2-0.4-10.5-1.8-15.6c-0.6-2.3-1.4-4.7-2.8-6.7
			c-0.3-0.4-0.6-0.8-1-1.2c-3-3-6.1-2.9-8.8,0.4c-2.1,2.6-3.7,5.6-5.1,8.6c-1.9,4-3.8,8.1-6.1,11.9c-1.3,2.1-2.6,4.2-4.9,5.5
			c-2.3,1.4-3.8,1-5.1-1.3c-1.2-2.1-1.7-4.3-2.3-6.6c-1.6-6.7-2.3-13.5-3.1-20.3c-0.7-6.1-1.1-12.3-1.6-18.4
			c-0.3-3.6-0.4-7.2-0.7-10.8c-0.4-6.2-0.7-12.3-1-18.5c-0.2-3.2-0.7-6.4-0.1-9.6C28.2,173.9,28.2,173.6,28,173.4z"/>
		<path class="st1" d="M28,173.4c0.1,0.2,0.3,0.4,0.2,0.6c-0.2,2.8,0.2,5.6,0.3,8.3c0.2,5.9,0.6,11.7,0.8,17.6
			c0.1,2.8,0.3,5.6,0.5,8.4c0.3,4.4,0.7,8.8,1,13.2c0.2,2.5,0.4,5.1,0.6,7.6c0.2,2.7,0.5,5.3,0.8,8c0.5,4.1,1,8.1,1.9,12.1
			c0.7,3.2,1.3,6.6,3.1,9.4c1,1.6,2.2,1.8,4,0.9c2.3-1.3,3.7-3.4,5-5.5c2.3-4,4.3-8.2,6.3-12.3c1.4-3,2.9-5.9,5.1-8.4
			c3.4-3.9,7-3.2,10.1,0.7c2.4,3.1,3.3,6.8,3.9,10.6c0.9,5.6,1,11.2,1.2,16.9c0.2,4.6,0.1,9.3,1.3,13.8c0.1,0.5,0.3,1.1,0.5,1.6
			c1.2,2.7,3.3,3.3,5.9,1.7c2.5-1.5,4.1-3.7,5.4-6.2c2-3.6,3.2-7.5,5.1-11.1c0.7-1.3,1.4-2.5,2.5-3.5c1.9-1.8,4.1-1.7,6.3-0.7
			c2.9,1.4,4.9,3.8,6.8,6.3c5.1,6.5,9.5,13.6,14.3,20.3c3.7,5.2,7.5,10.4,11.7,15.3c2.3,2.7,4.7,5.4,7.3,7.8
			c5.7,5.3,11.9,9.9,19.6,12.1c1.1,0.3,2.3,0.5,3.5,0.8c0.7,0.2,0.8-0.2,0.7-0.8c-0.6-5.1-1.2-10.3-1.6-15.5
			c-0.4-4.8-0.8-9.5-1.1-14.3c-0.3-5-0.5-10.1-0.9-15.1c-0.3-4.6,0.2-9.2-0.7-13.8c0.1,0,0.3,0,0.4-0.1c0.4,1.7,0.8,3.4,1.1,5.2
			c1.7,8.4,3.9,16.8,6.3,25c1.7,5.8,3.5,11.5,5.5,17.2c2.4,6.7,5,13.2,8,19.7c3.9,8.5,8.3,16.7,13.6,24.4c2.4,3.4,5,6.7,7.8,9.9
			c4.7,5.3,10,9.8,16.2,13.3c4.5,2.6,9.3,4.3,14.5,5.2c4.8,0.8,9.6,1.5,14.4,2.1c2.2,0.3,4.4,0.4,6.7,0.6c4.5,0.4,9,0.5,13.5,0.6
			c5.6,0.2,11.2-0.1,16.8-0.4c4.3-0.2,8.7-0.7,12.9,0.5c6.9,2,12,6.1,14.7,13.1c2,5.3,3,10.8,4.4,16.2c1.3,4.9,2.6,9.8,5.6,14
			c2.4,3.3,5.6,5.3,9.8,5.8c8.6,0.9,16.9-0.6,25-3.1c2.6-0.8,5.2-1.7,7.7-2.8c0.7-0.3,1.4-0.5,2.1-0.4c0.9,0.1,1.8,0.3,2.1,1.2
			c0.3,0.9-0.4,1.6-1,2.2c-1.7,1.9-3.8,3.3-6,4.5c-8.2,4.5-16.9,7.8-26.1,9.7c-3.9,0.8-7.8,1.3-11.7,0.8c-8.5-1.2-16.2-4-20.4-12.5
			c-3.2-6.6-6.1-13.3-9.4-19.8c-2.5-4.8-6.4-7.5-11.9-8c-4.7-0.5-9.2,0.4-13.7,1.3c-6.2,1.3-12.3,2.8-18.5,4.1
			c-3.3,0.7-6.7,1-10.1,1.3c-5.6,0.5-11,0.1-16.4-1.2c-8-2-15.2-5.9-21.7-11c-5.4-4.3-9.9-9.3-13.8-14.9c-3.7-5.3-6.6-11.1-9.4-17
			c-3.6-7.8-6.2-15.9-10-23.6c-0.9-1.8-1.9-3.4-3.2-4.9c-1.7-2.1-3.9-2.9-6.4-3.2c-8.4-0.8-16.2-3.5-23.3-8
			c-4.4-2.8-8.2-6.4-11.7-10.3c-5.4-6.1-9.4-13.2-14.4-19.6c-2.8-3.5-5.9-6.7-10.4-7.8c-2.5-0.6-4.3,0.1-5.8,2.3
			c-1.7,2.5-2.2,5.4-2.7,8.2c-1.1,5.9-1.4,12-3,17.9c-0.9,3.1-2,5.9-4.3,8.3c-2.7,2.9-9.1,2.8-11.9,0.1c-2.6-2.5-3.9-5.6-4.9-8.9
			c-2-6.6-2.7-13.5-4.4-20.1c-0.8-3.2-1.8-6.4-3.9-9.1c-0.8-1.1-1.9-1.8-3.1-2.4c-1.5-0.7-3-0.3-4,1.1c-2.3,3-3.2,6.6-4.1,10.2
			c-2.1,8.9-3,18-5,26.9c-0.4,2-0.9,4-1.8,5.9c-1,2.3-2.1,2.5-3.8,0.7c-1.2-1.3-1.9-2.9-2.5-4.5c-3.3-8.3-5.7-16.9-7.6-25.7
			c-1.2-5.7-2.2-11.4-2.9-17.2c-0.5-3.9-1-7.9-1.2-11.8c-0.3-4.9-0.6-9.7-0.9-14.6c-0.4-7.8-0.2-15.6-0.1-23.3
			c0-3.7,0.1-7.4,0.5-11.1c0.5-5,0.7-10.1,1.3-15.1c0.5-4.4,0.9-8.8,1.5-13.1c0.7-5,1.5-10,2.3-15C27.3,177,27.7,175.2,28,173.4z"/>
		<path class="st2" d="M269.1,214.2c0,6.9-0.8,14-1.7,21.1c-1.2,8.5-2.8,16.9-5.5,25.1c-1.8,5.4-4,10.6-7.6,15.1
			c-2.8,3.5-6.1,6.1-10.8,6.3c-3.8,0.2-7.5-0.7-10.9-2.5c-5.2-2.7-9-6.9-12.1-11.9c-4.1-6.5-6.4-13.7-8-21.1
			c-2.3-11-2.6-22.1-1.7-33.2c1-11.6,3.1-23,7.6-33.8c2.7-6.3,6-12.2,11.2-16.9c4.1-3.8,8.8-6.1,14.6-5.6c5.1,0.4,9,3.1,12.2,6.9
			c4.3,5.2,6.7,11.4,8.5,17.8c1.9,6.7,3,13.5,3.7,20.4C268.8,205.9,269,209.9,269.1,214.2z"/>
		<path class="st2" d="M282.8,96.3c14.8,0,26.6,12,26.5,26.8c-0.1,14.5-12.1,26.5-26.7,26.4c-15.2-0.1-26.4-12.6-26.4-26.6
			C256.2,108.6,267.8,96.2,282.8,96.3z"/>
		<path class="st3" d="M237.6,122.8c0.2,14-11.2,26.5-26.4,26.6c-14.7,0.1-26.6-11.9-26.6-26.5c0-14.7,11.9-26.5,26.6-26.5
			C226,96.3,237.8,108.5,237.6,122.8z"/>
	</g>
</g>
</svg>
