<?xml version="1.0" encoding="utf-8"?>
<!-- Generator: Adobe Illustrator 25.3.1, SVG Export Plug-In . SVG Version: 6.00 Build 0)  -->
<svg version="1.1" id="Layer_1" xmlns="http://www.w3.org/2000/svg" xmlns:xlink="http://www.w3.org/1999/xlink" x="0px" y="0px"
	 viewBox="0 0 500 500" style="enable-background:new 0 0 500 500;" xml:space="preserve">
<style type="text/css">
	.st0{fill:#FECF53;}
	.st1{fill:#FFC448;}
	.st2{fill:#FFF0CA;}
	.st3{fill:#FFD15E;}
	.st4{fill:#FFF2D0;}
	.st5{fill:#FFEDC6;}
	.st6{fill:#FFDF8C;}
	.st7{fill:#FFDF8D;}
	.st8{fill:#FFF5DC;}
	.st9{fill:#FFF5DA;}
	.st10{fill:#FFD371;}
	.st11{fill:#FFD372;}
	.st12{fill:#FFE193;}
	.st13{fill:#FFE091;}
	.st14{fill:#FF2223;}
	.st15{fill:#FFD77A;}
	.st16{fill:#71523F;}
	.st17{fill:#FF6669;}
	.st18{fill:#FFD068;}
</style>
<g>
	<path class="st0" d="M11.2,257c0-4.6,0-9.2,0-13.8c0.3-0.5,0.1-1.1,0.2-1.7c0-1.9,0.3-3.9,0.2-5.8c0-9.4,1.2-18.6,2.9-27.8
		c2.2-12.3,5.3-24.3,9.4-36.1c6.2-17.9,14.5-34.9,24.7-50.9c6.7-10.4,14.1-20.3,22.3-29.5C78.3,83,86.4,75,95.1,67.6
		c12.2-10.4,25.3-19.5,39.3-27.2c22.3-12.4,46.1-20.8,71.1-25.6c6.5-1.2,13-2.1,19.5-2.8c2.8-0.3,5.6-0.3,8.4-0.4
		c3.3-0.1,6.6-0.3,9.9-0.2c4.6,0,9.3,0,13.9,0c20.4-0.2,40.3,3.1,59.8,8.7c12,3.5,23.7,8,35,13.2c8,3.7,15.6,8.1,23.2,12.5
		c0.4,0.2,0.8,0.5,1.1,0.9c1.3,2.9,3.2,5.4,4.8,8.2c4.8,8.3,9.1,16.8,12.9,25.6c0.4,0.9,1,1.8,0.1,2.8c-0.8,0.2-1.3-0.3-1.9-0.8
		c-9.6-8.1-19.8-15.5-30.6-21.9c-12.3-7.3-25.1-13.3-38.5-18c-12.9-4.6-26-7.9-39.5-10c-5.6-0.9-11.1-1.5-16.8-2
		c-7.1-0.6-14.2-0.7-21.3-0.6c-11,0.1-21.9,1.1-32.7,2.9C200.3,34.8,188,38,176,42.2c-7.5,2.6-14.8,5.7-22,9.1
		c-13.8,6.5-26.7,14.5-38.9,23.7c-10.4,7.8-19.8,16.6-28.6,26.1c-12.2,13.1-22.6,27.6-31.2,43.3c-9.1,16.7-16.1,34.2-20.7,52.6
		c-2.4,9.8-4.2,19.7-5.3,29.8c-1.2,10.5-1.6,21-1.3,31.5c0.4,11,1.6,22,3.6,32.8c2.8,14.9,7,29.4,12.8,43.5
		c4.8,11.8,10.6,23,17.4,33.8c3.1,4.9,6.4,9.6,9.3,14.5l-0.1-0.1c-7.5-11.6-12.4-24.4-16.9-37.3c-4.2-12.3-7.1-24.9-8.9-37.8
		c-0.7-4.9-1.2-9.9-1.6-14.9c-0.6-7.7-0.8-15.4-0.6-23c0.2-9.1,1-18.2,2.4-27.3c2-13.4,5.2-26.5,9.6-39.3c2.8-8.3,6.2-16.4,10-24.2
		c1.2-2.5,2.5-4.9,3.7-7.4c0.4-0.7,0.7-1.5,1.6-1.7c1.1,0.5,0.8,1.4,0.7,2.3c-0.4,2.5-0.8,5-0.8,7.5c-0.2,8.3,1.6,16.3,4.5,24.1
		c4.2,11.2,10.3,21.2,18,30.3c8.8,10.3,18.9,19.1,29.9,26.8c5.9,4.1,12,7.8,18.2,11.4c1.8,1.1,3.3,0.9,5-0.1
		c10-5.7,19.6-11.9,28.5-19.1c13.2-10.7,24.5-23.1,32.5-38.2c4.6-8.7,7.9-17.8,9.1-27.6c1.5-13.1-1.4-25.1-10.3-35.2
		c-6.6-7.6-14.9-11.7-24.9-12.7c-8.9-0.9-17,1.2-24.1,6.7c-5.3,4.1-8.9,9.4-11.4,15.6c-0.3,0.7-0.5,1.5-0.9,2.1
		c-0.7,1.1-1.4,1.1-2.1,0c-0.3-0.6-0.5-1.2-0.7-1.8c-5-12-13.3-20.1-26.5-22.3c-9.6-1.6-18.5,0.6-26.7,5.8c-0.8,0.5-1.5,1.4-2.7,0.7
		c-0.5-0.9,0.1-1.6,0.6-2.2c3.3-4.5,6.8-8.8,10.4-13.1c3.3-3.9,6.8-7.6,10.4-11.3c3.6-3.8,7.6-7.4,11.5-10.9
		c6.2-5.5,12.8-10.7,19.6-15.4c8.8-6.2,18-11.7,27.6-16.5c19.6-9.8,40.2-16.6,61.8-20.3c8.4-1.4,16.8-2.3,25.3-2.8
		c7.5-0.5,14.9-0.5,22.4-0.2c18.4,0.8,36.5,3.8,54.2,9.1C344,67,357.9,72.9,371.3,80c9.7,5.1,18.8,11.2,27.5,17.7
		c0.9,0.7,2,1.3,2.3,2.5c1.6,4.2,2.8,8.6,4,12.9c2.4,9.2,4.4,18.4,5.7,27.8c0.1,0.9,0.1,1.8-0.6,2.4c-1.1,0.5-2-0.2-3-0.6
		c-5.3-2.5-10.9-3.8-16.7-3.7c-12.9,0.3-22.6,6.2-29.2,17.2c-1.2,2-2.1,4.2-3,6.4c-0.3,0.7-0.5,1.8-1.5,1.8s-1.2-1-1.5-1.7
		c-2.1-5.8-5.4-10.8-9.9-15c-5.3-4.9-11.5-7.5-18.6-8.4c-6.2-0.7-12.2,0.1-17.9,2.4c-11.1,4.4-18.4,12.6-22.4,23.7
		c-3.6,9.7-3.4,19.5-0.9,29.5c2.9,11.5,8,22,14.9,31.7c5,7.1,10.7,13.5,17.1,19.4c9.3,8.6,19.6,16.1,30.5,22.6
		c2.1,1.3,4.3,2.4,6.4,3.7c1.7,1,3.2,1,4.9,0c6.6-3.8,13-7.7,19.2-12.1c8-5.7,15.6-11.9,22.5-18.9c0.6-0.7,1.3-1.4,2.4-1.3
		c1.2,0.7,0.7,1.7,0.4,2.7c-2.1,7.4-4.7,14.6-7.5,21.8c-6.1,15.4-13.9,29.9-23,43.7c-5.8,8.7-12.1,16.8-19,24.7
		c-5.2,6-10.8,11.7-16.5,17.1c-8.2,7.8-17,14.9-26.3,21.4c-11,7.7-22.5,14.4-34.7,20.2c-13.2,6.3-26.8,11.3-40.9,15.1
		c-9.8,2.6-19.7,4.6-29.7,5.9c-5.4,0.7-10.8,1.3-16.3,1.6c-6.4,0.3-12.9,0.8-19.3,0.6c-7.1-0.2-14.2-0.6-21.2-1.3
		c-9.7-1-19.3-2.5-28.8-4.7c-16.3-3.8-32.1-9.1-47.2-16.2c-7.8-3.6-15.4-7.5-22.6-12.1c-0.4-0.3-0.9-0.2-1.3-0.4
		c-0.7-0.3-1.1-0.8-1.5-1.4c-8.6-13.6-15.8-28-21.6-43c-5-13-8.8-26.4-11.3-40.1c-1.6-8.8-3.1-17.5-3.2-26.5c0-1.3-0.2-2.7-0.2-4
		c0.1-2-0.2-4-0.2-5.9C11.3,258.3,11.5,257.6,11.2,257z"/>
	<path class="st1" d="M394.1,83.1c-0.1-1.3-0.8-2.4-1.3-3.6c-2.3-5-4.6-10.1-7.2-15c-2.3-4.3-4.7-8.6-7.2-12.8
		c-0.7-1.2-1.5-2.4-2.2-3.6c-0.2-0.3-0.3-0.6,0-0.9c1-0.5,1.8,0.2,2.6,0.7c8.4,5.4,16.5,11.2,24.2,17.6c7,5.9,13.8,12,20.1,18.7
		c8.7,9.1,16.7,18.8,23.9,29.1c7.8,11.3,14.6,23.1,20.5,35.5c5.9,12.5,10.5,25.4,14.1,38.7c3.1,11.4,5.4,23,6.6,34.7
		c0.6,5.6,0.7,11.2,0.6,16.9c0,1.5,0,2.9,0,4.4c0.1,0.7-0.2,1.4,0.2,2c0,3.2,0,6.3,0,9.5c-0.4,0.6-0.1,1.3-0.2,2c0,1.5,0,2.9,0,4.4
		c0.3,15.2-2.1,30-5.5,44.7c-4.8,20.2-12.2,39.4-21.9,57.6c-7.6,14.2-16.6,27.5-27,39.9c-6,7.2-12.4,14.1-19.3,20.6
		c-9,8.5-18.5,16.2-28.7,23.3c-11.1,7.7-22.8,14.4-35.1,20.1c-12.8,6-26.1,10.8-39.9,14.4c-11,2.9-22.1,5-33.3,6.3
		c-4.5,0.5-9.1,0.5-13.7,0.6c-1,0-2,0-3,0c-1.5,0-3,0-4.6,0c-4.4,0-8.8,0-13.2,0c-1.5,0-3,0-4.5,0c-1,0-2,0-3,0
		c-12,0-23.8-1.7-35.6-4.2c-13.5-2.8-26.6-6.8-39.4-12c-20.7-8.3-39.9-19.3-57.6-33c-10.2-7.9-19.7-16.6-28.5-26
		c-9.2-9.8-17.5-20.3-24.8-31.5c-0.5-0.8-1.2-1.5-0.7-2.6c0.1-0.5,0.4-0.5,0.8-0.3c0.9,0.5,1.7,1,2.6,1.5c6.1,3.7,12.4,7,18.8,10
		c10.8,5.1,21.9,9.4,33.4,12.8c9.4,2.8,18.9,5,28.6,6.7c4.6,0.8,9.3,1.4,13.9,2c3.3,0.4,6.6,0.6,10,0.9c2.8,0.2,5.5,0,8.3,0.3
		c4.2,0.5,8.5,0.5,12.7,0.2c3.6-0.2,7.1,0,10.7-0.5c1.8-0.3,3.7-0.2,5.6-0.4c5.7-0.5,11.3-1.3,16.9-2.1c7-1,14-2.5,20.8-4.2
		c9.3-2.3,18.4-5.3,27.3-8.7c9-3.4,17.6-7.5,26.1-11.9c5.6-2.9,10.9-6.2,16.3-9.5c6.1-3.8,11.9-8,17.6-12.3c2.9-2.2,5.7-4.7,8.6-7
		c6.6-5.4,12.7-11.5,18.7-17.7c2.9-2.9,5.6-6,8.2-9.1c2.5-2.9,4.9-5.8,7.3-8.8c2.5-3.2,4.9-6.4,7.2-9.8c3.4-5,6.8-10.1,9.9-15.4
		c4.1-6.9,7.8-14.1,11.2-21.4c2.7-5.8,5.1-11.6,7.3-17.6c2-5.3,3.6-10.7,5.3-16.1c0.1-0.5,0.3-0.9-0.2-1.3c-0.2-1.3,0.7-2.1,1.4-2.9
		c7.1-7.8,13.1-16.4,17.7-25.9c3.6-7.6,6.2-15.5,7.3-23.8c1.6-12.3-1-23.7-8.6-33.7c-2.6-3.5-5.8-6.3-9.4-8.7
		c-0.7-0.5-1.8-0.8-1.6-2c0.5-0.6,0.4-1.2,0.3-1.9c-0.7-4.9-1.5-9.8-2.6-14.7c-1.8-8.5-3.9-16.9-6.6-25.1c-0.1-0.4-0.2-0.9-0.3-1.4
		c1-0.5,1.7,0.3,2.4,0.8c3.4,2.6,6.7,5.5,10,8.3c5.2,4.6,10,9.6,14.8,14.5c3.8,3.9,7.4,7.9,10.4,12.4c0.1,0.1,0.2,0.3,0.3,0.4
		c0,0.1,0.1,0.1,0.1,0.2c0.3,0.5,0.6,0.9,0.9,1.4c0,0,0,0,0-0.1c-0.4-0.4-0.6-0.9-0.9-1.3c-0.1-0.1-0.2-0.3-0.3-0.4
		c-0.1-0.2-0.3-0.4-0.4-0.6c-4.4-5.9-8.1-12.2-12.6-18c-4.6-5.9-9.4-11.7-14.5-17.2c-4.8-5.3-10-10.2-15.4-15
		C394.9,84.7,394.1,84.2,394.1,83.1z"/>
	<path class="st2" d="M257.7,11.2c0,0.1,0,0.2,0,0.3c-4.9,0-9.9,0-14.8,0c0-0.1,0-0.2,0-0.3C247.8,11.2,252.7,11.2,257.7,11.2z"/>
	<path class="st3" d="M243.5,488.7c4.5,0,9,0,13.4,0c0.2,0.1,0.2,0.2,0,0.3c-4.5,0-8.9,0-13.4,0
		C243.3,488.9,243.3,488.8,243.5,488.7z"/>
	<path class="st4" d="M11.8,265.1c-0.6-0.7,0-1.8-0.7-2.5c0-1.3,0-2.6,0-3.9c0.1-0.2,0.2-0.2,0.3,0
		C11.5,260.8,12.1,262.9,11.8,265.1z"/>
	<path class="st2" d="M11.2,238.3c0.7-0.8,0-2,0.7-2.8c0.3,2.1-0.3,4.2-0.3,6.3c-0.1,0.2-0.2,0.2-0.3,0
		C11.2,240.6,11.2,239.4,11.2,238.3z"/>
	<path class="st5" d="M488.7,238.6c0.1,0,0.2,0,0.3,0c0,1.6,0,3.3,0,4.9c-0.2,0.2-0.3,0.2-0.3-0.1
		C488.7,241.9,488.7,240.2,488.7,238.6z"/>
	<path class="st5" d="M489,261.5c-0.1,0-0.2,0-0.3,0c0-1.6,0-3.3,0-4.9c0-0.3,0.1-0.3,0.3-0.1C489,258.2,489,259.9,489,261.5z"/>
	<path class="st6" d="M243.5,488.7c0,0.1,0,0.2,0,0.3c-1.5,0-3.1,0-4.6,0c-0.2-0.1-0.2-0.2,0-0.3C240.5,488.7,242,488.7,243.5,488.7
		z"/>
	<path class="st7" d="M257,489c0-0.1,0-0.2,0-0.3c1.5,0,3.1,0,4.6,0c0.2,0.1,0.2,0.2,0,0.3C260,489,258.5,489,257,489z"/>
	<path class="st8" d="M238.9,488.7c0,0.1,0,0.2,0,0.3c-1.1,0-2.1,0-3.2,0c0-0.1,0-0.2,0-0.3C236.8,488.7,237.9,488.7,238.9,488.7z"
		/>
	<path class="st9" d="M261.5,489c0-0.1,0-0.2,0-0.3c1.1,0,2.1,0,3.2,0c0,0.1,0,0.2,0,0.3C263.7,489,262.6,489,261.5,489z"/>
	<path class="st10" d="M488.7,243.5c0.1,0,0.2,0,0.3,0.1c0,0.6,0,1.2,0,1.8C488.5,244.8,488.7,244.1,488.7,243.5z"/>
	<path class="st11" d="M489,256.6c-0.1,0-0.2,0.1-0.3,0.1c0-0.6-0.2-1.3,0.3-1.8C489,255.4,489,256,489,256.6z"/>
	<path class="st12" d="M11.5,258.7h-0.2h-0.2c0-0.6,0-1.2,0-1.8C11.7,257.5,11.5,258.1,11.5,258.7z"/>
	<path class="st13" d="M11.2,241.8c0.1,0,0.2,0,0.3,0c0,0.5,0.1,1-0.3,1.4C11.2,242.7,11.2,242.3,11.2,241.8z"/>
	<path class="st14" d="M410,143c3,1.9,5.9,4,8.5,6.6c6.3,6.5,10.1,14.2,11.6,23.1c1.6,9,0.3,17.8-2.3,26.4
		c-3.7,12.3-10,23.2-18.1,33.2c-2.1,2.6-4.3,5.1-6.5,7.6c-2.9,2.8-5.7,5.7-8.8,8.4c-11.1,9.9-23.4,18.1-36.4,25.3
		c-1,0.5-1.6,0.3-2.4-0.2c-11.2-6.2-21.9-13.1-31.7-21.3c-9.8-8.1-18.5-17.2-25.6-27.8c-6.3-9.4-11.1-19.5-13.6-30.6
		c-2.2-9.5-2.3-18.9,0.9-28.1c3.7-10.7,10.5-19,20.9-23.9c9.7-4.5,19.7-5.1,29.8-1.1c9.2,3.7,15.2,10.6,19.1,19.5
		c0.5,1.2,1,2.5,1.5,3.9c0.6-0.5,0.6-1.2,0.9-1.8c2.9-7.8,7.6-14.3,14.7-18.9c6.6-4.3,13.9-5.7,21.7-5.1
		C399.8,138.8,405,140.5,410,143z"/>
	<path class="st14" d="M85.9,146c2.2-1.4,4.4-3,6.8-4c10.1-4.5,20.3-5.3,30.6-1c7.3,3,12.7,8.4,16.6,15.2c1.2,2,2.1,4.2,2.9,6.4
		c0.2,0.5,0.2,1.1,0.8,1.5c0.3-0.8,0.5-1.5,0.8-2.3c3.5-8.9,9.1-16,17.9-20.2c6-2.9,12.4-3.8,19-3.1c7.8,0.8,14.8,3.6,20.8,8.7
		c7.6,6.4,12.1,14.6,14.2,24.2c1.8,8.5,1,16.8-1.2,25.1c-3.2,12.2-9,23-16.5,33c-8.4,11.2-18.6,20.7-29.9,29
		c-7.6,5.6-15.6,10.6-23.9,15.2c-0.8,0.5-1.5,0.6-2.4,0.1c-14.7-8.1-28.4-17.4-40.5-29.1C91.6,234.8,83,223.6,77,210.6
		c-3.3-7.1-5.7-14.6-6.8-22.3c-0.8-5.6-0.7-11.1,0.4-16.7c0.1-0.5,0.1-1,0.2-1.6c-0.4-0.8-0.2-1.6,0-2.4c2.3-7.7,6.3-14.5,12.3-19.9
		C83.9,146.8,84.7,145.9,85.9,146z"/>
	<path class="st15" d="M85.9,146c-2,1.9-4.1,3.6-5.9,5.7c-4,4.8-6.9,10.2-8.6,16.1c-0.2,0.7-0.4,1.3-0.6,2c-0.5,0.3-0.6,0.8-0.9,1.3
		c-4,7.6-7.7,15.4-10.8,23.5c-2.8,7.3-5.3,14.7-7.3,22.2c-1.8,6.5-3.2,13.1-4.4,19.7c-0.7,3.6-1.2,7.3-1.6,10.9
		c-0.3,2.7-0.7,5.5-1,8.2c-0.2,1.7-0.2,3.4-0.4,5.1c-0.6,7.4-0.6,14.9-0.3,22.3c0.1,3.9,0.3,7.8,0.7,11.7c1.1,10.5,2.6,21,5.1,31.4
		c1.6,6.6,3.4,13.2,5.6,19.6c2.5,7.3,5.3,14.6,8.6,21.6c2.2,4.8,4.5,9.5,7.1,14.2c0.3,0.6,0.7,1.2,0.8,1.9l0,0
		c-0.9-0.5-1.4-1.5-1.9-2.2c-5-7-9.7-14.1-13.9-21.6c-2.7-4.8-5.3-9.7-7.6-14.7c-5.1-10.9-9.3-22.2-12.6-33.8
		c-1.7-5.9-3.2-11.9-4.3-18c-0.9-4.9-1.7-9.9-2.4-14.9c-0.5-4.2-0.8-8.4-1.3-12.6c0-0.1,0-0.2,0-0.4c-0.5-7.5-0.6-15-0.3-22.5
		c0.2-4.3,0.4-8.5,0.9-12.8c0.4-3.2,0.7-6.4,1.1-9.6c0.7-5.2,1.5-10.3,2.6-15.4c1.7-8.3,3.9-16.4,6.6-24.5
		c2.4-7.2,5.2-14.3,8.4-21.3c5.5-12.1,12-23.7,19.6-34.6c3.5-5,7.2-9.8,11-14.6c6.5-8.1,13.9-15.4,21.4-22.6c2.9-2.8,6-5.3,9-7.8
		c4.1-3.3,8.2-6.6,12.6-9.6c4.1-2.9,8.2-5.6,12.5-8.3c5-3.1,10.1-5.9,15.3-8.7c3.7-2,7.6-3.7,11.5-5.4c7.1-3.1,14.3-5.9,21.7-8.2
		c9.1-2.9,18.4-5.2,27.8-6.9c4.2-0.7,8.4-1.5,12.7-1.9c3-0.3,6.1-0.6,9.1-0.9c2.7-0.3,5.4,0,8.1-0.6c0.6-0.1,1.2,0,1.8,0
		c5.1,0,10.2-0.1,15.3,0c3.3,0.1,6.7,0.3,10,0.6c2.7,0.3,5.4,0.5,8,0.8c4.2,0.5,8.5,1.1,12.7,1.8c5.6,1,11.2,2.1,16.7,3.5
		c8.4,2.2,16.7,4.8,24.8,7.9c7.8,3,15.5,6.4,23,10.3c8.5,4.5,16.8,9.5,24.6,15c4.7,3.3,9.1,6.8,13.6,10.3c1.5,1.2,2.9,2.4,4.3,3.6
		c1.7,1.5,3.4,3.1,5.1,4.6c2.3,2.1,4.6,4.2,6.8,6.4c5.2,5.3,10.2,10.8,14.9,16.6c5.4,6.6,10.4,13.6,15.1,20.8
		c0.9,1.4,1.7,2.8,2.6,4.2c0.1,0.1,0.2,0.2,0.3,0.4c0,0.1,0,0.2,0,0.3c0.1,0.4,0,0.4-0.4,0.4l0,0c-0.1-0.1-0.2-0.2-0.3-0.4
		c-6.8-8.5-14.4-16.3-22.3-23.8c-4.4-4.2-9.1-8.1-13.9-11.8c-0.4-0.3-0.8-0.5-1.2-0.7c-1-1.3-2.5-2.1-3.8-3.1
		c-6.2-4.5-12.5-8.8-19.1-12.6c-2.7-1.6-5.4-3.1-8.1-4.5c-7.6-3.9-15.2-7.7-23.2-10.7c-7-2.7-14.1-5.2-21.4-7.1
		c-6.1-1.7-12.3-3.2-18.5-4.3c-4.3-0.8-8.5-1.5-12.8-2c-3.7-0.4-7.3-0.7-11-1.1c-9-0.9-18.1-0.7-27.1-0.5c-3.8,0.1-7.7,0.5-11.5,0.9
		c-8.1,0.7-16.2,2-24.1,3.6c-6,1.2-11.9,2.7-17.7,4.5c-7.5,2.2-14.8,4.8-22.1,7.8c-2.4,1-4.9,2-7.3,3.2c-4.2,2-8.3,4.1-12.4,6.2
		c-5.3,2.8-10.4,5.9-15.4,9.2c-5.2,3.4-10.3,6.9-15.2,10.8c-3.2,2.5-6.3,5-9.4,7.7c-3,2.7-5.9,5.4-8.8,8.1c-3.9,3.6-7.4,7.5-11,11.4
		c-5.1,5.5-9.7,11.3-14.1,17.3C86.3,145,85.9,145.4,85.9,146z"/>
	<path class="st16" d="M180.1,361.8c-4.3-3.8-8-8.1-11.4-12.7c-10.5-13.9-17-29.6-19.6-46.8c-0.1-0.4-0.1-0.8-0.1-1.2
		c-0.5-2.2-0.3-2.1,1.9-2.1c66.2,0,132.5,0,198.7,0c2.2,0,2.2,0,1.9,2.2c-1.7,12.9-5.8,25-12.2,36.4c-5.4,9.5-12.1,18-20.2,25.4
		c-0.3,0.3-0.7,0.6-1.1,0.9c-0.3,0-0.6-0.1-0.8-0.3c-1.1-1.6-2.8-2.2-4.5-2.9c-12.4-5.6-25.4-9.3-38.9-11.3c-4.7-0.7-9.4-1-14.2-1.4
		c-4.9-0.4-9.7-0.4-14.6-0.2c-10.9,0.5-21.7,1.8-32.4,4.3c-9,2-17.8,4.6-26.4,8c-1.3,0.5-2.5,1-3.7,1.6
		C181.7,361.9,181,362,180.1,361.8z"/>
	<path class="st17" d="M180.1,361.8c6.8-3.2,13.9-5.6,21.1-7.7c8.9-2.6,17.9-4.4,27-5.7c9.6-1.3,19.3-1.8,29-1.4
		c20,0.8,39.1,5.2,57.3,13.6c1.6,0.7,2.9,1.6,3.3,3.3c-1.1,1.4-2.5,2.3-3.8,3.4c-6.6,5.3-13.8,9.7-21.5,13.3
		c-7.9,3.6-16.2,6.1-24.8,7.7c-8.3,1.5-16.6,1.7-24.9,1.2c-9.7-0.6-19.1-2.7-28.3-6.1c-9.5-3.5-18.3-8.4-26.4-14.6
		C185.4,366.6,182.6,364.4,180.1,361.8z"/>
	<path class="st15" d="M71.8,383.6c0.1,0.1,0.2,0.1,0.3,0.2c0.1,0.1,0.4,0.3,0.2,0.5c-0.2,0.1-0.3-0.2-0.4-0.4
		C71.8,383.8,71.8,383.7,71.8,383.6L71.8,383.6z"/>
	<path class="st18" d="M438.6,136.7c0.1-0.1,0.2-0.2,0.4-0.4c0.6,0.7,1.2,1.5,1.4,2.5l0,0C439.5,138.3,439,137.6,438.6,136.7z"/>
	<path class="st18" d="M440.3,138.8c0.1,0.1,0.2,0.1,0.3,0.2c0.1,0.1,0.4,0.3,0.2,0.5c-0.2,0.1-0.3-0.2-0.4-0.4
		C440.4,139,440.4,138.9,440.3,138.8L440.3,138.8z"/>
	<path class="st18" d="M438.9,136c-0.1-0.1-0.2-0.2-0.3-0.4C438.7,135.8,438.8,135.9,438.9,136z"/>
	<path class="st18" d="M438.2,136.3c0.1,0.1,0.2,0.2,0.3,0.4C438.5,136.6,438.3,136.5,438.2,136.3z"/>
</g>
</svg>
