<?xml version="1.0" encoding="utf-8"?>
<!-- Generator: Adobe Illustrator 25.3.1, SVG Export Plug-In . SVG Version: 6.00 Build 0)  -->
<svg version="1.1" id="Layer_1" xmlns="http://www.w3.org/2000/svg" xmlns:xlink="http://www.w3.org/1999/xlink" x="0px" y="0px"
	 viewBox="0 0 500 500" style="enable-background:new 0 0 500 500;" xml:space="preserve">
<style type="text/css">
	.st0{fill:#FE5C84;}
	.st1{fill:#CD0323;}
	.st2{fill:#FEB4BA;}
	.st3{fill:#CE0424;}
	.st4{fill:#FE2741;}
	.st5{fill:#FE2842;}
	.st6{fill:#FD2640;}
</style>
<g>
	<g>
		<path class="st0" d="M198.4,317.3c18.5,5.9,33.6,16.6,45.6,32.1c-0.9-17.5,1.9-34.5,6.9-51.1c0.6-2.5-1.1-4.2-2.3-6
			c-4.5-7.1-9.7-13.6-15.6-19.5c-5.2-5.2-11-9.8-17.7-12.9c-0.4-0.2-1.2-0.2-1.1-1c9.6,0.1,18.3,3,25.7,9.3
			c7.5,6.3,10.9,14.8,12.8,24.1c0.6-1.7,1.2-3.3,1.8-5c0.6-1.7,1.2-3.5,1.9-5.2c4.9-12.3,9.9-24.6,14.8-36.9
			c5.6-14.1,10-28.5,12.1-43.6c0.1-0.6,0.1-1.3,0.2-1.9c-0.2-2.1,0-4.2,0.2-6.2c0.1-1-0.3-1.8-0.9-2.7c-5.9-8.4-12.7-15.9-20.7-22.4
			c-3.5-2.9-7.4-5.3-11.4-7.3c-0.7-0.3-1.5-0.4-1.8-1.3c0.5-0.5,1.1-0.3,1.6-0.2c10.7,0.7,20.2,4,27.9,11.7c2.6,2.6,4.6,5.8,6.4,9
			c0.3-8.7-0.5-17.4-1.4-26c0.3-0.5,0.8-0.4,1.2-0.2c1.7,0.7,3.1,0.1,4.3-1.1c0.4-0.4,0.8-0.8,1.5-0.7c1.6,11.1,2.2,22.3,1.7,33.6
			c-0.7,13.8-2.9,27.3-6.7,40.5c-2.7,9.4-6.2,18.5-9.8,27.6c-0.2,0.5-0.4,1-0.8,2.1c13.6-12.9,29.1-20.8,47.1-23.9
			c0.8,2.2,0,4.1-0.8,6.1c-0.9-0.5-1.8-0.1-2.6,0.1c-20.2,4.8-36.7,15.3-48.9,32.3c-3.2,4.5-4.7,9.7-6.7,14.8
			c-4.5,11.4-7.9,23.2-9.9,35.3c-2.2,13.3-2.4,26.7-0.3,40.1c1.1,6.9,2.6,13.8,4.7,20.5c0.3,0.8,0.6,1.7,1,2.5
			c0.1-2.8,0.2-5.5,0.7-8.2c1.8-9.7,7.4-17,15-22.8c4.8-3.7,10.1-6.6,15.9-8.6c0.3,1-0.5,1.5-1.1,2c-7,5.9-11.9,13.3-16.2,21.2
			c-4.1,7.6-7.2,15.7-9.6,24c-0.5,1.6-0.3,3.1-0.1,4.7c5,11.4,11.3,22.1,19.5,31.5c3,3.5,7,6.2,9.9,9.9c3.5,4.4,7.7,8,12.2,11.3
			c0.4,0.3,0.8,0.6,1.4,1c1.2-18.7,6.3-35.8,19.7-49.4c13.3-13.5,29.8-19.9,48.4-21.6c0.6-0.1,0.5,0.2,0.3,0.5
			c-0.4,0.6-1.1,0.8-1.7,1.1c-7.7,4.1-14.5,9.3-20.9,15.1c-16.1,14.6-28.4,32.1-39.2,50.8c-0.7,1.2-1.3,2.3-2,3.5
			c-0.7,1.2-1,2.4-0.8,3.8c0.1,1.2,0.3,2.6-1.3,3.3c-1.4,1.2-2.9,1.5-4.5,0.4c-1.8-0.4-3.2-1.6-4.5-2.8
			c-8.7-7.6-18.9-12.8-29.2-17.7c-9-4.2-18.2-7.9-27.7-10.7c-10.5-3.1-21.1-5.1-32.1-4.7c-0.9,0-2.2,0.7-2.7-0.8
			c6.7-3.4,14-5.2,21.3-6.5c7-1.2,14-1.2,21-0.4c4.8,0.6,9.4,1.7,13.9,3.4c0.7,0.3,1.4,0.5,2.2,0.8c0.2-0.7-0.2-1-0.5-1.4
			c-9.9-16.2-16.6-33.6-19.7-52.4c-0.2-1.4-0.8-2.5-1.5-3.7c-9.7-16.4-23.5-28.1-41-35.5c-2.5-1.1-5.1-2-7.8-2.7
			c0-0.3,0-0.5,0.3-0.7c1.3-0.9,2.1-2.1,2.1-3.7C198,317.6,198.2,317.4,198.4,317.3z"/>
		<path class="st1" d="M290.5,152.3c-0.1,0.1-0.2,0.1-0.3,0.2c-1.8,2.2-3.9,3-6.6,1.8c-8-2.3-16.1-4.6-24.1-7
			c-7.2-2.1-14.6-3.6-21.6-6.4c-14.6-5.7-25.3-16.1-33.6-29.1c-6.4-9.9-10.4-20.7-11.4-32.5c-0.7-7.7,0.3-15.2,4-22.1
			c5.9-11.3,17.1-16.1,29-14.8c12.9,1.4,23.5,7.8,32.8,16.4c3.1,2.8,5.8,6,8.6,9.5c0.4-1.6,0.8-2.9,1.1-4.2
			c3.7-13.5,10-25.4,21.1-34.3c7.4-6,15.9-9,25.5-7c8.5,1.8,14.7,7,19.4,14.2c7.5,11.6,9.7,24.4,9,37.9c-0.7,13.4-4.4,26-11.5,37.5
			c-3.3,5.3-7.5,9.9-12.1,14c-9.6,8.5-19.1,17-28.7,25.5C290.8,151.9,290.6,152.1,290.5,152.3z"/>
		<path class="st1" d="M198.4,317.3c0.5,2.4-0.7,3.9-2.8,5c-8,5.3-16,10.5-23.9,15.9c-10.4,7.1-21.9,9.1-34.1,8.1
			c-9.3-0.8-17.9-3.7-25.8-8.9c-4.2-2.8-7.6-6.3-10-10.7c-4.5-8.1-3.3-17.4,3.1-24.3c6.2-6.7,14-10,22.8-11.5c4-0.7,8.1-1,12.3-0.8
			c0.1-0.9-0.6-1.2-1-1.8c-6-8.6-10-18-9.7-28.7c0.3-9.1,3.8-16.4,12.5-20.3c6.1-2.7,12.3-2.2,18.6-0.4
			c19.3,5.6,37.1,27.4,37.3,48.9C197.8,297.6,198.2,307.5,198.4,317.3z"/>
		<path class="st2" d="M308.5,456.9c0.9-1.1,1.1-2.4,0.8-3.6c-0.4-1.3,0.1-2.2,0.6-3.2c6.6-12.2,14.1-23.6,22.7-34.5
			c4.9-6.3,10.1-12.3,16-17.8c7.6-7.1,15.6-13.6,24.9-18.3c0.3-0.2,1-0.1,0.8-0.8c1-0.6,1,0.2,1.2,0.8c3.3,15.9,1.5,30.8-8,44.3
			c-6,8.6-14.1,15-23.2,20.2c-10.8,6.2-22.4,10-34.5,12.8C309.2,456.9,308.8,456.9,308.5,456.9z"/>
		<path class="st2" d="M207.6,420.6c0.3,0.4,0.8,0.3,1.2,0.3c20-0.6,38.4,5.3,56.5,13.1c9.1,3.9,17.9,8.5,26.3,13.7
			c3.4,2.1,6.3,5,9.4,7.5c0.9,0.8,1.9,1.5,2.9,2.2c-4.4,0.8-8.7,2.4-13.1,3.3c-5,1-10,1.6-15.1,2.2c-4.1,0.5-8.3,0.5-12.4,0.3
			c-13.4-0.6-25.9-3.7-36.8-12.1c-8.2-6.3-13.6-14.6-17.4-24c-0.6-1.5-1.1-3.1-1.7-4.7C207.3,421.7,206.8,421.1,207.6,420.6z"/>
		<path class="st1" d="M321.2,238.3c-0.1-2.1,0.8-4,0.8-6.1c1.4-5.5,2.4-11.1,3.4-16.7c3.1-18.3,14.3-29.5,31.4-35.4
			c4.6-1.6,9.5-1.9,14.3-0.7c9.3,2.3,14.1,10.3,12.8,19.8c-1.1,8.5-5.4,15.3-11.2,21.3c-0.4,0.5-0.9,0.9-1.3,1.4
			c-0.1,0.1-0.1,0.2-0.1,0.5c6,0.9,11.6,2.7,16.8,5.8c3.5,2.1,6.5,4.7,8.8,8.1c5.2,7.8,3.8,17.1-3.5,23.1
			c-5.4,4.5-11.8,6.7-18.7,7.5c-10.3,1.1-20.1-0.7-29-6.1c-1.1-0.7-2.3-1.4-3.3-2.3C335.3,251.8,328.2,245,321.2,238.3z"/>
		<path class="st1" d="M301.3,284.6c3.7-3.8,7.6-6.6,12.6-7.6c7-1.4,12.6,2.9,12.6,10.1c0.1,8.3-4.1,14.4-10.2,19.5
			c-3.6,3-8,4-12.5,5c-3.3,0.7-6.6,1.3-9.9,2.2c-1.1,0.3-1.6,0-2.3-0.7c-3.6-3.7-7.3-7.2-10.8-10.9c-3.7-3.9-5.2-8.8-5.6-13.9
			c-0.4-4.7,0.2-9.3,2.5-13.5c2.5-4.6,6.4-7,11-6.3c3.3,0.5,5.8,2.5,7.8,5.1C299.1,276.5,300.5,280.3,301.3,284.6z"/>
		<path class="st2" d="M263.1,396.1c-0.7-1.2-1.1-2.4-0.7-4c3.7-12.7,8.6-24.8,16.5-35.5c2.8-3.9,5.8-7.6,9.6-10.6
			c0.6-0.5,1.3-1,1.7-1.8c1-0.6,1.2,0.4,1.5,0.9c6,9.5,5.4,20.6-1.4,29.6c-6.7,8.9-15.7,14.9-25.4,20.1
			C264.2,395,263.3,395.1,263.1,396.1z"/>
		<path class="st2" d="M250.6,159.6c-0.4,0-0.8,0.1-1.4,0.2c5.9,2.6,11,5.9,15.6,10c5.2,4.5,9.9,9.4,14.1,14.7
			c1.5,1.8,2.8,3.8,4.3,5.6c0.9,1.2,1.5,2.4,1.2,3.9c-0.5,1.9-0.1,3.8-0.7,5.6c0-1.2-0.8-1.4-1.7-1.6c-8-1.6-15.6-4.4-22.2-9.3
			c-5.8-4.2-9.7-9.7-11.2-16.8c-0.8-3.8-0.8-7.7-0.2-11.6C248.5,158.9,249.6,159.1,250.6,159.6z"/>
		<path class="st2" d="M214.2,258.7c7.8,3.5,14.4,8.7,20.2,14.8c6.3,6.5,11.7,13.8,16.6,21.5c0.8,1.2,0.1,2.2-0.2,3.2
			c-9.2-1.5-18-4.3-25.6-10c-8.6-6.5-12.5-15.2-11.9-25.9C213.5,261.1,213.3,259.7,214.2,258.7z"/>
		<path class="st1" d="M323.6,348.4c1.7-1.8,3.4-3.1,5.5-3.8c5.6-1.9,9.8,1.6,8.5,7.4c-1.3,5.8-4.9,9.7-10.9,11.1
			c-2.2,0.5-4.4,0.9-6.5,1.5c-0.9,0.2-1.7,0.1-2.4-0.7c-1.5-1.6-3.1-3.2-4.7-4.8c-4.1-4.2-5.2-10.2-3-15.6c1-2.2,2.5-3.9,5-4.2
			c2.7-0.4,4.6,1.1,6.1,3.2C322.5,344.1,323.1,346,323.6,348.4z"/>
		<path class="st1" d="M370.4,128.3c2-2.6,4.2-4.5,6.7-6.1c1.8-1.1,3.7-1.8,5.7-2.1c6.1-0.9,10.7,2.8,11.2,8.9
			c0.8,8.7-5.7,19.4-13.9,22.3c-5,1.8-10.1,3-15.2,4.5c-0.8,0.2-1.2-0.1-1.7-0.5c-3.6-3.2-7.2-6.3-10.8-9.5
			c-6.5-6-8.5-18.5-4.2-26.5c3.5-6.6,10.5-7.7,15.9-2.5C367.5,120,369.2,123.8,370.4,128.3z"/>
		<path class="st1" d="M212.1,201.3c0.9-4.6,2.7-8.8,6.3-12c4.9-4.5,11.3-3.7,14.9,1.9c5.2,7.8,3.8,20.5-3,27.5
			c-3.2,3.3-6.6,6.4-9.8,9.7c-0.6,0.6-1.2,0.7-2.1,0.5c-4.2-1-8.4-2-12.7-3c-9.6-2.4-17.6-12.4-17.4-22c0.1-6.9,5.4-11.1,12.1-9.5
			c3.6,0.8,6.8,2.6,9.4,5.2c0.6,0.6,1.1,1.4,1.6,2.1C211.7,201.6,211.9,201.5,212.1,201.3z"/>
		<path class="st3" d="M245.2,241.2c1.7-2.8,3.5-5,6.3-6.2c3.9-1.7,7.7,0.1,8.7,4.3c1.4,5.7-1.7,13-7.1,15.9
			c-2.8,1.5-5.7,3.9-8.6,3.9c-2.9,0-5.5-2.8-8.2-4.5c-4.9-3-7.6-10.1-6.2-15.6c1.4-5.3,6.3-7,10.6-3.6
			C242.7,236.9,244,238.9,245.2,241.2z"/>
		<path class="st3" d="M325.2,169.4c1.4-2.3,2.9-4.4,5.2-5.7c4.8-2.8,9.2-0.7,10,4.8c0.9,5.7-2.3,12.2-7.3,14.9
			c-2.5,1.4-5.1,2.5-7.7,3.8c-0.7,0.3-1.1,0.3-1.7-0.1c-2.4-1.5-4.9-2.9-7.3-4.5c-4.8-3.1-7.5-9.9-6.1-15.4c1.3-5.3,6.3-7,10.6-3.7
			C322.7,165.1,324.1,167.1,325.2,169.4z"/>
		<path class="st4" d="M313.3,259.8c0,4.1-3.6,7.6-7.8,7.6c-4.2,0-7.7-3.6-7.7-7.9c0-4.1,3.5-7.6,7.7-7.7
			C309.8,251.7,313.3,255.3,313.3,259.8z"/>
		<path class="st4" d="M263.6,202.4c0,3.5-2.8,6.3-6.3,6.3c-3.5,0-6.3-2.8-6.3-6.3c-0.1-3.4,2.8-6.3,6.3-6.3
			C260.8,196.1,263.6,198.9,263.6,202.4z"/>
		<path class="st4" d="M274.8,326c0,3.4-2.7,6-6.1,6c-3.4,0-6-2.7-6-6.2c0-3.3,2.8-6.1,6.1-6.1C272.1,319.8,274.8,322.6,274.8,326z"
			/>
		<path class="st4" d="M328.5,319.7c0-3.3,2.7-5.9,6-5.9c3.3,0,6.1,2.7,6.2,6c0,3.3-2.8,6.1-6.1,6
			C331.1,325.8,328.5,323.1,328.5,319.7z"/>
		<path class="st5" d="M209.7,360.6c0-2.2,1.8-4,4-4.1c2.2,0,4.2,1.9,4.2,4.1c0,2.2-1.9,4.2-4.1,4.2
			C211.5,364.8,209.7,363,209.7,360.6z"/>
		<path class="st4" d="M306.1,207.7c0-2.1,1.7-3.7,3.8-3.6c2,0,3.6,1.7,3.6,3.7c0,2.1-1.7,3.8-3.7,3.8
			C307.7,211.6,306.1,209.9,306.1,207.7z"/>
		<path class="st4" d="M268.4,76.5c1.6-4.6,3-8.7,4.8-12.8c4.2-9.7,9.4-18.7,17.4-25.8c5-4.4,10.8-7.1,17.7-5.4
			c4.5,1.1,7.9,4.1,10.4,8c6.3,9.6,9.7,20.1,8.8,31.6c-0.5,6-2.5,11.7-5.6,16.9c-7.1,12-17.5,20.6-29.5,27.3
			c-8.1,4.5-16.6,7.8-25.6,10c-8.5,2-17.1,2.8-25.8,1.8c-9.5-1.1-18.2-4.5-25.4-10.9c-8-7.1-13.1-15.9-15.3-26.3
			c-1.9-9.2-1.5-18.1,2.8-26.6c4.5-8.8,11.8-13.8,21.5-15.2c9.9-1.5,18.3,2,26,7.7C257.8,62.1,263.5,68.7,268.4,76.5z"/>
		<path class="st4" d="M254.4,136.8c8.7,1.6,17.3,1.6,25.8-1.3c6.5-2.3,12.1-5.9,17.3-10.3c5.3-4.5,9.5-9.9,13.6-16
			c-0.9,5.1-2.5,9.5-4.4,13.7c-3.6,7.9-8.6,14.7-14.9,20.6c-1.1,1-2.4,1.9-3.5,3c-2.6,2.9-5.8,1.8-8.7,1
			C270.8,145.1,262.5,141.3,254.4,136.8z"/>
		<path class="st4" d="M180.8,285.6c-0.3,15-4.6,28.9-13.6,41c-4.4,6-9.7,11-16.9,13.6c-7.8,2.9-15.7,2.7-23.6,0.1
			c-7-2.3-12.6-6.6-16.8-12.7c-7.3-10.7-3.3-24.1,7.1-30.3c5.2-3.1,10.8-4.4,16.7-4.7c3.6-0.2,7.1-0.1,10.6,0.4
			c0.3,0,0.7,0.1,0.9-0.2c0.2-0.5-0.3-0.8-0.5-1.2c-4.3-7.1-7.7-14.5-9.4-22.7c-0.9-4.3-1-8.7,0.4-13c1.9-6,7.8-8.7,13.8-8
			c6.3,0.8,12.3,2.7,17.5,6.3c6.3,4.3,10.2,10.6,12.2,18C180.2,276.7,181,281.1,180.8,285.6z"/>
		<path class="st4" d="M173.4,329.5c14.3-12.1,15.4-27.3,11-44.3c2.7,3.4,4.8,6.9,6.3,10.7c2.6,6.6,3.8,13.4,3.5,20.6
			c0,1-0.2,1.7-1,2.4C187.3,323.6,180.4,326.6,173.4,329.5z"/>
		<path class="st4" d="M366.1,223.5c6.2,1.4,11.9,3.3,17.2,6.3c3.8,2.1,7.3,4.7,9.4,8.7c2.2,4.3,1.8,7.9-1.7,11.3
			c-7.8,7.6-19.5,10.6-29.8,5.6c-8.8-4.4-14.9-11.4-19.7-19.8c-3.1-5.4-5.3-11.2-6.4-17.3c-1.9-10.9,0.1-20.7,8.8-28.3
			c4.3-3.7,9.3-5.8,15-6.7c4.3-0.6,8.4-0.2,12.3,1.7c7.3,3.6,11.1,12.4,8.7,20.2C377.9,212,373.4,218,366.1,223.5z"/>
		<path class="st4" d="M329.9,219.1c-1.1,14.3,6.5,23.5,17.9,30.4c-1.6,0.3-1.9,0.3-4.9-0.7c-6.9-2.1-12.7-5.8-17.5-11.2
			c-1.2-1.3-0.4-2.6-0.3-3.8C325.8,228.7,327.7,223.9,329.9,219.1z"/>
		<path class="st4" d="M369.7,130.9c2.2-2.3,4.3-4.1,6.6-5.7c1.9-1.3,4-2,6.1-2.6c3-0.8,6,1.3,6.6,4.5c1.3,6.5-1.2,12.4-7.1,15.6
			c-5,2.8-10.5,3.6-16.2,2.9c-4.4-0.6-8.4-1.6-12.1-4.2c-7.7-5.4-8.1-17.4-0.8-23.2c3.7-3,10.2-1.7,13.2,2.6
			C368.1,123.7,368.9,127.1,369.7,130.9z"/>
		<path class="st4" d="M376.7,146.9c-2.9,3.7-6.6,5.9-11,6.9c-0.8,0.2-1.7-0.1-2.3-0.7c-2.1-1.9-4-3.9-5.9-6.6
			c3.3,2.1,6.4,3.3,9.9,3.1C370.6,149.4,373.7,148.3,376.7,146.9z"/>
		<path class="st4" d="M231.4,201.4c-0.1,5.5-3,9.5-7,12.8c-4.8,4-10.4,6.5-16.6,7.1c-11.1,1-18.9-8.3-16.7-18.2
			c1.3-5.7,7.4-8.5,12.8-6.3c3.2,1.4,5.6,3.8,7.8,6.3c0.2,0.3,0.3,0.8,0.8,0.7c0.4-0.1,0.4-0.6,0.5-1c1-3.4,2.5-6.5,4.5-9.4
			c0.9-1.3,2.1-2.4,3.5-3.1c2.7-1.4,5.2-0.7,7.4,2.3C230.1,194.8,231.4,198.7,231.4,201.4z"/>
		<path class="st6" d="M226.3,215.6c-0.9,4.1-2.9,7.6-5.8,10.4c-0.8,0.8-1.5,1.1-2.7,0.8c-2.9-0.5-5.6-1.6-8.2-3
			c3.4,0.6,6.5-0.1,9.5-1.7C221.9,220.5,224,217.9,226.3,215.6z"/>
		<path class="st4" d="M245,242.9c1.6-1.9,2.8-3.7,4.5-5c1.6-1.3,3.4-2,5.3-1.4c1.7,0.6,2.1,2.4,2.3,4.1c0.6,4.4-1.1,7.7-5.2,9.8
			c-5.3,2.8-10.8,3.5-16.3,0.7c-5-2.6-5.7-8.1-3.9-12.4c0.9-2.2,2.9-3.4,5.1-3.4c2.6-0.1,4.6,1.4,6,3.5
			C243.7,240,244.4,241.3,245,242.9z"/>
		<path class="st4" d="M325,171.1c1.8-2.2,3.3-4.3,5.5-5.7c1.4-0.9,2.8-1.7,4.4-0.9c1.7,0.9,2.2,2.6,2.4,4.3
			c0.6,4.7-1.6,7.9-5.6,9.9c-5.7,2.8-11.6,3.4-17.2-0.3c-4.1-2.7-4.8-9.7-1.4-13.2c2.6-2.7,7-2.3,9.5,1
			C323.6,167.6,324.3,169.2,325,171.1z"/>
	</g>
</g>
</svg>
