<?xml version="1.0" encoding="utf-8"?>
<!-- Generator: Adobe Illustrator 25.3.1, SVG Export Plug-In . SVG Version: 6.00 Build 0)  -->
<svg version="1.1" id="Layer_1" xmlns="http://www.w3.org/2000/svg" xmlns:xlink="http://www.w3.org/1999/xlink" x="0px" y="0px"
	 viewBox="0 0 500 500" style="enable-background:new 0 0 500 500;" xml:space="preserve">
<style type="text/css">
	.st0{fill:#FECF53;}
	.st1{fill:#FFC448;}
	.st2{fill:#FFF0CB;}
	.st3{fill:#FFD870;}
	.st4{fill:#FFF0C9;}
	.st5{fill:#FFF2D1;}
	.st6{fill:#FFF2D0;}
	.st7{fill:#FFF0CA;}
	.st8{fill:#FFEEC9;}
	.st9{fill:#FFDD82;}
	.st10{fill:#FFEDC5;}
	.st11{fill:#FFDD83;}
	.st12{fill:#FFE193;}
	.st13{fill:#FFE194;}
	.st14{fill:#FFD77A;}
	.st15{fill:#654735;}
	.st16{fill:#2C2C2C;}
</style>
<g>
	<g>
		<path class="st0" d="M244.7,0.2c3.8,0,7.6,0,11.4,0c1,0.4,2,0.1,3.1,0.2c1.4,0,2.7,0,4.1,0c14.8-0.1,29.4,2.1,43.8,5.4
			c17.1,4,33.7,9.7,49.6,17.2c8.4,3.9,16.4,8.4,24.3,13c0.4,0.3,0.8,0.5,1.1,1c0.2,0.9,0.8,1.6,1.3,2.4
			c6.6,10.4,12.3,21.4,17.2,32.7c0.4,0.9,1,1.8,0.2,2.7c-1,0.3-1.6-0.3-2.3-0.8c-10.6-8.9-21.9-16.9-33.9-23.8
			c-15.4-8.9-31.6-15.8-48.6-21c-10.2-3.1-20.6-5.5-31.2-7.1c-6.2-1-12.5-1.6-18.8-2.1c-7.2-0.5-14.3-0.8-21.5-0.6
			c-9.6,0.3-19.1,1-28.6,2.4c-10.6,1.5-21,3.8-31.3,6.7c-9.9,2.9-19.6,6.4-29,10.6c-11.6,5.2-22.7,11.1-33.3,18.2
			c-7.2,4.8-14.1,9.9-20.7,15.4c-6.1,5.1-12,10.3-17.5,16c-14,14.6-26.2,30.5-36.1,48.2c-7.7,13.6-14,27.9-18.8,42.8
			c-4.1,12.9-7.2,26-9,39.4c-1.2,8.8-1.7,17.6-2.1,26.4c-0.2,5.6,0,11.2,0.3,16.7c0.4,10.4,1.7,20.6,3.6,30.8
			c2.9,15.4,7.3,30.3,13.2,44.8c5.2,12.6,11.3,24.7,18.7,36.1c3.1,4.9,6.5,9.7,9.4,14.7c0,0,0,0,0,0c-10-16.2-16.4-33.8-21.5-51.9
			c-2.6-9.4-4.4-18.9-5.8-28.5c-0.8-5.7-1.3-11.4-1.7-17.2c-0.6-8.6-0.3-17.2-0.2-25.8c0.1-6.4,0.9-12.8,1.7-19.2
			c1.1-8.5,2.7-17,4.7-25.3c2.7-11.1,6.3-22,10.6-32.5c7.9-19.5,18.4-37.5,31.2-54.1c4.5-5.8,9.3-11.3,14.2-16.7
			c9.4-10.2,19.8-19.3,30.8-27.6c9.6-7.2,19.7-13.6,30.3-19.2c11.9-6.3,24.2-11.5,36.9-15.7c12.6-4.1,25.5-7.1,38.7-9
			c7.3-1.1,14.6-1.6,22-2c6.2-0.4,12.4-0.4,18.6-0.2c9.4,0.3,18.8,1.1,28.2,2.6c13.9,2.2,27.6,5.5,40.9,10.1
			c16.9,5.9,33,13.6,48.1,23.3c5.4,3.4,10.6,7.1,15.8,10.9c0.7,0.5,1.5,1.1,1.8,2.1c1,3.5,2.2,7,3.2,10.5c3,10.8,5.3,21.7,6.8,32.7
			c1.1,8.1,1.8,16.3,2.2,24.5c0.3,6.1,0.4,12.3,0.2,18.4c-0.2,7.4-0.8,14.8-1.7,22.2c-2.1,17.9-6,35.3-11.9,52.3
			c-2.8,8.2-6.1,16.2-9.7,24.1c-0.5,1-0.9,2.1-2,2.5c-1,0.3-1.9,0-2.9-0.4c-14.5-5.5-27.9-13-40.2-22.5c-7-5.4-13.5-11.4-19.6-17.8
			c-0.7-0.7-1.4-1.4-2.1-2.1c-0.7-0.6-1.5-1.2-2.5-0.7c-1,0.5-1.1,1.6-1,2.6c0.3,2.4,0.6,4.8,1.1,7.1c2.5,10.6,7.7,19.8,14.9,28
			c6.3,7.2,13.8,12.7,22.2,17.1c5.3,2.8,10.8,4.9,16.7,6.4c1.1,0.3,2.2,0.3,3,1.2c0.6,1.5-0.5,2.5-1.1,3.5
			c-4.3,6.9-8.9,13.7-13.8,20.2c-8.2,10.9-17.2,21-27.1,30.4c-6.5,6.2-13.4,12.1-20.6,17.6c-0.9,0.7-1.8,1.5-3.2,0.8
			c-0.6-0.4-1-1.1-1.4-1.7c-3-5.2-6.6-10.1-10.9-14.3c-11.4-11.4-25.1-18.5-40.9-21.5c-5.6-1.1-11.2-1.6-16.8-1.4
			c-11.2,0.4-22,2.8-32.3,7.3c-9.6,4.3-18.1,10.1-25.2,17.9c-9.2,10-15.2,21.5-17.1,35c-0.3,2-0.3,4-0.3,6.1c0,1.8,1.1,3.3,2.6,3.8
			c1.5,0.5,3.4,0,4.5-1.4c2.9-3.7,5.9-7.3,9.1-10.7c3.6-3.8,7.6-7.2,11.8-10.2c10.8-7.7,22.7-12.7,35.8-14.6
			c17-2.6,33.4-0.4,48.8,7.7c4.5,2.3,8.7,5,12.7,8.1c0.8,0.6,1.6,1.2,1.8,2.3c0,1.1-0.7,1.6-1.5,2.1c-3.9,2.5-7.9,4.7-12,6.9
			c-14.1,7.5-28.7,13.6-44,18.3c-11.5,3.5-23.2,6.2-35.1,8.1c-7,1.1-14.1,1.8-21.2,2.4c-9.4,0.8-18.8,0.6-28.2,0.4
			c-6.2-0.2-12.5-0.7-18.7-1.5c-8.6-1-17.2-2.5-25.7-4.4c-13-2.9-25.7-6.9-38.1-11.8c-12-4.7-23.4-10.5-34.5-17
			c-1-0.6-1.8-1.5-3-1.8c-1.9-1.4-2.8-3.6-4-5.5c-9.1-14.9-16.5-30.6-22.2-47c-5-14.2-8.6-28.8-11-43.7c-1.2-7.4-2.2-14.8-2.2-22.3
			c0-1.7-0.1-3.4-0.1-5.2c-0.3-7.8-0.2-15.6,0-23.5c0-9.4,0.9-18.7,2.4-28c2.4-14.8,6-29.3,11-43.5c5.9-16.9,13.7-33,23.1-48.3
			c7.1-11.5,15-22.3,23.9-32.5c4.6-5.3,9.3-10.5,14.3-15.3c9.9-9.4,20.3-18.2,31.5-26c10.7-7.5,22-14.2,33.8-19.9
			c17.1-8.3,35-14.7,53.5-19C203.3,3.6,212.6,2,222,1c5.2-0.5,10.4-0.6,15.6-0.6c1.2,0,2.5,0,3.7,0C242.5,0.2,243.6,0.6,244.7,0.2z"
			/>
		<path class="st1" d="M400.8,74.7c-0.5-2.2-1.6-4.1-2.5-6.1c-3.3-7.3-6.9-14.5-11-21.4c-1.7-2.9-3.5-5.8-5.2-8.7
			c-0.2-0.4-0.5-0.7-0.1-1.1c0.8-0.6,1.5,0,2.2,0.4c9,5.6,17.6,12,25.8,18.7c8.1,6.6,15.6,13.9,22.8,21.4
			c7.4,7.8,14.3,16.1,20.6,24.8c8.6,11.9,16.1,24.4,22.5,37.6c9.4,19.4,16.2,39.6,20.4,60.8c1.2,6,2.3,11.9,2.9,18
			c0.5,5.2,0.7,10.4,0.7,15.6c0.1,1.2-0.2,2.4,0.2,3.5c0,7.9,0,15.7,0,23.6c-0.4,1-0.1,2.1-0.2,3.2c0.2,14-2,27.6-5.1,41.2
			c-4.1,18-10.2,35.4-18.2,52c-8.4,17.5-18.6,33.7-30.8,48.8c-4.2,5.3-8.7,10.3-13.3,15.2c-16.1,17.2-34.4,31.7-54.6,43.7
			c-21.3,12.6-44,21.8-68,27.7c-10.9,2.7-22,4.6-33.2,5.7c-3,0.3-6.1,0.3-9.2,0.4c-2.1,0.1-4.3,0-6.4,0.2c-1.3,0-2.5,0-3.8,0
			c-0.7,0-1.3,0-2,0c-3.2,0-6.4,0-9.6,0c-0.7,0-1.3,0-2,0c-1.5,0-3,0-4.4,0c-2.7-0.4-5.4-0.3-8.1-0.3c-7.8-0.1-15.4-1.3-23-2.5
			c-12.8-2.1-25.4-5.3-37.7-9.4c-19.5-6.6-38-15.5-55.3-26.6c-10.9-7-21.2-14.8-30.9-23.5c-5.1-4.5-10.1-9.2-14.8-14.1
			c-10.5-11.1-20.1-22.9-28.4-35.7c-0.5-0.8-1.3-1.5-0.7-2.7c0.3-0.3,0.5-0.1,0.8,0.1c3.1,1.8,6.3,3.6,9.4,5.4
			c0.4,0.2,0.7,0.5,1.1,0.6c3.7,1.7,7.2,3.8,10.8,5.5c7,3.3,14.1,6.4,21.4,9c9.6,3.5,19.3,6.6,29.2,8.9c6.3,1.5,12.7,2.7,19.1,3.7
			c3,0.4,5.9,0.8,8.9,1.3c1.7,0.3,3.4,0.3,5.1,0.5c2.2,0.2,4.4,0.4,6.6,0.6c0.2,0,0.5,0.1,0.7,0.1c9.1,0.5,18.3,0.6,27.4,0.3
			c4.1-0.1,8.3-0.4,12.4-0.9c3.1-0.4,6.2-0.6,9.3-0.9c3.8-0.4,7.5-1.1,11.2-1.8c6.2-1.1,12.4-2.4,18.5-4
			c11.1-2.9,21.9-6.5,32.5-10.8c8.2-3.3,16-7.2,23.8-11.2c4-2.1,7.9-4.5,11.8-6.8c0.4-0.3,0.8-0.5,0.9-1.1c1-0.6,1.6,0.3,2.2,0.8
			c5.6,4.8,10.5,10.1,15,15.9c1.6,2,3.4,2.7,5.2,1.9c1.9-0.9,2.7-2.5,2.6-4.5c-0.2-6.1-1.5-12-3.5-17.8c-0.9-2.4-2-4.6-3-6.9
			c-0.3-0.7-0.7-1.3-0.1-2.1c0.4,0.2,0.8,0.1,1.2-0.2c3.1-2.4,6.1-4.9,9.2-7.3c4-3.2,7.8-6.7,11.6-10.2c3.6-3.3,7-6.7,10.3-10.3
			c2.6-2.8,5.2-5.7,7.7-8.6c4.6-5.2,8.7-10.7,12.9-16.3c4-5.3,7.5-10.9,11.1-16.5c0.5-0.8,1-1.6,1.5-2.3c0.8-0.8,1.7-0.5,2.6-0.3
			c6.2,1.2,12.4,1.6,18.7,1.2c7.9-0.5,15.5-2.1,22.8-5.4c0.9-0.4,1.7-0.8,1.6-2c-0.1-1.1-0.9-1.5-1.9-1.7
			c-7.6-2.3-15.3-4.2-22.8-6.6c-3-1-6.1-2-9.1-3c-0.9-0.3-2-0.5-2.1-1.8c0.9-0.2,1.1-0.9,1.4-1.6c2.6-5.6,5.1-11.2,7.2-16.9
			c1.7-4.5,3.3-9,4.8-13.6c3.3-10.4,6-20.9,7.8-31.6c0.7-4.3,1.5-8.6,2.1-12.9c0.4-3,0.6-6,0.8-9c0.2-2.1,0.4-4.3,0.6-6.4
			c0-0.2,0.1-0.5,0.1-0.7c0.5-7.8,0.5-15.6,0.3-23.4c-0.1-4.1-0.3-8.2-0.7-12.3c-0.5-4.9-1-9.9-1.7-14.8c-1.2-9.1-3-18-5.2-26.9
			c-1.3-5.1-2.8-10.2-4.4-15.2c-0.1-0.5-0.6-1-0.1-1.6c1-0.4,1.6,0.3,2.3,0.8c4.5,3.5,8.8,7.2,13,11c7.1,6.4,13.7,13.4,19.9,20.6
			c1.8,2,3.2,4.3,4.8,6.5c0,0,0,0,0,0c-7.4-10.7-14.6-21.6-23.1-31.4c-6-6.9-12.3-13.6-19.1-19.7c-1.4-1.3-2.7-2.6-4.2-3.9
			C401.1,76.2,400.4,75.7,400.8,74.7z"/>
		<path class="st2" d="M0.2,242.5c0.5-0.8,0.3-1.8,0.4-2.7c0.1-0.7-0.1-1.5,0.3-2.1c0.1,2.3,0,4.5-0.2,6.8c-0.2,3.8-0.2,7.6,0,11.4
			c0.1,2.1,0.3,4.1,0.1,6.2c-0.5-0.7-0.3-1.4-0.3-2.1c-0.1-0.8,0.1-1.6-0.4-2.3C0.2,252.6,0.2,247.6,0.2,242.5z"/>
		<path class="st3" d="M245.5,499.6c3.3,0,6.6,0,10,0c0.2,0.1,0.2,0.2,0,0.4c-3.3,0-6.6,0-10,0C245.2,499.9,245.2,499.8,245.5,499.6
			z"/>
		<path class="st4" d="M238.8,500c0-0.1,0-0.3,0-0.4c1.6,0,3.2,0.1,4.8,0.1c0.3,0.1,0.3,0.2,0,0.3C242,500,240.4,500,238.8,500z"/>
		<path class="st5" d="M263.5,0.2c0,0.1,0,0.2,0,0.3c-1.5,0-2.9,0-4.4,0c-0.3,0-0.3-0.1-0.1-0.3C260.6,0.2,262.1,0.2,263.5,0.2z"/>
		<path class="st6" d="M237.3,0.5c0-0.1,0-0.2,0-0.3c1.4,0,2.7,0,4.1,0c0.2,0.1,0.2,0.3,0,0.3C240,0.5,238.7,0.5,237.3,0.5z"/>
		<path class="st7" d="M261.3,499.6c0,0.1,0,0.2,0,0.4c-1.4,0-2.7,0-4.1,0c-0.2-0.1-0.2-0.2,0-0.3
			C258.6,499.7,260,499.7,261.3,499.6z"/>
		<path class="st8" d="M499.7,234.4c0.1,0,0.2,0,0.3,0c0,1.2,0,2.5,0,3.7C499.3,236.9,499.7,235.6,499.7,234.4z"/>
		<path class="st9" d="M241.4,0.5c0-0.1,0-0.2,0-0.3c1.1,0,2.2,0,3.3,0C243.7,0.8,242.5,0.5,241.4,0.5z"/>
		<path class="st10" d="M500,265c-0.1,0-0.2,0-0.3,0c0-1.1-0.4-2.3,0.3-3.3C500,262.8,500,263.9,500,265z"/>
		<path class="st11" d="M259.1,0.2c0,0.1,0,0.2,0.1,0.3c-1,0-2.1,0.3-3-0.3C257.2,0.2,258.1,0.2,259.1,0.2z"/>
		<path class="st12" d="M243.6,500c0-0.1,0-0.2,0-0.3c0.6,0,1.2,0,1.9,0c0,0.1,0,0.2,0,0.4C244.9,500,244.2,500,243.6,500z"/>
		<path class="st13" d="M257.3,499.7c0,0.1,0,0.2,0,0.3c-0.6,0-1.2,0-1.8,0c0-0.1,0-0.2,0-0.4C256.1,499.6,256.7,499.7,257.3,499.7z
			"/>
		<path class="st14" d="M400.8,74.7c1.7,2.1,3.8,3.6,5.7,5.4c1.3,1.3,2.7,2.5,4,3.8c2,1.9,3.9,3.9,5.9,5.9
			c3.9,4.1,7.6,8.3,11.3,12.6c6,7.2,11.5,14.8,16.7,22.7c1.3,2.1,2.6,4.2,3.9,6.2c0.3,0.4,0.5,0.9,0.5,1.4l0,0
			c-0.5-0.3-0.9-0.7-1.2-1.1c-2.4-3.2-5.1-6.1-7.7-9.1c-3.9-4.5-8-8.9-12.3-12.9c-4-3.8-8.1-7.5-12.3-11c-2.3-1.9-4.6-3.8-7-5.6
			c-5.1-4.1-10.5-7.8-16.1-11.4c-4.5-2.9-9.1-5.7-13.7-8.2c-4.1-2.2-8.2-4.5-12.4-6.4c-4.9-2.2-9.8-4.5-14.9-6.4
			c-7.3-2.8-14.7-5.3-22.2-7.4c-7.2-2-14.5-3.6-21.9-5c-3.8-0.7-7.6-1.3-11.5-1.7c-4.1-0.4-8.2-0.8-12.3-1.2
			c-8.3-0.7-16.7-0.8-25-0.6c-4.4,0.1-8.8,0.6-13.2,0.9c-9.3,0.8-18.5,2.3-27.6,4.2c-5.8,1.2-11.5,2.7-17.1,4.4
			c-7.1,2.1-14.1,4.6-21,7.4c-3.7,1.5-7.5,3.2-11.1,4.9c-3.6,1.7-7.1,3.5-10.5,5.3c-4.7,2.5-9.3,5.2-13.9,8
			c-5.4,3.3-10.6,6.9-15.7,10.7c-4.3,3.2-8.5,6.5-12.5,10c-5.1,4.5-10.1,8.9-14.8,13.8c-3.4,3.5-6.7,7.2-9.9,10.9
			c-7,8-13.3,16.5-19.1,25.4c-3.2,5-6.2,10-9,15.2c-2.1,3.8-4,7.6-5.9,11.5c-3,6.4-5.7,12.9-8.2,19.5c-2.7,7.4-5,14.9-7,22.5
			c-1.6,6.2-2.9,12.5-3.9,18.9c-0.6,4.1-1.4,8.2-1.7,12.4c-0.3,3.7-0.7,7.4-0.9,11.2c-0.6,8.4-0.2,16.7-0.2,25.1
			c0,2.9,0.3,5.9,0.6,8.8c0.3,2.7,0.5,5.5,0.8,8.2c0.4,3.8,0.9,7.7,1.6,11.5c1.1,6.3,2.3,12.5,3.9,18.7c2.2,8.4,4.8,16.7,7.9,24.9
			c3.4,9.1,7.6,17.9,12,26.5c0.8,1.5,1.9,2.8,2.2,4.4l0,0c-1-0.5-1.4-1.5-2-2.3c-5.4-7.5-10.5-15.1-15-23.2
			c-4.3-7.7-8.2-15.7-11.6-23.8c-4.1-9.8-7.5-19.7-10.2-30c-2.1-8-3.8-16.1-5.1-24.3c-0.7-4.4-1.2-8.9-1.7-13.3
			c-0.2-2.3-0.4-4.6-0.5-7c-0.3-3.7-0.1-7.4-0.4-11c-0.1-1.7-0.4-3.4-0.3-5.1c0.4-3.9,0.1-7.7,0.4-11.6c0.4-5.4,0.8-10.7,1.5-16.1
			c0.9-7.4,2.2-14.7,3.8-21.9c1.9-8.5,4.2-16.9,7.1-25.2c2.5-7.1,5.3-14.1,8.4-21c2.4-5.1,4.9-10.2,7.6-15.1
			c4-7.3,8.4-14.4,13.3-21.2c3.5-4.9,7.1-9.7,10.9-14.4c2-2.4,4-4.8,6.2-7.1c3.4-3.7,6.7-7.5,10.4-11c3.6-3.4,7.2-6.8,11-10
			c7.3-6.3,15-12.1,23-17.5c4.2-2.9,8.6-5.5,13-8.1c5.6-3.2,11.4-6.1,17.2-8.9c6.4-3.1,13-5.8,19.7-8.2c8.3-3,16.7-5.5,25.2-7.5
			c6.4-1.5,13-2.7,19.5-3.7c4.7-0.7,9.4-1.2,14-1.7c2.5-0.2,5-0.4,7.5-0.5c6.3-0.3,12.5-0.5,18.8-0.2c3.4,0.1,6.7,0.1,10.1,0.6
			c1.8,0.2,3.5,0.3,5.3,0.4c7.5,0.6,15,1.8,22.4,3.2c11.4,2.1,22.5,5.2,33.4,9.1c5.1,1.8,10.1,3.8,15.1,6c4.7,2,9.4,4.2,14,6.6
			c9.5,5,18.6,10.5,27.3,16.7c4.4,3.1,8.7,6.4,12.9,9.8C397.6,72.2,399,73.7,400.8,74.7z"/>
		<path class="st15" d="M320,370.9c1.7,3.6,3.4,7.2,4.6,11c1.6,5.2,2.6,10.6,2.8,16.1c0,1.6-0.4,3-1.6,4.1c-2.1,1.9-5.1,1.6-7-0.7
			c-1.2-1.4-2.3-2.9-3.5-4.3c-3.9-4.7-8.2-9.1-12.9-13.1c-0.2-0.2-0.5-0.3-0.7-0.5c-4.9-4.2-10.3-7.6-16-10.4
			c-12.5-6.2-25.8-8.7-39.7-7.7c-21.7,1.6-40.1,10.4-55.1,26.2c-2.8,3-5.5,6.2-8,9.4c-0.9,1.2-2.1,2.1-3.6,2.2
			c-3,0.3-5.3-1.7-5.3-4.8c-0.1-5.5,0.9-10.8,2.5-15.9c5.1-15.9,15-28.1,28.7-37.2c11.1-7.4,23.3-11.8,36.5-13.3
			c19.3-2.2,37.3,1.7,53.7,12.3c10.1,6.5,18.2,15,24.1,25.5C319.5,370.2,319.7,370.5,320,370.9z"/>
		<path class="st16" d="M395.1,279.5c3.6,1.6,7.5,2.8,11.3,4c7.5,2.4,15.2,4.4,22.8,6.6c1.4,0.4,2.7,0.9,2.8,2.5
			c0.1,1.6-1.1,2.3-2.4,2.8c-9,4-18.5,5.6-28.3,5.5c-5.4,0-10.6-0.8-15.9-1.8c-6.3-1.5-12.5-3.5-18.4-6.4
			c-15.7-7.8-27.8-19.3-35.3-35.3c-2.7-5.8-4.4-11.9-4.9-18.2c0-0.5-0.1-1-0.1-1.5c0.1-1,0.5-1.8,1.5-2.2c0.9-0.4,1.8-0.2,2.6,0.4
			c0.6,0.5,1.2,1.1,1.7,1.7c7.4,7.5,15.1,14.7,23.7,21c11.6,8.6,24.3,15.4,37.8,20.5C394.3,279.3,394.7,279.3,395.1,279.5z"/>
		<path class="st16" d="M98.4,301.1c-9.2-0.1-18.3-1.6-26.9-5.4c-0.4-0.2-0.8-0.3-1.2-0.5c-1-0.5-1.5-1.3-1.4-2.4
			c0.1-1.1,0.7-1.8,1.7-2.2c0.6-0.2,1.2-0.3,1.8-0.5c8-2.3,16.1-4.5,24.1-7c20.3-6.5,38.9-16.1,55.3-29.8c6-5.1,11.7-10.5,17.2-16.1
			c0.3-0.3,0.5-0.5,0.8-0.8c1-0.9,2.1-1.2,3-0.7c1.1,0.6,1.5,1.6,1.4,2.8c-0.2,2.1-0.4,4.2-0.8,6.2c-2.1,10.6-6.9,19.9-13.8,28.2
			c-12.2,14.5-27.7,23.2-46.2,26.9C108.5,300.7,103.6,301.1,98.4,301.1z"/>
		<path class="st14" d="M64,389.7c0.1,0.1,0.2,0.1,0.3,0.2c0.1,0.1,0.4,0.4,0.2,0.5c-0.2,0.2-0.3-0.2-0.4-0.4
			C64,389.9,64,389.8,64,389.7C64,389.7,64,389.7,64,389.7z"/>
		<path class="st14" d="M448.7,132.6c0.1,0.1,0.2,0.1,0.3,0.2c0.1,0.1,0.4,0.4,0.2,0.5c-0.2,0.2-0.3-0.2-0.4-0.4
			C448.7,132.8,448.7,132.7,448.7,132.6C448.7,132.6,448.7,132.6,448.7,132.6z"/>
	</g>
</g>
</svg>
