<?xml version="1.0" encoding="utf-8"?>
<!-- Generator: Adobe Illustrator 25.3.1, SVG Export Plug-In . SVG Version: 6.00 Build 0)  -->
<svg version="1.1" id="Layer_1" xmlns="http://www.w3.org/2000/svg" xmlns:xlink="http://www.w3.org/1999/xlink" x="0px" y="0px"
	 viewBox="0 0 500 500" style="enable-background:new 0 0 500 500;" xml:space="preserve">
<style type="text/css">
	.st0{fill:#AC7EA7;}
	.st1{fill:#5D3667;}
	.st2{fill:#F2F2F0;}
	.st3{fill:#DBCED8;}
	.st4{fill:#E5E6E2;}
	.st5{fill:#CAC7C8;}
	.st6{fill:#DECDDC;}
	.st7{fill:#FE7F00;}
	.st8{fill:#DBC8D8;}
	.st9{fill:#00FEFE;}
	.st10{fill:#E2D4E0;}
	.st11{fill:#D9C4D6;}
	.st12{fill:#D6C1D3;}
	.st13{fill:#D3BCD0;}
	.st14{fill:#D1D3CD;}
	.st15{fill:#D0D1CC;}
	.st16{fill:#2E3436;}
	.st17{fill:#F6F6F6;}
	.st18{fill:#FAFAF9;}
	.st19{fill:#EAE3E8;}
	.st20{fill:#E7DFE5;}
	.st21{fill:#EDEDEB;}
	.st22{fill:#F0DBC5;}
	.st23{fill:#EFE1D1;}
	.st24{fill:#EEE7DE;}
	.st25{fill:#EDECE9;}
	.st26{fill:#F2D0AD;}
	.st27{fill:#F1D6B9;}
	.st28{fill:#F3C89D;}
	.st29{fill:#F5BA7F;}
	.st30{fill:#F4C18E;}
	.st31{fill:#F6B16C;}
	.st32{fill:#F8A95A;}
	.st33{fill:#F1D1B0;}
	.st34{fill:#E7EEEC;}
	.st35{fill:#D3EFED;}
	.st36{fill:#C3F0EE;}
	.st37{fill:#B7F1EF;}
	.st38{fill:#A2F2F1;}
	.st39{fill:#8EF4F3;}
	.st40{fill:#7CF5F4;}
	.st41{fill:#6AF6F5;}
	.st42{fill:#B1F1F0;}
	.st43{fill:#9BF3F2;}
	.st44{fill:#EFDFCE;}
	.st45{fill:#F1D5B8;}
	.st46{fill:#F0DAC3;}
	.st47{fill:#F3C99E;}
	.st48{fill:#F4BE87;}
	.st49{fill:#F2CBA4;}
	.st50{fill:#F4BF89;}
</style>
<g>
	<g>
		<path class="st0" d="M343.2,214.5c6.5,1.3,12.9,3,19.2,4.8c16.2,4.6,31.9,10.4,47,18c11.2,5.7,21.8,12.3,31.7,20.1
			c2.5,2,4.8,4.1,7.3,6.1c0.6,0.5,0.9,0.9-0.2,1.2c-4,1-7.9,1.9-11.9,2.9c-13.6,3.5-27,7.3-40.5,11.1c-14.9,4.2-29.9,8.3-44.9,12
			c-15.3,3.7-30.6,7.1-46.1,9.5c-7.4,1.1-14.8,2.2-22.3,2.7c-4.5,0.3-9,0.6-13.6,0.8c-8.8,0.4-17.6-0.3-26.5-0.1
			c-3.1,0.1-6.1,0.3-9.2,0.3c-6.7-0.2-13.4-0.5-20-1.2c-12.7-1.3-25.3-3.4-37.9-6c-14.4-3-28.7-6.6-42.8-10.4
			c-14.2-3.8-28.4-7.9-42.6-11.9c-10.2-2.9-20.4-5.7-30.6-8.3c-2.6-0.7-5.3-1.1-7.9-2c-0.5-0.5,0.2-0.3,0.2-0.4
			c10-9.8,21.6-17.1,33.8-23.7c17.8-9.6,36.7-16.5,56.2-21.7c7.3-1.9,14.7-3.7,22.1-5c0,0.1,0.1,0.1,0.1,0.2c0.2,0.5,0,0.9-0.4,1.3
			c-1,0.6-2.2,0.5-3.3,0.8c-2.2,0.4-4.3,0.9-6.4,1.5c-3.6,0.9-7.2,1.8-10.7,3c-6.2,2-12.2,4.2-18.2,6.7
			c-21.4,9.1-41.3,20.7-59.5,35.2c0.3,0.5,0.7,0.3,1.1,0.4c1.7,0.3,3.5,0.6,5.2,0.9c1.4,0.4,2.8,0.5,4.2,0.9c1.1,0.3,2,0.1,2.9-0.6
			c3.8-3.1,7.8-5.8,11.8-8.4c8.1-5.4,16.4-10.4,25.1-14.8c1.6-0.8,3.2-1.7,4.8-2.5c5.3-2.3,10.3-5.1,15.7-7.1
			c4.4-1.7,8.8-3.4,13.3-5c3.8-1.3,7.7-2.4,11.6-3.5c0.7-0.2,1.4-0.7,2.1,0c0.4,1.6,0.1,3.3,0.2,5c0,0.9-0.1,1.7,0,2.6
			c0.1,0.2,0.1,0.4,0,0.6c-0.9,2.9-0.1,5.4,1.7,7.7c0.3,0.4,0.4,0.8,0.6,1.2c3.2,7.2,8.6,12,15.6,15.4c8.2,4,16.9,5.7,25.8,6.9
			c6.6,0.9,13.2,1.3,19.8,1.6c3.3,0.1,6.6,0,9.9,0.2c4.2,0.3,8.3,0.3,12.5,0.2c5-0.1,10.1-0.1,15.1-0.3c4.6-0.2,9.2-0.1,13.8-0.4
			c9.5-0.6,18.9-1.2,28.3-3.1c7.4-1.5,14.7-3.5,21.2-7.6c4.7-2.9,8.5-6.6,11.1-11.4c0.2-0.6,0.6-1,1-1.5c1.2-1.3,2.4-2.5,2.9-4.2
			c0.5-1.5,0.4-3-0.1-4.5c0-0.2-0.1-0.4-0.1-0.6c0.7-4.3,0.9-8.6,0.5-13C342.8,216.2,342.6,215.3,343.2,214.5z"/>
		<path class="st1" d="M51.4,264c3,0.2,5.9,1.1,8.8,1.9c16,4,31.9,8.7,47.8,13.2c14.8,4.2,29.7,8.3,44.6,12c8.5,2.1,17,4.1,25.5,5.8
			c8.1,1.6,16.2,3.1,24.4,4.1c6.7,0.9,13.3,1.6,20.1,2c5.2,0.3,10.5,0.6,15.7,0.4c6.5-0.3,12.9-0.2,19.4-0.1c2.3,0,4.7,0.2,7,0.2
			c6.9-0.2,13.8-0.5,20.7-1.2c13.8-1.4,27.4-3.6,40.9-6.4c20.6-4.3,41-9.7,61.3-15.3c14.5-4,28.9-8.2,43.5-12
			c5.3-1.4,10.7-2.8,16.1-4c0.4-0.1,0.8-0.4,1.1,0.1c-22.5,12.6-45.7,23.8-69.9,32.9c-12.8,4.8-25.8,8.9-39.1,12.4
			c-0.6,0.1-1.2,0.2-1.4,1c-1.6,6.8-5.6,12.2-10.6,16.8c-6.8,6.2-14.7,10.5-23.2,13.9c-9.6,3.8-19.6,6.2-29.7,7.8
			c-10.5,1.6-21.2,2-31.8,1.4c-18.6-0.9-36.6-4.5-53.3-12.9c-7.1-3.6-13.7-8.1-18.9-14.3c-2.6-3.1-4.7-6.5-6-10.4
			c-0.2-0.7-0.6-1.1-1.3-1.2c-16.5-3.8-32.6-8.6-48.4-14.6c-13.8-5.3-27.2-11.7-40-19.1C66.7,273.8,58.9,269.1,51.4,264z"/>
		<path class="st2" d="M163.8,213.2c0.5-2,1-4.1,1.6-6.1c2.2-7.7,5.8-14.7,10.4-21.3c2.5-3.6,5.4-6.9,8.5-10.1
			c3.1-3.3,6.6-6.2,10.3-8.8c4.4-3.1,9-5.9,13.9-8.2c8.1-3.8,16.5-6.6,25.4-8.1c4.5-0.7,8.9-1.3,13.4-1.5c3.9-0.2,7.8-0.3,11.7-0.1
			c4.2,0.2,8.3,0.6,12.4,1.3c5.5,0.9,11,2.2,16.3,4c7,2.3,13.6,5.3,19.9,9.1c5.4,3.3,10.3,7,14.9,11.3c5.2,4.9,9.6,10.5,13.2,16.7
			c3.5,6.2,5.7,12.8,7,19.7c0.2,1,0.2,2,0.3,3c-0.6,0.6-1.4,0.3-2,0.1c-7.8-1.7-15.6-2.9-23.5-4.1c-8.6-1.3-17.3-2.3-25.9-2.9
			c-5.4-0.4-10.9-0.8-16.3-1c-5.8-0.3-11.6-0.4-17.5-0.5c-3.1,0-6.2-0.3-9.2-0.2c-6.7,0.3-13.3,0.2-20,0.5
			c-15.6,0.7-31.1,2.1-46.5,4.3c-5.5,0.8-11,1.7-16.5,2.8C165,213.4,164.3,213.6,163.8,213.2L163.8,213.2z"/>
		<path class="st3" d="M163.7,213.3c4-0.9,8.1-1.6,12.2-2.3c4.5-0.7,8.9-1.4,13.4-2c3.3-0.4,6.6-0.7,9.9-1.1
			c4.1-0.4,8.1-0.9,12.2-1.2c2.7-0.2,5.5-0.4,8.2-0.5c4.6-0.2,9.3-0.5,13.9-0.6c2.3-0.1,4.6-0.1,6.8-0.2c3.5-0.1,7.1-0.3,10.6-0.2
			c5.2,0.1,10.4,0.2,15.6,0.3c4,0.1,8,0.3,11.9,0.5c3.8,0.2,7.7,0.4,11.5,0.8c6.2,0.6,12.4,1.1,18.6,1.9c9.3,1.2,18.6,2.6,27.8,4.3
			c2.2,0.4,4.3,1,6.5,1.2c0.1,0.1,0.2,0.2,0.2,0.2c0,2.6,0.4,5.2,0.3,7.9c-0.1,2.7-0.3,5.3-0.8,7.9c-0.4,0-0.5-0.3-0.6-0.5
			c-1.6-2.8-4-4.6-6.7-6.2c-5.3-3.2-11-5.2-16.8-6.9c-10.2-2.9-20.7-4.7-31.3-5.8c-6.5-0.7-13.1-1.2-19.7-1.5
			c-9.2-0.4-18.3-0.4-27.5-0.1c-11.3,0.3-22.5,1.4-33.7,3.2c-3.5,0.6-6.9,1.2-10.3,2c-0.8,0.2-1.6,0.4-2.5,0.4
			c-1.6-0.5-3-1.5-4.5-2.1c-0.9-0.3-1.7-0.4-2.5,0c-1.2,0.6-2.6,0.7-3.9,0.9c-0.3,0-0.5,0-0.8-0.1c-0.6-0.2-1.2-0.1-1.9-0.1
			c-4.8,0-9.6,0.5-14.3,1.2c-0.7,0.1-1.4,0.4-2.1,0.1c-0.1,0-0.1-0.1-0.2-0.1C163.7,214.1,163.8,213.7,163.7,213.3z"/>
		<path class="st4" d="M193.5,214.5c2.3-0.5,4.6-0.9,6.9-1.3c4.6-0.9,9.3-1.6,14-2.2c4.5-0.6,9-0.9,13.6-1.4
			c2.8-0.3,5.6-0.4,8.4-0.5c9.1-0.5,18.1-0.3,27.2-0.2c5.1,0,10.3,0.5,15.4,0.9c3.8,0.3,7.7,0.7,11.5,1.1c4.3,0.5,8.5,1.2,12.7,1.9
			c7.1,1.3,14.1,2.9,20.9,5.3c5,1.7,9.9,3.8,14.1,7c1.9,1.4,3.5,3,4.4,5.2c0,0.2,0,0.3,0,0.5c-0.3,3.2-1.1,6.2-3,8.8
			c-0.3,0.4-0.5,0.8-0.8,1.2c-1.3,1.5-3,2.5-4.7,3.4c-6.9,3.7-14.4,5.9-22,7.7c-1.7,0.4-1.8,0.3-2.5-1.4c-0.5-1.3-1.4-2.3-2.4-3.1
			c-2.6-2.1-5.6-3.4-8.7-4.5c-7.1-2.5-14.5-3.8-21.9-4.7c-6.2-0.8-12.5-1-18.8-1.4c-4.8-0.2-9.6-0.1-14.3,0.2
			c-10.2,0.4-20.3,1.5-30.3,4.1c-4.5,1.2-9,2.6-13,5c-1.4,0.8-2.6,1.7-3.6,3.1c-0.4,0.6-0.8,1.2-0.8,1.9c-0.1,1-0.6,1.2-1.5,1
			c-3.4-0.7-6.7-1.6-10-2.7c-5.6-1.8-11.1-3.8-16-7.2c-1.2-0.8-2.3-1.7-3.1-2.9c-0.2-0.3-0.3-0.7-0.5-1c-1.3-2.4-2.1-5-1.8-7.8
			c0-0.2,0-0.3,0-0.5c0.4-1.8,1.6-3,2.9-4.1c3-2.7,6.5-4.5,10.2-6.1c0.6-0.2,1.1-0.5,1.7-0.8c0.5-0.2,1.1-0.2,1.6-0.3
			c3.6-0.2,6.9-1.5,10.2-2.5c1.2-0.4,2.5-0.6,3.7-1c0.3-0.1,0.5-0.2,0.2-0.4C193.4,214.7,193.4,214.6,193.5,214.5z"/>
		<path class="st5" d="M165.2,239.3c2.8,2.4,5.8,4.4,9.2,5.9c6.5,3,13.3,5,20.2,6.5c0.3,0.1,0.9,0.4,0.9-0.4
			c0.1-1.9,1.3-3.2,2.7-4.3c2.5-2,5.4-3.3,8.4-4.3c5.8-2.1,11.7-3.4,17.7-4.3c4.4-0.6,8.9-1.2,13.3-1.5c3.4-0.2,6.9-0.4,10.3-0.5
			c2.2-0.1,4.3-0.3,6.5-0.2c5.6,0.3,11.3,0.4,16.9,0.9c7.3,0.7,14.6,1.7,21.7,3.6c4.4,1.2,8.7,2.5,12.6,4.9c2.1,1.3,4.2,2.8,4.8,5.5
			c0.1,0.5,0.5,0.7,1.1,0.5c8.5-2,16.9-4.4,24.5-8.9c1.1-0.6,1.9-1.6,3.1-2.1c-0.6,1.8-1.8,3.2-2.9,4.6c-4.4,5.4-10.1,8.8-16.5,11.2
			c-6.4,2.4-13,3.8-19.7,4.7c-5.2,0.7-10.4,1.2-15.6,1.5c-5.9,0.4-11.9,0.6-17.8,0.8c-4.1,0.1-8.2,0-12.2,0.2
			c-4.8,0.3-9.7,0.2-14.5,0.2c-5.4,0-10.7-0.2-16.1-0.5c-10.1-0.6-20.3-1.5-30.2-4c-6.4-1.6-12.5-3.8-17.9-7.6
			C171,248.7,167.3,244.6,165.2,239.3z"/>
		<path class="st6" d="M71.8,263.5c-1.9-0.2-3.7-0.5-5.5-1c2.5-1.9,5.3-3.3,7.9-5c16.2-10,32.5-19.8,48.8-29.8
			c0.6-0.4,1.4-0.6,1.8-1.3c4.2-1.9,8.5-3.5,12.8-5c1.8-0.6,3.6-1.2,5.4-1.7c0.5-0.2,0.6,0,0.4,0.4c-0.2,0.5-0.8,0.8-1.2,1
			c-8.7,5.3-17.5,10.7-26.2,16c-13.9,8.5-27.8,17-41.7,25.4C73.5,263.1,72.9,264,71.8,263.5z"/>
		<path class="st7" d="M246,292.6c-6.2-0.1-11.2-0.6-15.9-3c-0.7-0.4-1.4-0.8-2.1-1.4c-2.1-2-2.1-4.3,0.2-6.2c1.5-1.2,3.3-2,5.1-2.6
			c8.4-2.4,16.7-2.4,25,0.6c1.4,0.5,2.6,1.2,3.7,2.2c2,2,1.9,4.2-0.3,6c-2.8,2.3-6.1,3.1-9.5,3.7C249.8,292.4,247.3,292.6,246,292.6
			z"/>
		<path class="st8" d="M71.8,263.5c0.4,0,0.7,0,1.1-0.2c11.4-7.2,23-14.1,34.5-21.2c9-5.5,18-10.9,27-16.4c2.8-1.7,5.6-3.4,8.4-5.2
			c0.2-0.1,1-0.2,0.3-0.8c3.5-1.3,7.1-2.2,10.8-3c0,1.1-0.9,1.3-1.5,1.7c-4.2,2.5-8.4,5.1-12.6,7.7c-6.2,3.7-12.3,7.5-18.5,11.2
			c-0.3,0.2-0.6,0.4-0.9,0.7c-3.2,1.7-6.4,3.4-9.6,5.1c-8.7,4.7-17.1,9.9-25.1,15.6c-2.5,1.8-5.1,3.6-7.5,5.5
			c-0.3,0.2-0.6,0.5-1,0.4C75.3,264.3,73.5,263.9,71.8,263.5z"/>
		<path class="st9" d="M127.3,270.6c-6.5-0.3-12.7-1.7-18.4-5.2c-1.4-0.9-2.6-1.9-3.7-3.2c-1.7-2.2-1.3-4.4,1.3-5.6
			c2.8-1.3,5.8-1.3,8.8-1c5.1,0.5,9.9,1.8,14.4,4.2c1.8,1,3.5,2.1,4.8,3.7c2.3,2.6,1.7,5.1-1.5,6.3
			C131.2,270.5,129.3,270.6,127.3,270.6z"/>
		<path class="st7" d="M383.9,272c-2.4,0-4.6-0.1-6.6-1.1c-2.6-1.3-3.1-3.4-1.3-5.7c1.2-1.6,2.8-2.7,4.5-3.7
			c6-3.3,12.4-4.9,19.3-4.6c1.8,0.1,3.5,0.4,5,1.3c1.7,0.9,2.2,2.5,1.4,4.2c-0.8,1.7-2.1,2.8-3.6,3.8c-4,2.8-8.6,4.3-13.4,5.2
			C387.5,271.8,385.6,272.1,383.9,272z"/>
		<path class="st10" d="M124.8,226.5c0.1,0.6-0.4,0.8-0.7,1c-8.9,5.4-17.9,10.9-26.8,16.3c-8.1,4.9-16.1,9.9-24.2,14.8
			c-2,1.3-4.1,2.6-6.1,3.8c-0.2,0.1-0.5,0.1-0.7,0.1c-0.5,0-1.1,0.1-1.8-0.3c1.7-1.4,3.3-2.6,5-3.9c10.7-8.1,21.9-15.2,33.7-21.5
			c6.9-3.7,14-7.1,21.2-10.2C124.5,226.5,124.6,226.5,124.8,226.5z"/>
		<path class="st11" d="M120.3,238c0.8-1.4,2.4-1.9,3.7-2.7c9.4-5.8,18.8-11.4,28.2-17.1c0.6-0.4,1.3-0.7,1.7-1.5
			c2.1-0.7,4.3-1.2,6.5-1.5c0.3,0.5,0.3,0.6-0.4,1.1c-1.2,0.8-2.5,1.6-3.7,2.3c-6.5,3.9-12.9,8-19.5,11.8c-0.3,0.2-0.5,0.3-0.6,0.6
			c-4.3,1.6-8.4,3.7-12.6,5.7C122.4,237.1,121.3,237.6,120.3,238z"/>
		<path class="st12" d="M136,231c0.2-1.1,1.3-1.2,2-1.7c7-4.3,14.1-8.6,21.2-12.9c0.4-0.2,1.2-0.3,1-1.1c1-0.5,2.2-0.4,3.3-0.7
			c0,0,0.1,0,0.1,0c0.3,1,0,2-0.4,2.9c-3.6,2.2-7.3,4.4-10.9,6.6c-1,0.6-2,1.3-3,1.9C144.8,227.7,140.4,229.3,136,231z"/>
		<path class="st3" d="M178,219.3c-2.6,1.3-5.3,2.4-7.7,3.9c-2.9,1.8-5.5,3.9-7.3,6.9c-0.5-1-0.2-2.1-0.2-3.1c-0.1-1.6,0-3.2,0-4.8
			c0-0.1,0.1-0.1,0.1-0.2c1.7-0.8,3.6-1,5.4-1.4c1.7-0.4,3.4-0.7,5.1-1c1-0.1,2-0.3,3-0.5C176.9,218.9,177.5,218.8,178,219.3z"/>
		<path class="st13" d="M149.3,226c0.3-0.4,0.6-0.8,1.1-1c3.9-2.4,7.7-4.8,11.6-7.2c0.3-0.2,0.7-0.3,1.1-0.3c0.8,1.5,0.3,3-0.2,4.5
			c0,0-0.1,0-0.1,0C158.2,223.4,153.7,224.7,149.3,226z"/>
		<path class="st14" d="M339.8,239.6c1.3-2.8,2.2-5.8,3-8.8c1.2,2.7,0.3,5.1-1.4,7.3C340.9,238.6,340.5,239.3,339.8,239.6z"/>
		<path class="st15" d="M163,230.5c0.2,2.7,1,5.2,1.8,7.8C162.8,236,161.9,233.5,163,230.5z"/>
		<path class="st16" d="M276.5,319.9c2.8,0.2,5.6,0.1,8.4,0c4.8-0.2,9.5-0.8,14.2-1.4c6.3-0.9,12.5-2,18.7-3.3
			c6.3-1.2,12.6-2.6,18.9-4c0,1.1-0.5,2-0.9,2.9c-2.9,6.4-7.4,11.4-12.9,15.6c-9.4,7.2-20,11.6-31.2,14.8
			c-5.1,1.5-10.3,2.5-15.6,3.4c1.1-1.3,2.2-2.5,3.2-3.9c2-2.8,3.6-5.7,4.4-9.1c1.3-5.5-0.7-9.8-4.9-13.3c-0.4-0.3-0.8-0.6-1.2-0.9
			C277.3,320.4,276.9,320.2,276.5,319.9z"/>
		<path class="st16" d="M443.8,266.7c-2.4,1.3-4.7,2.6-7.1,3.9c-8.4,4.5-16.9,8.7-25.5,12.6c-10.2,4.7-20.6,8.9-31.1,12.8
			c-7.8,2.9-15.7,5.6-23.5,8.2c-1.1,0.4-1.5,0.1-1.6-1.1c-0.1-1.8,0.8-3.4,1.7-4.9c0.7-1.3,1.4-2.6,1.9-4.1c0.3-1,0.1-1.9-0.5-2.7
			c-0.6-0.7-0.5-0.8,0.4-1.1c5.5-1.4,10.9-2.9,16.3-4.4c7.2-2,14.4-4.1,21.5-6.2c10.9-3.3,21.7-6.7,32.7-9.6
			c4.7-1.3,9.5-2.5,14.2-3.6c0.2,0,0.3,0,0.5,0C443.7,266.6,443.8,266.6,443.8,266.7z"/>
		<path class="st17" d="M297.5,163c5.6,3.4,10.6,7.4,15.1,12c1.6,1.6,3,3.3,4.3,5.1c0.5,0.7,0.7,1.1-0.5,1.4
			c-1.4,0.3-2.9,0.2-4.3,0.4c-2.7,0.4-5.5,0.4-8.3,0.6c-3.8,0.3-7.7,0.7-11.5,1c-2.5,0.2-5,0.4-7.6,0.5c-4.2,0.3-8.3,0.6-12.5,0.9
			c-2.6,0.2-5.3,0.4-7.9,0.6c-4.1,0.3-8.2,0.6-12.2,1c-2.5,0.2-5,0.3-7.4,0.5c-4.2,0.3-8.4,0.7-12.6,1c-2.5,0.2-5,0.4-7.4,0.5
			c-4.2,0.3-8.4,0.6-12.6,0.9c-2.7,0.2-5.4,0.4-8.1,0.6c-4,0.3-7.9,0.8-11.9,0.9c-3.2,0.1-6.4,0.6-9.6,0.6c-1,0-1.2-0.3-0.7-1.2
			c2.1-4.4,4.8-8.4,7.8-12.1c2.3-2.8,4.7-5.5,7.6-7.7c0.8,0.3,1.6,0.2,2.5,0.2c5-0.3,10-0.7,14.9-1.1c6.1-0.5,12.2-0.9,18.3-1.4
			c5-0.4,10-0.8,15.1-1.1c3.9-0.3,7.7-0.6,11.6-0.9c3.8-0.3,7.5-0.6,11.3-0.8c4-0.3,8-0.6,12.1-0.9c3.9-0.3,7.8-0.6,11.7-0.9
			C295.6,163.6,296.6,163.6,297.5,163z"/>
		<path class="st18" d="M297.5,163c0,0.5-0.2,0.6-0.7,0.8c-1.5,0.4-3.1,0.2-4.6,0.4c-2.7,0.4-5.5,0.4-8.3,0.6
			c-3.8,0.3-7.7,0.6-11.5,1c-1.2,0.1-2.5,0.2-3.7,0.2c-4.4,0.3-8.8,0.6-13.2,1c-2.8,0.3-5.5,0.3-8.3,0.5c-3.8,0.3-7.7,0.7-11.5,0.9
			c-2.6,0.2-5.1,0.3-7.7,0.6c-4.2,0.3-8.4,0.7-12.6,1c-2.4,0.1-4.9,0.4-7.3,0.5c-3.1,0.2-6.1,0.4-9.2,0.7c-0.7,0.1-1.4,0.1-1.6-0.7
			c1.4-1.6,3.1-2.8,4.8-4c6.5-4.7,13.5-8.4,21.1-10.9c5-1.7,10.1-2.8,15.3-3.6c5.9-0.9,11.8-1.2,17.7-0.9c3.5,0.2,7,0.5,10.5,1.1
			c4.9,0.7,9.7,1.9,14.4,3.4c4.7,1.5,9.3,3.5,13.7,6C295.6,162,296.4,162.7,297.5,163z"/>
		<path class="st19" d="M162.8,222c-0.1-1.5,0.4-3,0.2-4.5c0.2-1,0.4-2,0.6-3c5.5-1,11.1-1.6,16.7-1.5c0.5,0.3,1.2-0.1,1.8,0.2
			c0.2,0,0.5,0,0.7,0c0.3,0.8-0.4,1-0.9,1.3c-2.8,1.8-5.7,3.6-8.6,5.2c-3.1,0.7-6.2,1.3-9.3,2C163.6,221.8,163.2,221.9,162.8,222z"
			/>
		<path class="st20" d="M173.3,219.8c1.1-1.4,2.8-1.9,4.2-2.8c1.4-1,3-1.8,4.4-2.7c0.4-0.2,0.9-0.4,0.9-0.9c1.5-0.3,3-0.5,4.4-1.2
			c0.5-0.3,1.2-0.1,1.8,0.1c1.6,0.7,3.1,1.3,4.5,2.3c0,0.1,0,0.2,0,0.2c-0.4,0.4-1,0.5-1.5,0.6c-4.3,1-8.5,2.5-12.8,3.7
			c-0.4,0.1-0.8,0.2-1.3,0.3C176.4,219.2,174.9,219.7,173.3,219.8z"/>
		<path class="st20" d="M182,213.3c-0.6-0.1-1.2,0.2-1.8-0.2C180.8,213.1,181.5,212.8,182,213.3z"/>
		<path class="st21" d="M179.3,219c1.5-0.9,3.2-1.3,4.8-1.8c2.8-0.9,5.7-1.6,8.6-2.4c0.3-0.1,0.6-0.1,0.9-0.1c0.4,0,0.7,0.1,1.3,0.5
			C189.4,216.2,184.6,218.7,179.3,219z"/>
		<path class="st22" d="M230,284c-0.1-0.5,0-1,0.5-1.3c4.3-0.5,8.7-0.5,13-0.8c2.5-0.2,5-0.2,7.4-0.5c0.7-0.1,1.4,0,2.1,0.1
			c0.7,0.3,1.2,0.9,1.5,1.5c-1.3,0.9-2.6,0.2-3.8,0c-1.8-0.6-3.6-0.9-5.4,0c-0.9,0.5-1.9,0.6-2.9,0.6c-3.7,0.1-7.4,0.5-11.1,0.5
			C230.9,284.2,230.4,284.3,230,284z"/>
		<path class="st23" d="M253,281.5c-1,0.6-2.1,0.3-3.1,0.5c-1.7,0.2-3.5,0.2-5.2,0.3c-4.2,0.2-8.5,0.4-12.7,0.7
			c-0.5,0-1.1,0.2-1.5-0.3c0.2-0.4,0.6-0.7,1-1c3.5-0.2,7-0.4,10.4-0.6c2.2-0.1,4.4-0.1,6.6-0.4c1.1-0.1,2.2,0,3.2,0.1
			C252.2,280.9,252.7,281.1,253,281.5z"/>
		<path class="st24" d="M251.7,280.8c-1.3,0.5-2.8,0.3-4.1,0.4c-2.3,0.1-4.5,0.3-6.8,0.4c-2.7,0-5.4,0.3-8,0.5
			c-0.4,0-0.9,0.2-1.3-0.3c0.4-0.5,1-0.7,1.5-0.9c4.3-0.6,8.6-0.5,12.9-0.9c1.1-0.1,2.2,0.3,3.3,0.1
			C250.2,280,251,280.3,251.7,280.8z"/>
		<path class="st25" d="M249.2,280c-0.2,0.1-0.4,0.2-0.5,0.2c-2.1-0.2-4.1,0.2-6.2,0.3c-2.7,0.1-5.4,0.3-8.2,0.5
			c-0.4,0-0.9,0.1-1.3-0.2c1.6-0.8,3.3-1.1,5-1.4C241.8,278.8,245.5,278.9,249.2,280z"/>
		<path class="st26" d="M231,286c-0.4-0.3-0.6-0.8-0.8-1.2c0.2-0.3,0.5-0.4,0.8-0.4c4.3-0.1,8.6-0.6,12.9-0.6c0.2,0,0.3,0.1,0.5,0.2
			c-0.3,0.4-0.5,0.8-0.8,1.2c-1.1,0.7-2.4,0.5-3.5,0.6c-2.6,0.1-5.2,0.4-7.8,0.4C231.7,286.1,231.3,286.1,231,286z"/>
		<path class="st27" d="M244.2,284c-0.4,0.1-0.9,0.2-1.3,0.2c-4.2,0.2-8.5,0.4-12.7,0.5c-0.2-0.2-0.2-0.5-0.1-0.8
			c1.9-0.5,3.9-0.3,5.9-0.4c3.1-0.3,6.3-0.3,9.4-0.5C245,283.3,244.6,283.7,244.2,284z"/>
		<path class="st28" d="M231,286c0.3-0.1,0.6-0.3,0.9-0.3c2.4,0.1,4.7-0.3,7.1-0.3c1.5,0,3-0.4,4.5-0.2c-0.2,0.4-0.3,0.8-0.5,1.3
			c-0.3,0.3-0.6,0.4-1,0.4c-2.9,0.1-5.7,0.2-8.6,0.5c-0.5,0-1-0.2-1.4-0.3C231.5,286.8,231.2,286.4,231,286z"/>
		<path class="st29" d="M242.7,287.2c-0.1,0.5-0.2,1-0.3,1.5c-0.2,0.2-0.4,0.4-0.7,0.4c-2.4,0.1-4.8,0.7-7.2,0.1
			c-0.6-0.3-1.1-0.7-1.5-1.2c1-0.7,2.2-0.4,3.2-0.5C238.4,287.3,240.5,287.1,242.7,287.2z"/>
		<path class="st30" d="M242.7,287.2c-0.9,0.4-1.9,0.5-2.8,0.5c-2.3,0-4.6,0.4-7,0.3c-0.4-0.3-0.8-0.6-1-1c3.7-0.2,7.3-0.6,11-0.5
			C242.9,286.7,242.8,287,242.7,287.2z"/>
		<path class="st31" d="M234.5,289.3c2.7-0.1,5.3-0.2,8-0.5c0,0.5-0.2,1-0.5,1.5c-1.8,0.8-3.6,0.8-5.5,0.3
			C235.8,290.2,235.1,289.8,234.5,289.3z"/>
		<path class="st32" d="M236.5,290.5c1.8,0.2,3.7-0.3,5.5-0.3c-0.4,1-1.2,1.3-2.2,1.3C238.6,291.5,237.5,291.2,236.5,290.5z"/>
		<path class="st33" d="M250.7,283c1.3,0,2.6,0,3.8,0c0.3,0.4,0.6,0.9,0.2,1.3c-0.4,0.4-0.9,0.1-1.3-0.1
			C252.6,283.8,251.6,283.4,250.7,283z"/>
		<path class="st34" d="M108.5,258c1-1.4,2.5-1.6,4-1.7c4-0.3,7.8,0,11.5,1.7c0.1,0.1,0.3,0.1,0.5,0.1c-0.2,0.7-0.9,0.6-1.4,0.6
			c-4.4,0-8.8,0-13.2,0C109.4,258.6,108.7,258.8,108.5,258z"/>
		<path class="st35" d="M108.5,258c0.3,0.4,0.7,0.3,1,0.3c4.7,0,9.3,0,14,0c0.3,0,0.7,0.1,0.9-0.2c0.7,0.2,1.4,0.5,2,1
			c0,0.5-0.4,0.5-0.7,0.6c-0.2,0.1-0.5,0.1-0.7,0.1c-5.1-0.1-10.2,0.3-15.3,0.2c-0.5,0-1.1,0-1.5-0.4
			C108.1,258.9,108,258.4,108.5,258z"/>
		<path class="st36" d="M108.3,259.5c5.8,0.2,11.5-0.4,17.3-0.2c0.3,0,0.7,0.1,0.9-0.2c0.7,0.3,1.3,0.7,1.8,1.2
			c-0.7,0.6-1.5,0.4-2.3,0.3c-1.9-0.2-3.9-0.1-5.8,0c-3.4,0.2-6.9,0.1-10.3,0.1c-0.5,0-1-0.1-1.4-0.4
			C108.4,260,108.3,259.8,108.3,259.5z"/>
		<path class="st37" d="M108.6,260.2c6.6,0,13.2,0,19.8,0c0.1,0.1,0.3,0.2,0.4,0.3c-0.3,0.8-1,0.5-1.5,0.6c-0.7,0.1-1.4-0.2-2.1-0.3
			c-1.6-0.5-3.2-0.6-4.6,0.5c-1.7,0.7-3.5,0.4-5.2,0.5c-1.5,0-3.1-0.1-4.6-0.1c-0.5,0-1.1,0-1.5-0.4
			C109,260.9,108.8,260.6,108.6,260.2z"/>
		<path class="st38" d="M109.2,261.3c3.8,0,7.5,0,11.3,0c-0.4,0.5-0.9,1-1.3,1.5c-0.4,0.3-0.8,0.4-1.3,0.4c-2.1,0-4.2,0-6.2,0
			c-0.5,0-1-0.1-1.4-0.4C109.9,262.3,109.4,261.9,109.2,261.3z"/>
		<path class="st39" d="M110.3,262.7c3,0,6,0,8.9,0c0,0.4-0.3,0.7-0.5,1c-0.2,0.3-0.5,0.6-0.9,0.6c-1.9,0.1-3.8,0.2-5.7,0
			c-0.2,0-0.5-0.2-0.7-0.3C111,263.7,110.6,263.3,110.3,262.7z"/>
		<path class="st40" d="M111.5,264c1.9,0,3.9,0,5.8,0c0.5,0,1,0,1.4-0.2c-0.2,0.4-0.3,0.8-0.5,1.2c-1.8,0.7-3.7,0.6-5.5,0
			C112.3,264.8,111.8,264.5,111.5,264z"/>
		<path class="st41" d="M112.7,265c1.8,0,3.7,0,5.5,0c-0.8,1.7-1.7,2.1-3.4,1.4C114.1,266.1,113.3,265.8,112.7,265z"/>
		<path class="st42" d="M125.2,260.8c1.2-0.2,2.4,0.2,3.6-0.2c0.5,0.1,0.5,0.6,0.8,0.9c0,0.7-0.6,0.6-1,0.6c-0.5,0-1-0.1-1.6-0.3
			C126.4,261.4,125.8,261.1,125.2,260.8z"/>
		<path class="st43" d="M127,261.8c0.8-0.5,1.8,0.5,2.5-0.3c0.1,0.2,0.3,0.3,0.4,0.5c0.2,0.4,0.3,1,0,1.3c-0.4,0.4-0.8-0.1-1.2-0.3
			C128.1,262.6,127.6,262.2,127,261.8z"/>
		<path class="st44" d="M384.3,260.6c0.5-0.4,1.1-0.6,1.7-0.8c5.2-0.4,10.4,0,15.6-0.1c0.4,0,0.8,0.1,1.2,0.4c0.2,0.3,0.1,0.7,0,1
			c-0.5,0.4-1,0.4-1.5,0.4c-2.9,0-5.9,0.1-8.8-0.1c-2.3-0.1-4.5-0.1-6.8-0.2C385,261.1,384.5,261.2,384.3,260.6z"/>
		<path class="st25" d="M388.8,258.8c3.5-1.1,7.1-1.4,10.8-0.9c0.9,0.1,1.7,0.6,2.4,1.1c-0.2,0.7-0.7,0.6-1.2,0.6
			c-3.6,0-7.3,0.1-10.9-0.2C389.4,259.3,388.9,259.4,388.8,258.8z"/>
		<path class="st45" d="M402.3,261.8c-0.1,0.2-0.3,0.5-0.4,0.7c-0.4,0.3-0.8,0.2-1.2,0.2c-2.5,0-4.9-0.1-7.4,0.1
			c-1.2,0.1-2.5,0-3.7-0.5c-1.5-0.6-3-0.3-4.4,0.2c-0.7,0.3-1.5,0.5-2.3,0.4c-0.4-0.1-0.9,0-1-0.6c0.3-0.5,0.8-0.8,1.3-1
			c3.8-0.3,7.6-0.1,11.5,0.1c2,0.1,4.1,0,6.1,0.1C401.3,261.4,401.9,261.3,402.3,261.8z"/>
		<path class="st24" d="M388.8,258.8c1.5,0.4,3,0.2,4.5,0.4c2.6,0.2,5.3,0.1,8,0.1c0.3,0,0.5,0,0.7-0.2c0.5,0.1,0.7,0.5,0.8,1
			c-5.1,0-10.3,0-15.4,0c-0.4,0-0.9,0.2-1.3-0.2C386.9,259.3,387.8,259,388.8,258.8z"/>
		<path class="st46" d="M402.3,261.8c-5.3,0.1-10.6-0.4-15.9-0.3c-1,0-2.1,0.3-3.2-0.2c0.3-0.2,0.7-0.4,1-0.7
			c0.2,0.2,0.5,0.2,0.7,0.2c5.9,0,11.8,0.4,17.7,0.2C402.7,261.3,402.5,261.6,402.3,261.8z"/>
		<path class="st47" d="M391.8,264.5c-0.3-0.4-0.6-0.8-0.8-1.2c0.3-0.4,0.8-0.4,1.3-0.4c2.6,0,5.1,0,7.7,0c0.5,0,1.1,0,1.5,0.4
			c-0.2,0.5-0.6,0.9-1,1.2C397.5,265.2,394.7,265.2,391.8,264.5z"/>
		<path class="st48" d="M391.8,264.5c2.9,0,5.8,0,8.6,0c-0.5,0.8-1.1,1.3-1.9,1.8c-2,0.1-4,0.5-6-0.3
			C392.3,265.5,392,265,391.8,264.5z"/>
		<path class="st26" d="M401.4,263.2c-3.5,0-7,0-10.5,0c-0.4-0.3-0.8-0.7-1.3-1c3.6,0,7.1,0,10.7,0c0.5,0,1.1,0.2,1.6,0.2
			C401.8,262.7,401.6,263,401.4,263.2z"/>
		<path class="st31" d="M392.5,266c1.5,0,3,0,4.6,0c0.5,0,1,0,1.4,0.3c-0.5,0.7-1.2,1-1.9,1.4C394.5,268.7,393.3,268.2,392.5,266z"
			/>
		<path class="st49" d="M382,262.2c1,0.6,2.2,0.1,3.3,0.3c-0.9,0.6-1.9,1.2-2.8,1.7c-0.6,0.3-1.2,0.4-1.4-0.5
			C381.1,263.1,381.5,262.6,382,262.2z"/>
		<path class="st50" d="M381,263.7c0.4,0.4,0.9,0.5,1.4,0.5c-0.4,0.4-0.8,0.8-1.3,0.6C380.8,264.6,380.6,264.1,381,263.7z"/>
	</g>
</g>
</svg>
