<?xml version="1.0" encoding="utf-8"?>
<!-- Generator: Adobe Illustrator 25.3.1, SVG Export Plug-In . SVG Version: 6.00 Build 0)  -->
<svg version="1.1" id="Layer_1" xmlns="http://www.w3.org/2000/svg" xmlns:xlink="http://www.w3.org/1999/xlink" x="0px" y="0px"
	 viewBox="0 0 500 500" style="enable-background:new 0 0 500 500;" xml:space="preserve">
<style type="text/css">
	.st0{fill:#CBD0D8;}
	.st1{fill:#955353;}
	.st2{fill:#FE003B;}
	.st3{fill:#DD0E3E;}
	.st4{fill:#F0073D;}
	.st5{fill:#E5E8EC;}
</style>
<g>
	<g>
		<path class="st0" d="M354.3,222.2c-0.2-0.8-0.6-0.5-1-0.1c-4.3,3.5-8.6,7-13,10.5c-6.3,5.1-12.7,9.9-19.2,14.7
			c-11.1,8.1-22.4,15.9-33.9,23.4c-10.9,7.1-22,14.1-33.2,20.8c-10.1,6-20.3,11.9-30.6,17.6c-2,1.1-1.9,1.1-3-0.9
			c-3.9-7.1-7.9-14.2-11.8-21.3c-2.9-5.3-5.8-10.6-8.7-15.9c-2.5-4.5-5-9-7.5-13.5c-0.6-1-0.9-1.6,0.5-2.4
			c6.7-3.6,13.4-7.4,20.1-11.2c9-5,18-10,27-15.1c6.1-3.4,12.3-6.8,18.5-10.2c9.1-5.1,18.2-10.1,27.3-15.2c7-3.9,14-7.8,21.1-11.7
			c10.3-5.7,20.7-11.5,31-17.2c7.4-4.1,14.9-8.2,22.3-12.3c2.9-1.6,5.7-3.5,8.8-4.7c0.6,0.7,0.4,1.5,0.4,2.2
			c-1.3,12.1-3.2,24.2-6.2,36c-2.2,8.7-4.7,17.2-8,25.5c-0.1,0.2-0.2,0.5-0.4,0.7C354.6,222.2,354.5,222.2,354.3,222.2z"/>
		<path class="st1" d="M53.8,377.8c-9.1,0.1-18.5-7.2-21.5-16.6c-2.8-8.7,0.6-17.1,9.1-21.9c13.9-7.9,27.9-15.6,41.9-23.4
			c30.7-17,61.3-34.1,92-51.1c1.2-0.7,1.6-0.6,2.3,0.6c4.8,8.7,9.6,17.4,14.4,26.1c1.2,2.1,1.2,2.1-0.8,3.6
			c-15.7,11.9-32.2,22.7-49.2,32.8c-12.8,7.6-25.8,15-39.4,21.1c-9.1,4.1-18.4,7.6-28.2,9.4c-1.7,0.3-3.5,0.6-5.3,0.5
			c-1.1-0.1-2,0.3-2.9,1c-4,3.2-5.7,9.6-3.8,14.3c0.3,0.8,0.3,1.1-0.5,1.5C59.4,377.2,56.7,377.8,53.8,377.8z"/>
		<path class="st2" d="M354.5,222.1c1.2-3.5,2.5-7,3.6-10.6c4.6-13.9,7.7-28.2,9.6-42.7c0.5-3.7,1.1-7.4,1.2-11.2
			c2.1-1.6,4.6-2.7,6.9-4c19.9-11.6,41-20.7,62.5-29.1c0.2-0.1,0.5-0.1,0.8-0.2c1.1,0.1,0.6,0.9,0.6,1.4c-0.4,3.6-1.7,6.9-3.4,10
			c-2.6,4.9-6.1,9.2-9.8,13.4c-6.5,7.4-13.2,14.5-20,21.6c-6.4,6.6-12.8,13.2-19.2,19.8c-10,10.3-20.2,20.5-30.4,30.7
			c-0.4,0.4-0.8,0.9-1.4,1.3C355.1,222.6,354.6,223,354.5,222.1z"/>
		<path class="st2" d="M395.4,288.6c-5-6.1-6.5-13-4.3-20.6c2.3-7.7,5.8-14.9,9.4-22.1c3.7-7.3,7.7-14.4,11.9-21.4
			c0.3-0.4,0.6-0.9,0.9-1.5c1.4,2.4,2.8,4.7,4.1,7.1c2,3.5,4,6.9,5.7,10.5c1.9,5.2,2.9,10.7,3.4,16.2c0.4,5.1,0.6,10.2-1.1,15.2
			c-1.4,4.1-3.9,7.2-7.9,9.2c-6.5,3.2-13.2,5.7-20.2,7.4C396.7,288.7,396.1,289,395.4,288.6z"/>
		<path class="st3" d="M354.5,222.1c0.5,0.6,0.8,0,1.1-0.3c8.1-8,16.1-16,24.1-24.2c1.6-1.6,3.1-3.3,4.7-5
			c6.7-6.8,13.4-13.6,20.1-20.4c4.7-4.9,9.4-9.9,14-14.9c5.5-6.1,11.2-12,15.7-19c2.6-4,4.5-8.3,5.1-13.1c0.1-0.4,0.1-0.7-0.3-0.9
			c1.7-0.7,3.5-1.4,5.2-2c0.8-0.3,1.2-0.3,0.9,0.9c-1.7,6.5-4.4,12.6-7.5,18.6c-7.5,14.5-17.1,27.6-27.6,40
			c-18.9,22.3-40.5,41.7-63.4,59.8c-0.4,0.3-0.7,0.5-1.4,1c3.2-7,6.2-13.7,8.9-20.5C354.4,222.1,354.5,222.1,354.5,222.1z"/>
		<path class="st3" d="M395.4,288.6c5.2-1.2,10.3-2.7,15.2-4.7c3.2-1.3,6.4-2.7,9.3-4.7c3.4-2.3,5-5.7,5.7-9.5
			c1.4-7.1,0.6-14.2-0.7-21.2c-0.5-2.6-1.5-5.2-1.7-7.9c4.8,8.8,9.4,17.7,12.3,27.3c2.6,8.5,0.4,15.9-5.6,22.2
			C420.5,300,403.7,299.2,395.4,288.6z"/>
		<path class="st2" d="M449.2,230c-5.5-0.8-10.9-6.1-12.2-12c-0.8-3.5-0.1-6.8,1.1-10.1c3.7-9.8,8.8-18.8,14.1-27.9
			c0.4-0.7,0.7-0.6,1,0c0.2,0.3,0.3,0.7,0.5,1c1.4,3.9,1.4,8,2,12c0.4,2.7,0.5,5.5,0.5,8.3c0.2,7.8-0.3,15.5-3.4,22.9
			C451.8,226.2,450.7,228.3,449.2,230z"/>
		<path class="st3" d="M449.2,230c0.2-1.2,1-2.1,1.6-3c2.7-4.6,3.9-9.6,4.4-14.8c0.3-3.1,0.7-6.1,0.6-9.2c-0.3-7-0.8-14-2.1-20.9
			c-0.1-0.4,0-0.7,0-1.1c3.9,6.1,7.1,12.5,10.3,18.9c1.6,3.2,3,6.5,4,10c3.2,10.7-4.9,21-16.1,20.5C450.9,230.3,450,230.4,449.2,230
			z"/>
		<path class="st2" d="M459.5,267.9c-4.3-0.4-7.6-4.8-6.7-9c0.6-2.7,1.8-5.2,3.1-7.7c1.4-2.8,3.1-5.6,4.6-8.3c0,0,0.1-0.1,0.1-0.1
			c0.1,0,0.1,0.1,0.2,0.1c0.6,1.4,0.6,3,0.7,4.4c0.3,6.2,0.5,12.4-1,18.5C460.3,266.5,460.2,267.3,459.5,267.9z"/>
		<path class="st3" d="M459.5,267.9c1.7-6.3,1.7-12.7,1.6-19.1c0-2-0.4-3.9-0.3-5.9c3.1,4.9,6,9.9,7.6,15.4
			C470,263.6,464.7,269.2,459.5,267.9z"/>
		<path class="st4" d="M414.5,196.2c1.4,2.6,2.9,4.9,3.7,7.6c0.6,1.8,0.1,3.4-1.3,4.4c-1.4,1.1-3.2,1.1-4.6,0.1
			c-1.5-1-2.1-2.6-1.6-4.4C411.5,201.2,413,198.7,414.5,196.2z"/>
		<path class="st5" d="M71.1,338.9c0-3.1,2.4-5.5,5.6-5.5c3.2,0,5.7,2.5,5.7,5.7c0,3-2.6,5.6-5.6,5.6
			C73.6,344.6,71.1,342,71.1,338.9z"/>
		<path class="st5" d="M145.6,295.1c3.1,0,5.6,2.5,5.6,5.5c0,3.2-2.6,5.8-5.9,5.7c-2.9-0.1-5.3-2.7-5.3-5.7
			C140,297.5,142.4,295.1,145.6,295.1z"/>
		<path class="st5" d="M111.2,314.2c3.1,0,5.6,2.5,5.6,5.6c0,3.1-2.6,5.7-5.7,5.7c-3,0-5.5-2.5-5.5-5.6
			C105.5,316.6,108,314.2,111.2,314.2z"/>
	</g>
</g>
</svg>
