<?xml version="1.0" encoding="utf-8"?>
<!-- Generator: Adobe Illustrator 25.3.1, SVG Export Plug-In . SVG Version: 6.00 Build 0)  -->
<svg version="1.1" xmlns="http://www.w3.org/2000/svg" xmlns:xlink="http://www.w3.org/1999/xlink" x="0px" y="0px"
	 viewBox="0 0 500 500" style="enable-background:new 0 0 500 500;" xml:space="preserve">
<style type="text/css">
	.st0{display:none;}
	.st1{display:inline;fill:#963232;}
	.st2{fill:#F09631;}
	.st3{fill:#FFFFFF;}
</style>
<g id="Layer_2" class="st0">
	<rect class="st1" width="500" height="500"/>
</g>
<g id="Layer_1">
	<g>
		<path class="st2" d="M200.2,242.4h-53.9v-93.1h53.9c26.2,0,45.3,18.6,45.3,45.6S226.5,242.4,200.2,242.4z M162.5,226.1h37.8
			c16.8,0,29.1-12.9,29.1-30.5s-12.3-30.1-29.1-30.1h-37.8V226.1z M342,201.3v-52h15.9v52c0,28.8-14.2,42.4-50.3,42.4
			c-35.8,0-50.2-13.6-50.2-42.4v-52h16.8v52c0,18.7,8.3,26.4,33.9,26.4S342,220,342,201.3z"/>
		<path class="st3" d="M137.9,349.4h-16.1L104,284l-26.4,60.5c-1.8,4-4.4,6.1-8.3,6.1c-3.8,0-6.7-2.2-8.3-6.1L34.8,284L17,349.4H1
			l23.9-87.6c1.2-4.5,3.7-6.7,8.1-6.7c3.5,0,6.7,1.9,8.2,5.5l28.7,65.8l28.7-65.8c1.5-3.6,4.4-5.5,7.8-5.5c4,0,6.5,2.2,7.8,6.7
			L137.9,349.4z M208.7,349.4h-22.7c-26,0-45.2-20.5-45.2-47.5c0-27.4,19.2-45.6,45.2-45.6h22.7c26.9,0,45.6,18.6,45.6,45.6
			C254.3,328.9,235.2,349.4,208.7,349.4z M186.1,333.1h22.7c17.2,0,29.3-12.9,29.3-30.5c0-17.5-12.2-30.1-29.3-30.1h-22.7
			c-16.6,0-28.9,12.4-28.9,30.1C157.2,320.2,169.3,333.1,186.1,333.1z M302.3,345.4l-53.5-89.1h19.8l42.2,71.7l42.1-71.7h18.7
			l-53.6,89.1c-1.9,3.2-4.5,5.2-7.8,5.2C306.7,350.7,304.2,348.6,302.3,345.4z M398.9,349.4h-16.3v-93.1h16.3V349.4z M499,349.4
			h-83.2v-93.1h83.1v16.3H432v60.5H499V349.4z M495.4,308.9h-51.6v-13.7h51.6V308.9z"/>
	</g>
</g>
</svg>
